<svg width="224" height="48" viewBox="0 0 224 48" fill="none" xmlns="http://www.w3.org/2000/svg">
<g clip-path="url(#clip0_247_8135)">
<path d="M33.1329 8.02588H0.569336V40.0259H33.1329V8.02588Z" fill="#AFDCD0"/>
<path d="M11.4578 18.5991H0.569336V29.2991H11.4578V18.5991Z" fill="#77D3B9"/>
<path d="M22.3435 18.5991H11.4551V29.2991H22.3435V18.5991Z" fill="#0AC18E"/>
<path d="M33.1336 8H22.2451V18.7H33.1336V8Z" fill="#0AC18E"/>
<path d="M11.4578 29.2993H0.569336V39.9993H11.4578V29.2993Z" fill="#0AC18E"/>
<path d="M22.3435 29.2993H11.4551V39.9993H22.3435V29.2993Z" fill="#77D3B9"/>
<path d="M33.1336 18.5981H22.2451V29.2981H33.1336V18.5981Z" fill="#77D3B9"/>
<path d="M22.3435 8H11.4551V18.7H22.3435V8Z" fill="#77D3B9"/>
<path d="M49.2776 35H38.6562V11.9688H50.0408C52.9134 12.0104 54.9487 12.8281 56.1465 14.4218C56.8673 15.401 57.2277 16.5729 57.2277 17.9374C57.2277 19.3437 56.8673 20.4739 56.1465 21.3281C55.7437 21.8073 55.1501 22.2447 54.3656 22.6405C55.5634 23.0676 56.4645 23.7448 57.0687 24.6718C57.6834 25.5989 57.9909 26.724 57.9909 28.0468C57.9909 29.4114 57.641 30.6354 56.9415 31.7187C56.4962 32.4374 55.9398 33.0417 55.272 33.5312C54.5193 34.0937 53.6289 34.4792 52.6007 34.6875C51.5831 34.8958 50.4754 35 49.2776 35ZM49.1663 24.8594H43.3309V31H49.0868C50.115 31 50.9153 30.8645 51.4877 30.5937C52.5265 30.0937 53.046 29.1354 53.046 27.7187C53.046 26.5208 52.5424 25.6979 51.5354 25.25C50.9736 25 50.1839 24.8698 49.1663 24.8594ZM51.599 20.4688C52.235 20.0937 52.553 19.4218 52.553 18.4531C52.553 17.3802 52.129 16.6718 51.281 16.3281C50.5496 16.0885 49.6168 15.9688 48.4825 15.9688H43.3309V21.0468H49.0868C50.115 21.0468 50.9525 20.8541 51.599 20.4688Z" fill="#2B2B37"/>
<path d="M66.4017 17.9688V35H61.8066V17.9688H66.4017ZM66.4017 11.8281V15.9375H61.8066V11.8281H66.4017Z" fill="#2B2B37"/>
<path d="M78.7405 31.8281V35.1563L76.594 35.2344C74.4527 35.3073 72.9898 34.9428 72.2055 34.1406C71.6966 33.6302 71.4422 32.8438 71.4422 31.7813V21.2969H69.0254V18.1251H71.4422V13.375H75.9261V18.1251H78.7405V21.2969H75.9261V30.2969C75.9261 30.9948 76.0162 31.4324 76.1964 31.6094C76.3766 31.776 76.9278 31.8595 77.85 31.8595C77.9878 31.8595 78.1309 31.8595 78.2793 31.8595C78.4383 31.8489 78.592 31.8385 78.7405 31.8281Z" fill="#2B2B37"/>
<path d="M96.6437 24.0782H92.0009C91.9161 23.4427 91.6988 22.8698 91.349 22.3594C90.8402 21.6719 90.0505 21.3281 88.9798 21.3281C87.4534 21.3281 86.4093 22.0729 85.8475 23.5625C85.5507 24.3542 85.4024 25.4063 85.4024 26.7187C85.4024 27.9688 85.5507 28.9739 85.8475 29.7344C86.3882 31.1511 87.4058 31.8594 88.9004 31.8594C89.9604 31.8594 90.713 31.5782 91.1582 31.0156C91.6034 30.4531 91.8737 29.724 91.9691 28.8281H96.5961C96.49 30.1823 95.9918 31.4635 95.1014 32.6719C93.681 34.6198 91.5769 35.5937 88.7891 35.5937C86.0012 35.5937 83.9501 34.7812 82.6357 33.1562C81.3213 31.5312 80.6641 29.4218 80.6641 26.8281C80.6641 23.901 81.3901 21.625 82.8424 20C84.2946 18.375 86.298 17.5625 88.8526 17.5625C91.0257 17.5625 92.8012 18.0417 94.1793 19C95.5678 19.9583 96.3893 21.6511 96.6437 24.0782Z" fill="#2B2B37"/>
<path d="M114.229 20.1251C115.692 21.9271 116.424 24.0573 116.424 26.5157C116.424 29.0157 115.692 31.1563 114.229 32.9375C112.767 34.7084 110.546 35.5938 107.567 35.5938C104.589 35.5938 102.368 34.7084 100.905 32.9375C99.4424 31.1563 98.7109 29.0157 98.7109 26.5157C98.7109 24.0573 99.4424 21.9271 100.905 20.1251C102.368 18.323 104.589 17.4219 107.567 17.4219C110.546 17.4219 112.767 18.323 114.229 20.1251ZM107.551 21.1876C106.226 21.1876 105.204 21.6511 104.483 22.5782C103.772 23.4948 103.417 24.8074 103.417 26.5157C103.417 28.224 103.772 29.5418 104.483 30.4688C105.204 31.3959 106.226 31.8595 107.551 31.8595C108.876 31.8595 109.894 31.3959 110.604 30.4688C111.314 29.5418 111.67 28.224 111.67 26.5157C111.67 24.8074 111.314 23.4948 110.604 22.5782C109.894 21.6511 108.876 21.1876 107.551 21.1876Z" fill="#2B2B37"/>
<path d="M124.343 17.9688V35H119.747V17.9688H124.343ZM124.343 11.8281V15.9375H119.747V11.8281H124.343Z" fill="#2B2B37"/>
<path d="M136.904 21.2656C135.367 21.2656 134.312 21.9063 133.739 23.1875C133.442 23.8646 133.294 24.7291 133.294 25.7812V35H128.778V18H133.151V20.4843C133.734 19.6094 134.286 18.9792 134.805 18.5937C135.737 17.9063 136.92 17.5625 138.351 17.5625C140.142 17.5625 141.605 18.026 142.739 18.9531C143.883 19.8698 144.456 21.3959 144.456 23.5312V35H139.814V24.6406C139.814 23.7448 139.691 23.0572 139.448 22.5782C139.002 21.7031 138.154 21.2656 136.904 21.2656Z" fill="#2B2B37"/>
<path d="M148.574 30.3438H153.391V35H148.574V30.3438Z" fill="#2B2B37"/>
<path d="M172.711 24.0782H168.067C167.983 23.4427 167.766 22.8698 167.416 22.3594C166.907 21.6719 166.118 21.3281 165.047 21.3281C163.52 21.3281 162.477 22.0729 161.914 23.5625C161.618 24.3542 161.47 25.4063 161.47 26.7187C161.47 27.9688 161.618 28.9739 161.914 29.7344C162.455 31.1511 163.473 31.8594 164.967 31.8594C166.027 31.8594 166.781 31.5782 167.225 31.0156C167.671 30.4531 167.941 29.724 168.037 28.8281H172.663C172.557 30.1823 172.059 31.4635 171.168 32.6719C169.749 34.6198 167.643 35.5937 164.856 35.5937C162.069 35.5937 160.017 34.7812 158.703 33.1562C157.389 31.5312 156.731 29.4218 156.731 26.8281C156.731 23.901 157.457 21.625 158.91 20C160.361 18.375 162.365 17.5625 164.92 17.5625C167.093 17.5625 168.869 18.0417 170.246 19C171.635 19.9583 172.456 21.6511 172.711 24.0782Z" fill="#2B2B37"/>
<path d="M190.296 20.1251C191.759 21.9271 192.49 24.0573 192.49 26.5157C192.49 29.0157 191.759 31.1563 190.296 32.9375C188.833 34.7084 186.613 35.5938 183.634 35.5938C180.656 35.5938 178.435 34.7084 176.973 32.9375C175.51 31.1563 174.778 29.0157 174.778 26.5157C174.778 24.0573 175.51 21.9271 176.973 20.1251C178.435 18.323 180.656 17.4219 183.634 17.4219C186.613 17.4219 188.833 18.323 190.296 20.1251ZM183.618 21.1876C182.294 21.1876 181.271 21.6511 180.55 22.5782C179.839 23.4948 179.485 24.8074 179.485 26.5157C179.485 28.224 179.839 29.5418 180.55 30.4688C181.271 31.3959 182.294 31.8595 183.618 31.8595C184.943 31.8595 185.961 31.3959 186.671 30.4688C187.382 29.5418 187.736 28.224 187.736 26.5157C187.736 24.8074 187.382 23.4948 186.671 22.5782C185.961 21.6511 184.943 21.1876 183.618 21.1876Z" fill="#2B2B37"/>
<path d="M205.481 22.6563C205.099 21.8334 204.352 21.4219 203.239 21.4219C201.946 21.4219 201.077 21.8334 200.632 22.6563C200.387 23.1251 200.266 23.823 200.266 24.75V35H195.671V18H200.075V20.4844C200.637 19.599 201.167 18.9688 201.665 18.5938C202.545 17.9271 203.685 17.5938 205.083 17.5938C206.409 17.5938 207.479 17.8803 208.295 18.4532C208.953 18.9844 209.45 19.6667 209.79 20.5C210.384 19.5 211.12 18.7656 212 18.297C212.933 17.8282 213.971 17.5938 215.117 17.5938C215.88 17.5938 216.632 17.7396 217.375 18.0312C218.117 18.323 218.79 18.8334 219.394 19.5626C219.881 20.1563 220.21 20.8854 220.379 21.75C220.486 22.323 220.538 23.1615 220.538 24.2656L220.506 35H215.864V24.1563C215.864 23.5104 215.758 22.9792 215.546 22.5626C215.143 21.7709 214.401 21.375 213.32 21.375C212.069 21.375 211.206 21.8854 210.728 22.9063C210.485 23.4479 210.362 24.099 210.362 24.8595V35H205.799V24.8595C205.799 23.849 205.693 23.1147 205.481 22.6563Z" fill="#2B2B37"/>
</g>
<defs>
<clipPath id="clip0_247_8135">
<rect width="222.857" height="48" fill="white" transform="translate(0.571289)"/>
</clipPath>
</defs>
</svg>
