<svg width="118" height="48" viewBox="0 0 118 48" fill="none" xmlns="http://www.w3.org/2000/svg">
<path fill-rule="evenodd" clip-rule="evenodd" d="M43.6942 40.6565C39.1266 45.1839 32.7147 48 25.6142 48C11.7451 48 0.501953 37.2549 0.501953 24C0.501953 10.7452 11.7451 0 25.6142 0C32.403 0 38.5626 2.57443 43.0822 6.7575L35.6884 13.8239C33.062 11.4481 29.5161 9.99112 25.6142 9.99112C17.5187 9.99112 10.9559 16.2632 10.9559 24.0001C10.9559 31.7371 17.5187 38.0093 25.6142 38.0093C29.7272 38.0093 33.4445 36.3903 36.1066 33.783L43.5681 40.5064L43.6942 40.6565Z" fill="#00B8FA"/>
<path fill-rule="evenodd" clip-rule="evenodd" d="M25.7189 35.1844C32.2456 35.1844 37.5365 30.1278 37.5365 23.8904C37.5365 17.6528 32.2456 12.5962 25.7189 12.5962C19.1922 12.5962 13.9014 17.6528 13.9014 23.8904C13.9014 30.1278 19.1922 35.1844 25.7189 35.1844ZM16.8558 19.2208H19.5829L21.9691 26.4968L24.5827 19.3293H26.7416L29.3552 26.4968L31.7415 19.3293H34.3549L30.4915 30.189H28.2189L25.6053 23.2387L22.9919 30.189H20.9464L16.8558 19.2208Z" fill="#00B8FA"/>
<path d="M67.12 14.6397C66.9627 16.2323 66.3474 17.4765 65.2745 18.372C64.2016 19.2608 62.7747 19.705 60.9937 19.705C59.749 19.705 58.6512 19.4248 57.6999 18.8643C56.7556 18.2968 56.0262 17.4936 55.511 16.4545C54.996 15.4155 54.7277 14.209 54.7063 12.835V11.4405C54.7063 10.0322 54.9675 8.7915 55.4897 7.71826C56.0116 6.64502 56.7592 5.81787 57.732 5.23681C58.7119 4.65576 59.842 4.36523 61.1224 4.36523C62.8462 4.36523 64.2338 4.81299 65.2854 5.70849C66.3368 6.604 66.9483 7.86865 67.12 9.50243H64.4163C64.2874 8.4292 63.9585 7.65673 63.4292 7.18506C62.9071 6.70655 62.1382 6.46728 61.1224 6.46728C59.9423 6.46728 59.0338 6.88086 58.3972 7.708C57.7679 8.52832 57.4459 9.73487 57.4316 11.3276V12.6504C57.4316 14.2637 57.732 15.4941 58.3329 16.3417C58.9409 17.1894 59.8278 17.6133 60.9937 17.6133C62.0594 17.6133 62.8604 17.3842 63.3969 16.9263C63.9334 16.4682 64.2731 15.7061 64.4163 14.6397H67.12ZM76.2399 19.5C76.1252 19.288 76.0251 18.9429 75.9394 18.4643C75.1096 19.2915 74.094 19.705 72.8922 19.705C71.7264 19.705 70.7751 19.3872 70.0384 18.7515C69.3016 18.1157 68.9332 17.3296 68.9332 16.393C68.9332 15.2104 69.3911 14.3047 70.3066 13.6758C71.2294 13.04 72.5453 12.7222 74.2548 12.7222H75.8536V11.9942C75.8536 11.4199 75.6855 10.9619 75.3493 10.6201C75.0131 10.2715 74.5016 10.0972 73.815 10.0972C73.2214 10.0972 72.735 10.2407 72.3559 10.5278C71.9767 10.8081 71.7871 11.167 71.7871 11.6045H69.18C69.18 10.9961 69.3911 10.4287 69.813 9.90234C70.235 9.36913 70.8073 8.95215 71.5297 8.65137C72.2592 8.35059 73.0712 8.20019 73.9651 8.20019C75.3242 8.20019 76.408 8.52832 77.2161 9.18457C78.0244 9.83399 78.4392 10.75 78.4608 11.9326V16.9365C78.4608 17.9346 78.6073 18.731 78.9007 19.3257V19.5H76.2399ZM73.3752 17.7056C73.8901 17.7056 74.3729 17.5859 74.8235 17.3467C75.2814 17.1073 75.6246 16.7862 75.8536 16.3829V14.291H74.4481C73.4824 14.291 72.7564 14.4517 72.27 14.7729C71.7836 15.0942 71.5404 15.5488 71.5404 16.1367C71.5404 16.6152 71.7049 16.9979 72.034 17.2851C72.3701 17.5655 72.8172 17.7056 73.3752 17.7056ZM84.9626 14.7422L83.8039 15.8803V19.5H81.1967V3.75H83.8039V12.835L84.6192 11.8608L87.8273 8.40528H90.9602L86.6471 13.0298L91.4216 19.5H88.4066L84.9626 14.7422ZM97.5693 19.705C95.9171 19.705 94.576 19.2095 93.5459 18.2183C92.5231 17.2201 92.0116 15.8939 92.0116 14.2398V13.9321C92.0116 12.8247 92.2335 11.8369 92.6768 10.9688C93.1274 10.0937 93.757 9.41358 94.5651 8.92823C95.3735 8.44287 96.2746 8.20019 97.2689 8.20019C98.8498 8.20019 100.069 8.68214 100.928 9.64599C101.793 10.6099 102.226 11.9736 102.226 13.7373V14.7422H94.6403C94.719 15.6582 95.0372 16.3829 95.5952 16.916C96.1602 17.4491 96.8684 17.7158 97.7195 17.7158C98.9141 17.7158 99.887 17.2544 100.638 16.3315L102.043 17.6133C101.578 18.2763 100.956 18.7925 100.176 19.1616C99.4041 19.524 98.5349 19.705 97.5693 19.705ZM97.2583 10.1997C96.5428 10.1997 95.9635 10.439 95.52 10.9175C95.0837 11.396 94.8048 12.0625 94.6832 12.917H99.6508V12.7325C99.5936 11.8984 99.3611 11.2695 98.9533 10.8457C98.5458 10.415 97.9805 10.1997 97.2583 10.1997ZM67.4525 39.8087L69.856 28.5704H72.549L68.9439 43.5H66.3474L63.3755 32.6001L60.3392 43.5H57.732L54.127 28.5704H56.82L59.2448 39.7881L62.2274 28.5704H64.502L67.4525 39.8087ZM80.8534 43.5C80.7388 43.288 80.6387 42.9429 80.5529 42.4643C79.7233 43.2915 78.7074 43.705 77.5058 43.705C76.34 43.705 75.3886 43.3872 74.6518 42.7515C73.9151 42.1157 73.5467 41.3296 73.5467 40.393C73.5467 39.2104 74.0045 38.3048 74.92 37.6758C75.8427 37.0401 77.159 36.7221 78.8684 36.7221H80.4671V35.9942C80.4671 35.42 80.2989 34.9618 79.9627 34.6201C79.6266 34.2715 79.1152 34.0971 78.4285 34.0971C77.8348 34.0971 77.3484 34.2407 76.9693 34.5279C76.5904 34.8081 76.4008 35.1671 76.4008 35.6045H73.7936C73.7936 34.996 74.0045 34.4288 74.4266 33.9024C74.8487 33.3691 75.4209 32.9521 76.1432 32.6514C76.8728 32.3506 77.6845 32.2002 78.5787 32.2002C79.9378 32.2002 81.0213 32.5282 81.8297 33.1845C82.638 33.8339 83.0528 34.7501 83.0744 35.9327V40.9365C83.0744 41.9346 83.2209 42.731 83.5142 43.3257V43.5H80.8534ZM77.9887 41.7055C78.5035 41.7055 78.9865 41.5859 79.4371 41.3467C79.8948 41.1073 80.2383 40.7862 80.4671 40.3829V38.291H79.0616C78.096 38.291 77.3699 38.4515 76.8835 38.7729C76.3971 39.0942 76.154 39.5488 76.154 40.1367C76.154 40.6152 76.3185 40.9979 76.6474 41.2851C76.9836 41.5655 77.4308 41.7055 77.9887 41.7055ZM88.5784 43.5H85.9712V27.7499H88.5784V43.5ZM94.2003 43.5H91.5932V27.7499H94.2003V43.5ZM102.161 43.705C100.509 43.705 99.1681 43.2095 98.138 42.2183C97.1152 41.2201 96.6038 39.8939 96.6038 38.2398V37.9321C96.6038 36.8247 96.8253 35.8369 97.2689 34.9688C97.7195 34.0938 98.3491 33.4136 99.1572 32.9281C99.9656 32.4429 100.867 32.2002 101.861 32.2002C103.442 32.2002 104.661 32.6822 105.52 33.6461C106.385 34.6098 106.818 35.9736 106.818 37.7373V38.7422H99.2324C99.3111 39.6582 99.6293 40.3829 100.187 40.9159C100.752 41.4491 101.461 41.7158 102.312 41.7158C103.506 41.7158 104.479 41.2543 105.23 40.3315L106.636 41.6133C106.17 42.2763 105.548 42.7925 104.769 43.1616C103.996 43.524 103.127 43.705 102.161 43.705ZM101.85 34.1997C101.135 34.1997 100.556 34.439 100.112 34.9175C99.6759 35.396 99.3969 36.0625 99.2753 36.9169H104.243V36.7325C104.186 35.8984 103.953 35.2695 103.545 34.8457C103.138 34.4151 102.573 34.1997 101.85 34.1997ZM112.118 29.7086V32.4053H114.167V34.251H112.118V40.4443C112.118 40.8681 112.204 41.1758 112.376 41.3672C112.554 41.5518 112.869 41.644 113.32 41.644C113.62 41.644 113.924 41.6098 114.232 41.5415V43.4693C113.638 43.6264 113.066 43.705 112.515 43.705C110.512 43.705 109.511 42.6489 109.511 40.5366V34.251H107.601V32.4053H109.511V29.7086H112.118Z" fill="#2B2B37"/>
</svg>
