<svg width="180" height="48" viewBox="0 0 180 48" fill="none" xmlns="http://www.w3.org/2000/svg">
<g clip-path="url(#clip0_247_8166)">
<mask id="mask0_247_8166" style="mask-type:luminance" maskUnits="userSpaceOnUse" x="0" y="0" width="180" height="48">
<path d="M179.857 0H0.428711V48H179.857V0Z" fill="white"/>
</mask>
<g mask="url(#mask0_247_8166)">
<path d="M98.8867 32.8308V15.127H105.09C106.837 15.127 108.209 15.5592 109.208 16.4236C110.206 17.2714 110.706 18.4267 110.706 19.8896C110.706 21.2527 110.259 22.3582 109.368 23.2059C108.495 24.0371 107.282 24.5108 105.732 24.6272L113.245 32.8308H110.598L103.085 24.6023H100.919V32.8308H98.8867ZM100.919 22.8568H104.849C107.381 22.8568 108.646 21.8678 108.646 19.8896C108.646 17.8947 107.381 16.8974 104.849 16.8974H100.919V22.8568Z" fill="#2B2B37"/>
<path d="M120.71 33.0801C118.749 33.0801 117.127 32.4566 115.844 31.2099C114.577 29.9465 113.944 28.4089 113.944 26.5969C113.944 24.785 114.577 23.2556 115.844 22.0089C117.127 20.7454 118.749 20.1138 120.71 20.1138C122.653 20.1138 124.204 20.7039 125.361 21.8842V20.3631H127.233V32.8307H125.361V31.3097C124.204 32.4899 122.653 33.0801 120.71 33.0801ZM120.79 31.4593C121.824 31.4593 122.733 31.2515 123.517 30.8358C124.302 30.4203 124.916 29.8717 125.361 29.1901V24.0036C124.916 23.3221 124.302 22.7735 123.517 22.3579C122.733 21.9423 121.824 21.7346 120.79 21.7346C119.346 21.7346 118.16 22.2083 117.233 23.1558C116.325 24.0868 115.87 25.2338 115.87 26.5969C115.87 27.9601 116.325 29.1154 117.233 30.0629C118.16 30.9938 119.346 31.4593 120.79 31.4593Z" fill="#2B2B37"/>
<path d="M138.355 33.0788C136.412 33.0788 134.863 32.4888 133.704 31.3086V32.8296H131.833V14.627H133.704V21.8831C134.863 20.7028 136.412 20.1127 138.355 20.1127C140.318 20.1127 141.93 20.7443 143.196 22.0078C144.48 23.2545 145.121 24.7839 145.121 26.5958C145.121 28.4078 144.48 29.9454 143.196 31.2088C141.93 32.4555 140.318 33.0788 138.355 33.0788ZM138.276 31.4582C139.72 31.4582 140.896 30.9927 141.806 30.0617C142.732 29.1143 143.196 27.9588 143.196 26.5958C143.196 25.2327 142.732 24.0857 141.806 23.1547C140.896 22.2072 139.72 21.7335 138.276 21.7335C137.242 21.7335 136.332 21.9412 135.548 22.3568C134.763 22.7724 134.15 23.321 133.704 24.0025V29.189C134.15 29.8706 134.763 30.4192 135.548 30.8347C136.332 31.2503 137.242 31.4582 138.276 31.4582Z" fill="#2B2B37"/>
<path d="M155.12 33.0788C153.177 33.0788 151.627 32.4888 150.469 31.3086V32.8296H148.596V14.627H150.469V21.8831C151.627 20.7028 153.177 20.1127 155.12 20.1127C157.081 20.1127 158.695 20.7443 159.96 22.0078C161.245 23.2545 161.886 24.7839 161.886 26.5958C161.886 28.4078 161.245 29.9454 159.96 31.2088C158.695 32.4555 157.081 33.0788 155.12 33.0788ZM155.04 31.4582C156.485 31.4582 157.661 30.9927 158.571 30.0617C159.497 29.1143 159.96 27.9588 159.96 26.5958C159.96 25.2327 159.497 24.0857 158.571 23.1547C157.661 22.2072 156.485 21.7335 155.04 21.7335C154.007 21.7335 153.097 21.9412 152.313 22.3568C151.528 22.7724 150.915 23.321 150.469 24.0025V29.189C150.915 29.8706 151.528 30.4192 152.313 30.8347C153.097 31.2503 154.007 31.4582 155.04 31.4582Z" fill="#2B2B37"/>
<path d="M166.319 17.1206C165.909 17.1206 165.562 16.9959 165.276 16.7466C165.009 16.4806 164.876 16.1647 164.876 15.799C164.876 15.4333 165.009 15.1258 165.276 14.8765C165.562 14.6105 165.909 14.4775 166.319 14.4775C166.711 14.4775 167.041 14.6105 167.308 14.8765C167.575 15.1258 167.71 15.4333 167.71 15.799C167.71 16.1647 167.575 16.4806 167.308 16.7466C167.041 16.9959 166.711 17.1206 166.319 17.1206ZM165.357 32.8297V20.3621H167.228V32.8297H165.357Z" fill="#2B2B37"/>
<path d="M177.159 32.9542C176.054 32.9542 175.127 32.6466 174.377 32.0315C173.648 31.4165 173.282 30.5271 173.282 29.3634V22.0077H169.886V20.3619H173.282V16.896H175.153V20.3619H179.325V22.0077H175.153V29.2138C175.153 29.9619 175.35 30.5105 175.742 30.8595C176.152 31.2087 176.677 31.3832 177.319 31.3832C178.032 31.3832 178.691 31.2253 179.298 30.9095L179.859 32.4056C179.111 32.7713 178.21 32.9542 177.159 32.9542Z" fill="#2B2B37"/>
<path d="M10.9948 30.8027C12.9199 32.5815 15.2373 33.4709 17.9468 33.4709C19.8898 33.4709 21.6455 33.0303 23.2142 32.1493C24.7829 31.2682 25.9861 30.0962 26.8238 28.6334L23.0805 26.7384C21.9397 28.6666 20.2284 29.6309 17.9468 29.6309C16.4138 29.6309 15.1036 29.1072 14.0162 28.0599C12.9467 27.0127 12.4119 25.7659 12.4119 24.3197C12.4119 22.8734 12.9467 21.6266 14.0162 20.5794C15.1036 19.5321 16.4138 19.0085 17.9468 19.0085C20.2284 19.0085 21.9397 19.9727 23.0805 21.9009L26.8238 20.0059C25.9861 18.5431 24.7829 17.3711 23.2142 16.4901C21.6455 15.609 19.8898 15.1685 17.9468 15.1685C15.2373 15.1685 12.9199 16.0662 10.9948 17.8615C9.08746 19.6402 8.13379 21.7929 8.13379 24.3197C8.13379 26.8464 9.08746 29.0074 10.9948 30.8027Z" fill="white"/>
<path d="M39.9467 33.4709C42.6562 33.4709 44.9645 32.5731 46.8718 30.7778C48.7971 28.9825 49.7596 26.8298 49.7596 24.3197C49.7596 21.8095 48.7971 19.6568 46.8718 17.8615C44.9645 16.0662 42.6562 15.1685 39.9467 15.1685C37.2372 15.1685 34.9198 16.0662 32.9947 17.8615C31.0874 19.6402 30.1338 21.7929 30.1338 24.3197C30.1338 26.8464 31.0874 29.0074 32.9947 30.8027C34.9198 32.5815 37.2372 33.4709 39.9467 33.4709Z" fill="white"/>
<path d="M58.8392 15.4678H54.5879V33.1718H58.8392V15.4678Z" fill="white"/>
<path d="M78.2353 33.1718H81.8985V15.4678H77.6203V26.4143L68.3956 15.4678H64.7324V33.1718H68.9839V22.2253L78.2353 33.1718Z" fill="white"/>
<path fill-rule="evenodd" clip-rule="evenodd" d="M9.23502 6.85693C4.37143 6.85693 0.428711 10.5782 0.428711 15.1686V32.831C0.428711 37.4214 4.37143 41.1426 9.23502 41.1426H81.8871C86.7506 41.1426 90.6934 37.4214 90.6934 32.831V15.1686C90.6934 10.5782 86.7506 6.85693 81.8871 6.85693H9.23502ZM10.9952 30.8029C12.9204 32.5816 15.2377 33.471 17.9472 33.471C19.8902 33.471 21.646 33.0304 23.2147 32.1494C24.7833 31.2684 25.9865 30.0964 26.8243 28.6335L23.0809 26.7385C21.9401 28.6668 20.2288 29.631 17.9472 29.631C16.4142 29.631 15.104 29.1073 14.0166 28.06C12.9471 27.0128 12.4124 25.7661 12.4124 24.3198C12.4124 22.8735 12.9471 21.6268 14.0166 20.5796C15.104 19.5322 16.4142 19.0086 17.9472 19.0086C20.2288 19.0086 21.9401 19.9728 23.0809 21.901L26.8243 20.0061C25.9865 18.5432 24.7833 17.3712 23.2147 16.4902C21.646 15.6092 19.8902 15.1686 17.9472 15.1686C15.2377 15.1686 12.9204 16.0663 10.9952 17.8616C9.0879 19.6404 8.13423 21.793 8.13423 24.3198C8.13423 26.8465 9.0879 29.0076 10.9952 30.8029ZM39.9471 33.471C42.6566 33.471 44.9649 32.5733 46.8722 30.778C48.7975 28.9826 49.76 26.83 49.76 24.3198C49.76 21.8096 48.7975 19.6569 46.8722 17.8616C44.9649 16.0663 42.6566 15.1686 39.9471 15.1686C37.2376 15.1686 34.9202 16.0663 32.9951 17.8616C31.0878 19.6404 30.1342 21.793 30.1342 24.3198C30.1342 26.8465 31.0878 29.0076 32.9951 30.8029C34.9202 32.5816 37.2376 33.471 39.9471 33.471ZM58.8389 15.4678H54.5876V33.1718H58.8389V15.4678ZM78.2356 33.1718H81.8988V15.4678H77.6206V26.4143L68.3959 15.4678H64.7327V33.1718H68.9841V22.2253L78.2356 33.1718Z" fill="#1168F1"/>
<path d="M36.0154 28.0602C37.1028 29.1075 38.413 29.6312 39.946 29.6312C41.4789 29.6312 42.7802 29.1075 43.8498 28.0602C44.9192 27.013 45.454 25.7662 45.454 24.32C45.454 22.8737 44.9192 21.627 43.8498 20.5798C42.7802 19.5324 41.4789 19.0088 39.946 19.0088C38.413 19.0088 37.1028 19.5324 36.0154 20.5798C34.9459 21.627 34.4111 22.8737 34.4111 24.32C34.4111 25.7662 34.9459 27.013 36.0154 28.0602Z" fill="#1168F1"/>
</g>
</g>
<defs>
<clipPath id="clip0_247_8166">
<rect width="179.429" height="48" fill="white" transform="translate(0.428711)"/>
</clipPath>
</defs>
</svg>
