<svg width="188" height="48" viewBox="0 0 188 48" fill="none" xmlns="http://www.w3.org/2000/svg">
<g clip-path="url(#clip0_247_8071)">
<mask id="mask0_247_8071" style="mask-type:luminance" maskUnits="userSpaceOnUse" x="0" y="0" width="188" height="48">
<path d="M187.715 0H0.286133V48H187.715V0Z" fill="white"/>
</mask>
<g mask="url(#mask0_247_8071)">
<path d="M38.5415 15.3858L22.1523 4.57129V10.6178L32.6662 17.4935L31.4294 21.4323H22.1523V26.4421H31.4294L32.6662 30.3811L22.1523 37.2568V43.3034L38.5415 32.5233L35.8615 23.9546L38.5415 15.3858Z" fill="url(#paint0_linear_247_8071)"/>
<path d="M7.89467 26.4421H17.1372V21.4323H7.86031L6.65775 17.4935L17.1372 10.6178V4.57129L0.748047 15.3858L3.42804 23.9546L0.748047 32.5233L17.1715 43.3034V37.2568L6.65775 30.3811L7.89467 26.4421Z" fill="url(#paint1_linear_247_8071)"/>
<mask id="mask1_247_8071" style="mask-type:alpha" maskUnits="userSpaceOnUse" x="0" y="4" width="39" height="40">
<path d="M38.5415 15.3858L22.1523 4.57129V10.6178L32.6662 17.4935L31.4294 21.4323H22.1523V26.4421H31.4294L32.6662 30.3811L22.1523 37.2568V43.3034L38.5415 32.5233L35.8616 23.9546L38.5415 15.3858Z" fill="url(#paint2_linear_247_8071)"/>
<path d="M7.89466 26.4421H17.1372V21.4323H7.8603L6.65775 17.4935L17.1372 10.6178V4.57129L0.748047 15.3858L3.42803 23.9546L0.748047 32.5233L17.1715 43.3034V37.2568L6.65775 30.3811L7.89466 26.4421Z" fill="url(#paint3_linear_247_8071)"/>
</mask>
<g mask="url(#mask1_247_8071)">
<path d="M38.2924 4.57129H0.768555V43.3034H38.2924V4.57129Z" fill="url(#paint4_linear_247_8071)"/>
</g>
<path d="M71.1487 15.2231V18.6093H55.6429V22.0742H68.8176V25.4603H55.6429V29.2663H71.1487V32.6526H51.665V15.2231H71.1487Z" fill="#2B2B37"/>
<path d="M73.3467 32.6526L82.2553 23.8327L73.5991 15.2231H79.0755L85.1828 21.4442L91.0378 15.2231H96.1607L87.5298 23.8327L96.4383 32.6526H90.9114L85.1828 26.2478L78.6465 32.6526H73.3467Z" fill="#2B2B37"/>
<path d="M107.12 15.2231C114.338 15.2231 118.679 18.8606 118.679 23.9379C118.679 29.0151 114.338 32.6526 107.12 32.6526C99.9026 32.6526 95.5869 29.0151 95.5869 23.9379C95.5869 18.8606 99.9026 15.2231 107.12 15.2231ZM107.12 18.4817C102.78 18.4817 99.5803 20.6794 99.5803 23.9379C99.5803 27.1964 102.78 29.3941 107.12 29.3941C111.486 29.3941 114.686 27.1964 114.686 23.9379C114.686 20.6794 111.486 18.4817 107.12 18.4817Z" fill="#2B2B37"/>
<path d="M133.067 15.2231C138.848 15.2231 142.331 18.4518 142.331 23.9116C142.331 29.4238 138.873 32.6526 133.117 32.6526H121.405V15.2231H133.067ZM138.242 23.9116C138.242 20.4993 136.222 18.6093 132.562 18.6093H125.368V29.2663H132.562C136.222 29.2663 138.242 27.3503 138.242 23.9116Z" fill="#2B2B37"/>
<path d="M155.44 32.6526C149.353 32.6526 144.737 29.8721 144.737 24.7487V15.2231H148.719V24.3627C148.719 27.5293 151.991 28.9969 155.44 28.9969C158.916 28.9969 162.188 27.5549 162.188 24.3627V15.2231H166.144V24.7487C166.144 29.8721 161.553 32.6526 155.44 32.6526Z" fill="#2B2B37"/>
<path d="M177.292 32.6526C174.021 32.6526 170.495 32.0463 167.991 30.9097L169.294 27.6763C171.543 28.7119 174.635 29.3687 177.419 29.3687C180.613 29.3687 183.601 28.6867 183.601 27.4742C183.601 26.5901 182.656 26.2111 180.689 25.9081L175.119 25.3018C170.828 24.7209 168.732 23.2306 168.732 20.6035C168.732 17.2187 172.284 15.2231 177.495 15.2231C180.638 15.2231 184.956 15.8042 187.179 16.8146L185.876 19.8963C183.678 18.9869 179.949 18.5322 177.317 18.5322C174.608 18.5322 172.82 19.1637 172.82 20.3257C172.82 21.134 173.715 21.5381 176.014 21.8666L181.43 22.4727C185.569 23.0538 187.716 24.4683 187.716 27.2217C187.716 30.7075 183.167 32.6526 177.292 32.6526Z" fill="#2B2B37"/>
</g>
</g>
<defs>
<linearGradient id="paint0_linear_247_8071" x1="33.2397" y1="45.9663" x2="22.1285" y2="0.350133" gradientUnits="userSpaceOnUse">
<stop stop-color="#0B46F9"/>
<stop offset="1" stop-color="#BBFBE0"/>
</linearGradient>
<linearGradient id="paint1_linear_247_8071" x1="33.2409" y1="45.9663" x2="22.1297" y2="0.350134" gradientUnits="userSpaceOnUse">
<stop stop-color="#0B46F9"/>
<stop offset="1" stop-color="#BBFBE0"/>
</linearGradient>
<linearGradient id="paint2_linear_247_8071" x1="33.2397" y1="45.9663" x2="22.1285" y2="0.350133" gradientUnits="userSpaceOnUse">
<stop stop-color="#0B46F9"/>
<stop offset="1" stop-color="#BBFBE0"/>
</linearGradient>
<linearGradient id="paint3_linear_247_8071" x1="33.2409" y1="45.9663" x2="22.1297" y2="0.350134" gradientUnits="userSpaceOnUse">
<stop stop-color="#0B46F9"/>
<stop offset="1" stop-color="#BBFBE0"/>
</linearGradient>
<linearGradient id="paint4_linear_247_8071" x1="3.17392" y1="13.286" x2="22.2629" y2="27.4519" gradientUnits="userSpaceOnUse">
<stop offset="0.119792" stop-color="#8952FF" stop-opacity="0.87"/>
<stop offset="1" stop-color="#DABDFF" stop-opacity="0"/>
</linearGradient>
<clipPath id="clip0_247_8071">
<rect width="187.429" height="48" fill="white" transform="translate(0.286133)"/>
</clipPath>
</defs>
</svg>
