<svg width="233" height="48" viewBox="0 0 233 48" fill="none" xmlns="http://www.w3.org/2000/svg">
<g clip-path="url(#clip0_247_8155)">
<mask id="mask0_247_8155" style="mask-type:luminance" maskUnits="userSpaceOnUse" x="0" y="0" width="233" height="48">
<path d="M232.427 0H0.426758V48H232.427V0Z" fill="white"/>
</mask>
<g mask="url(#mask0_247_8155)">
<path d="M21.1045 21.7578C22.676 23.6255 18.0735 27.2378 19.1073 25.7464H9.30347C8.2429 24.5102 7.51376 23.1598 7.16309 21.7578H21.1045Z" fill="#2B2B37"/>
<path d="M18.2619 32.5236C16.8689 33.5135 15.3627 34.3699 13.7683 35.0789L12.9878 35.4284L12.2032 35.0799C4.82728 31.7827 0.426758 26.1027 0.426758 19.8799V12.5713H4.92563V19.8789C4.92563 20.3456 4.95985 20.8104 5.03148 21.2722C5.59811 25.0532 8.46337 28.5418 12.9708 30.8913C12.9753 30.8948 12.9803 30.8977 12.9858 30.8999L12.9976 30.8932L13.0168 30.8827C14.6461 31.6946 16.4205 32.249 18.2619 32.5236Z" fill="#2B2B37"/>
<path d="M25.4115 21.7587C25.203 23.203 24.7582 24.6122 24.0911 25.9416C22.8585 28.4102 20.8763 30.6569 18.2654 32.5264C16.4249 32.2515 14.6513 31.6961 13.0225 30.8844C13.6105 30.575 14.1814 30.2398 14.7321 29.8798C14.7866 29.8483 14.8389 29.813 14.8902 29.7769C17.9378 27.822 20.1332 24.9891 21.1051 21.7578L25.4115 21.7587Z" fill="#2B2B37"/>
<path d="M25.5501 12.5713H4.92676V16.577H25.5501V12.5713Z" fill="#2B2B37"/>
<path d="M25.5497 16.5791V19.8791C25.5497 20.0153 25.5445 20.1525 25.5391 20.2887H21.0381C21.0435 20.1525 21.0456 20.0153 21.0456 19.8791V16.5791H25.5497Z" fill="#2B2B37"/>
<path d="M72.3836 23.3144C72.3836 24.6716 72.2125 25.7812 71.8683 26.6401C71.4044 27.8746 70.4908 28.9356 69.2725 29.6544C68.0384 30.3464 66.6022 30.6976 65.1446 30.664C62.5573 30.664 60.5741 29.8812 59.1917 28.3135C58.1359 27.0972 57.5821 25.5943 57.6232 24.0573C57.6232 22.2306 58.2359 20.6964 59.46 19.4526C60.8499 18.0401 62.7893 17.3335 65.2804 17.3335C66.9439 17.3335 68.3529 17.7144 69.5097 18.4744C70.3351 19.0116 71.0397 19.8078 71.6245 20.8621L68.1627 22.1401C67.9318 21.6383 67.579 21.1878 67.1278 20.824C66.5598 20.4087 65.8439 20.1878 65.1093 20.2012C63.5163 20.2012 62.4044 20.9316 61.7779 22.3926C61.5437 22.9244 61.4239 23.4908 61.4251 24.0621C61.406 24.6098 61.5087 25.1557 61.7275 25.6679C61.9462 26.1801 62.2765 26.6488 62.6995 27.0469C63.3281 27.6412 64.1673 27.9373 65.2151 27.9354C66.1453 27.9354 66.883 27.6944 67.4283 27.2126C67.827 26.8221 68.074 26.3287 68.1339 25.804H65.12V23.3135L72.3836 23.3144ZM91.2205 24.9678C91.2291 25.6154 91.1564 26.2612 91.0035 26.8944C90.7665 27.7706 90.2381 28.5626 89.4875 29.1669C88.3446 30.1287 86.8168 30.6106 84.9042 30.6106C82.9583 30.6106 81.4391 30.1201 80.3454 29.1401C79.755 28.6047 79.344 27.9332 79.1587 27.2012C78.9872 26.4701 78.9108 25.7239 78.9309 24.9773V17.7335H82.5937V24.5192C82.5937 25.0658 82.6045 25.4716 82.6259 25.7392C82.6921 26.5916 83.1251 27.1858 83.9248 27.5221C84.2669 27.6649 84.6411 27.7364 85.0196 27.7316C85.9123 27.7316 86.5859 27.4544 87.0403 26.8973C87.3781 26.4878 87.546 25.6954 87.546 24.5192V17.7344H91.2099L91.2205 24.9678ZM110.511 30.2792H106.599L105.692 28.0916H100.636L99.6665 30.2792H95.7985L101.208 17.7344H105.208L110.511 30.2792ZM104.702 25.6116L103.187 21.6116L101.649 25.6116H104.702ZM128.069 30.2792H123.525L120.027 25.4601V30.2792H116.355V17.7344H122.052C123.716 17.7344 124.947 18.1783 125.745 19.0658C126.39 19.7813 126.734 20.6764 126.715 21.5944C126.715 22.704 126.343 23.5887 125.601 24.2506C125.055 24.7058 124.375 25.0126 123.639 25.1335L128.069 30.2792ZM122.919 21.7744C122.924 21.5625 122.878 21.352 122.783 21.1575C122.689 20.9629 122.548 20.7887 122.372 20.6469C122.026 20.3583 121.47 20.2154 120.703 20.2164H120.02V23.3401H120.703C121.478 23.3401 122.033 23.1964 122.372 22.9087C122.547 22.7648 122.687 22.5893 122.781 22.3937C122.875 22.1982 122.922 21.9871 122.917 21.7744H122.919ZM146.181 24.0021C146.159 25.3001 145.698 26.5622 144.855 27.6218C144.014 28.6815 142.831 29.489 141.463 29.9383C140.748 30.1621 139.994 30.2767 139.235 30.2773H133.826V17.7335H139.235C140.543 17.7289 141.823 18.071 142.914 18.7164C144.007 19.3423 144.887 20.2236 145.458 21.264C145.931 22.115 146.179 23.0525 146.181 24.0021ZM142.383 24.0021C142.402 23.1864 142.114 22.3887 141.565 21.7354C140.844 20.8812 139.763 20.4544 138.319 20.4554H137.483V27.5601H138.319C139.763 27.5601 140.844 27.1326 141.565 26.2783C142.111 25.6212 142.398 24.8201 142.379 24.0021H142.383ZM164.429 30.2792H160.519L159.61 28.0916H154.555L153.585 30.2792H149.716L155.125 17.7344H159.126L164.429 30.2792ZM158.619 25.6116L157.106 21.6116L155.578 25.6116H158.619ZM181.987 30.2792H177.43L173.933 25.4601V30.2792H170.275V17.7344H175.97C177.634 17.7344 178.866 18.1783 179.662 19.0658C180.308 19.7821 180.652 20.6764 180.633 21.5944C180.633 22.704 180.26 23.5887 179.517 24.2506C178.973 24.7064 178.292 25.0129 177.557 25.1335L181.987 30.2792ZM176.839 21.7744C176.843 21.5625 176.796 21.3522 176.701 21.1578C176.606 20.9634 176.466 20.7892 176.29 20.6469C175.943 20.3592 175.389 20.2164 174.623 20.2164H173.94V23.3401H174.618C175.39 23.3401 175.946 23.1973 176.283 22.9087C176.46 22.7649 176.601 22.5896 176.695 22.3942C176.791 22.1988 176.839 21.9876 176.837 21.7744H176.839ZM191.413 30.2792H187.748V17.7344H191.411L191.413 30.2792ZM211.981 30.2792H208.069L207.161 28.0916H202.106L201.137 30.2792H197.266L202.676 17.7344H206.667L211.981 30.2792ZM206.174 25.6116L204.659 21.6116L203.121 25.6116H206.174ZM231.889 30.2792H228.226L221.487 22.5973V30.2792H217.825V17.7344H221.487L228.226 25.4087V17.7344H231.889V30.2792Z" fill="#2B2B37"/>
</g>
</g>
<defs>
<clipPath id="clip0_247_8155">
<rect width="232" height="48" fill="white" transform="translate(0.428711)"/>
</clipPath>
</defs>
</svg>
