<svg width="154" height="48" viewBox="0 0 154 48" fill="none" xmlns="http://www.w3.org/2000/svg">
<g clip-path="url(#clip0_247_8183)">
<path fill-rule="evenodd" clip-rule="evenodd" d="M45.6114 5.15033C45.66 5.20409 45.6892 5.27103 45.695 5.34144C45.725 5.68671 48.389 39.9382 23.4976 47.9154C23.4227 47.9394 23.3417 47.9394 23.2668 47.9154C-1.62379 39.9382 1.04016 5.68671 1.06949 5.34144C1.07547 5.27125 1.10475 5.20458 1.15315 5.15087C1.20154 5.09715 1.26663 5.05915 1.33922 5.04216L23.2979 0.00921529C23.3534 -0.00307176 23.4109 -0.00307176 23.4666 0.00921529L45.4243 5.04216C45.4973 5.05869 45.5626 5.09656 45.6114 5.15033ZM41.5699 8.80744C41.6094 8.85098 41.6337 8.90513 41.6387 8.96226H41.6412C41.6658 9.24389 43.8448 37.2072 23.4768 43.7186C23.417 43.7401 23.3509 43.7401 23.2912 43.7186C2.92227 37.2072 5.10216 9.24389 5.1266 8.96226C5.13133 8.90513 5.15518 8.85082 5.19472 8.80727C5.23425 8.76374 5.28745 8.73308 5.34663 8.71976L23.3122 4.6084C23.3577 4.59767 23.4052 4.59767 23.4508 4.6084L41.418 8.71976C41.4771 8.73324 41.5301 8.76395 41.5699 8.80744Z" fill="#798CE5"/>
<path d="M23.1341 10.7432L11.1548 13.4826C11.1153 13.4921 11.08 13.5129 11.0536 13.5422C11.0273 13.5715 11.0114 13.6079 11.0081 13.646C10.9926 13.834 9.53965 32.4763 23.1168 36.8179C23.1576 36.8301 23.2017 36.8301 23.2424 36.8179C36.8197 32.4756 35.3676 13.834 35.3512 13.6452C35.348 13.607 35.3322 13.5705 35.3057 13.5412C35.2792 13.512 35.2434 13.4914 35.2037 13.4826L23.2252 10.7424C23.1954 10.7349 23.1639 10.7357 23.1341 10.7432Z" fill="#798CE5"/>
<path d="M63.5075 26.4547V23.3861H68.7856V32.4114C66.2443 32.8035 64.1828 33 62.6012 33C59.7755 33 57.8295 32.2752 56.7632 30.8265C55.7147 29.3778 55.1904 27.0761 55.1904 23.9229C55.1904 20.7701 55.7414 18.495 56.8432 17.0962C57.9451 15.6992 59.8199 15 62.4678 15C64.1206 15 65.9067 15.1794 67.826 15.5368L68.7856 15.7162L68.679 18.4518C66.5464 18.2305 64.7959 18.1191 63.4275 18.1191C62.0769 18.1191 61.1261 18.2725 60.5752 18.5791C60.0243 18.8862 59.6156 19.4571 59.3489 20.2921C59.1001 21.1109 58.9758 22.5258 58.9758 24.5367C58.9758 26.5317 59.2334 27.9287 59.7488 28.7299C60.2641 29.5311 61.3305 29.9321 62.9477 29.9321L65.1603 29.8293V26.4547H63.5075Z" fill="#798CE5"/>
<path d="M75.7841 26.8891C75.7841 28.9178 76.8593 29.9326 79.0096 29.9326C81.16 29.9326 82.2352 28.9178 82.2352 26.8891V15.3071H85.9138V26.8126C85.9138 28.943 85.3363 30.5112 84.1811 31.5175C83.0437 32.5059 81.3199 33.0004 79.0096 33.0004C76.6993 33.0004 74.9667 32.5059 73.8114 31.5175C72.674 30.5112 72.1055 28.943 72.1055 26.8126V15.3071H75.7841V26.8891Z" fill="#798CE5"/>
<path d="M88.0586 32.6933L92.137 15.3071H99.1212L103.2 32.6933H99.5211L98.8015 29.5491H92.457L91.7372 32.6933H88.0586ZM94.9893 18.2224L93.15 26.4804H98.1082L96.269 18.2224H94.9893Z" fill="#798CE5"/>
<path d="M109.291 26.8639V32.6933H105.612V15.3071H112.65C116.915 15.3071 119.048 17.2162 119.048 21.0344C119.048 23.3019 118.16 24.9723 116.381 26.0464L118.968 32.6933H114.942L112.837 26.8639H109.291ZM112.703 23.8469C113.574 23.8469 114.222 23.5915 114.649 23.0798C115.076 22.569 115.289 21.895 115.289 21.0597C115.289 20.2247 115.058 19.5605 114.596 19.066C114.151 18.5718 113.503 18.324 112.65 18.324H109.291V23.8469H112.703Z" fill="#798CE5"/>
<path d="M128.243 32.6933H122.139V15.3071H128.243C129.807 15.3071 131.095 15.4694 132.108 15.7935C133.122 16.0994 133.903 16.6199 134.454 17.3533C135.023 18.0687 135.414 18.9203 135.627 19.9099C135.84 20.8811 135.947 22.1514 135.947 23.7196C135.947 25.287 135.85 26.591 135.654 27.6309C135.459 28.6539 135.085 29.5742 134.534 30.3917C134.002 31.193 133.22 31.7815 132.188 32.1565C131.158 32.5148 129.843 32.6933 128.243 32.6933ZM132.108 25.7898C132.144 25.2452 132.162 24.4943 132.162 23.5398C132.162 22.569 132.126 21.793 132.055 21.2134C131.984 20.6342 131.815 20.1051 131.549 19.6285C131.282 19.1506 130.883 18.8272 130.349 18.6564C129.834 18.4688 129.132 18.3758 128.243 18.3758H125.818V29.6259H128.243C129.576 29.6259 130.544 29.3013 131.149 28.6539C131.664 28.1255 131.984 27.171 132.108 25.7898Z" fill="#798CE5"/>
<path d="M137.358 32.6933L141.436 15.3071H148.42L152.499 32.6933H148.82L148.1 29.5491H141.756L141.036 32.6933H137.358ZM144.289 18.2224L142.449 26.4804H147.408L145.569 18.2224H144.289Z" fill="#798CE5"/>
</g>
<defs>
<clipPath id="clip0_247_8183">
<rect width="153.143" height="48" fill="white" transform="translate(0.857422)"/>
</clipPath>
</defs>
</svg>
