<svg width="131" height="48" viewBox="0 0 131 48" fill="none" xmlns="http://www.w3.org/2000/svg">
<g clip-path="url(#clip0_247_8120)">
<path fill-rule="evenodd" clip-rule="evenodd" d="M130.57 20.0963C130.57 6.15305 130.544 5.70109 129.677 5.2581C129.187 5.00664 128.366 4.43986 127.858 3.99817C126.948 3.21034 126.921 3.21334 126.385 4.17425C126.084 4.71232 125.296 5.50273 124.633 5.93027L123.426 6.70783L123.771 12.7744C123.96 16.1113 124.017 22.1184 123.896 26.124L123.675 33.4069L125.436 34.8391L127.198 36.2712L128.386 35.3745C129.04 34.8815 129.798 34.4779 130.072 34.4779C130.428 34.4779 130.57 30.3883 130.57 20.0963ZM8.50699 16.5427C7.47111 16.2638 7.44744 16.15 7.47602 11.5518L7.50459 6.84578L5.63017 5.27953L3.75575 3.71286L2.59574 4.63693C1.95768 5.14502 1.13656 5.75335 0.770414 5.98897C0.195768 6.35912 0.160046 7.57879 0.508321 14.9855C0.729786 19.698 0.791847 26.0135 0.645845 29.0205L0.38062 34.4869L1.62458 34.9405C2.30862 35.1903 3.16993 35.6521 3.53874 35.9675C4.11026 36.4555 4.47953 36.3089 6.03694 34.9735L7.86403 33.4069L7.53496 28.9086C7.35411 26.4347 7.29697 24.2656 7.40815 24.0891C7.51977 23.9121 8.50297 23.7678 9.59378 23.7678H11.5767L11.5803 28.3731L11.5838 32.9785L13.4216 33.936L15.2594 34.8931L16.5781 33.8288C17.3031 33.2432 18.0313 32.7643 18.197 32.7643C18.3623 32.7643 18.4976 27.1736 18.4976 20.3406C18.4976 13.5075 18.3537 7.9168 18.1782 7.9168C18.0023 7.9168 17.1647 7.33201 16.3162 6.61702C15.288 5.7512 14.6688 5.48002 14.4602 5.80391C14.2879 6.07166 13.4726 6.56089 12.6493 6.8912L11.1512 7.49138L11.432 12.2025L11.7133 16.9133L10.6404 16.8704C10.0501 16.8469 9.09012 16.6996 8.50699 16.5427ZM118.464 7.05999C118.189 7.05999 117.454 6.67441 116.83 6.20318C116.205 5.73193 115.626 5.36178 115.541 5.38106C115.458 5.39991 114.536 6.02624 113.493 6.77337L111.597 8.13099L111.872 12.5222C112.023 14.9375 112.044 16.9133 111.917 16.9133C111.316 16.9133 106.682 10.5262 106.682 9.69725C106.682 9.06064 106.282 8.60609 105.455 8.30493C104.78 8.05861 103.905 7.57664 103.51 7.2335C102.88 6.68641 102.719 6.6937 102.202 7.29175C101.878 7.66659 101.08 8.23723 100.43 8.55983L99.2473 9.14674L99.317 20.0899L99.3867 31.0331L101.018 32.0951L102.649 33.1571L104.497 32.3633L106.345 31.5695L106.266 26.7045L106.186 21.84L108.025 24.1961C111.072 28.0999 111.772 29.3928 111.665 30.9132C111.611 31.6959 111.757 32.3359 111.992 32.3359C112.226 32.3359 113.039 32.8367 113.797 33.4493L115.176 34.5622L116.978 33.7072L118.78 32.8516L118.87 19.9559C118.936 10.7044 118.82 7.05999 118.464 7.05999ZM39.2998 9.84462L36.9921 9.51903C35.7227 9.34038 33.7545 8.75262 32.6186 8.21325C30.7277 7.31574 30.4419 7.28531 29.2386 7.8521C28.5158 8.19269 26.5462 8.56625 24.8611 8.68193C22.4307 8.84857 21.8495 9.01993 22.0454 9.51046C22.1816 9.85062 22.2928 15.0013 22.2928 20.9561V31.7837L25.146 32.039C26.715 32.1799 28.6671 32.5565 29.4838 32.876C30.8318 33.4038 31.1349 33.3693 32.7699 32.5008C33.7608 31.9742 35.3753 31.4161 36.3577 31.2598C37.34 31.1038 38.4451 30.8987 38.8135 30.8044C39.3886 30.6565 39.4703 29.1661 39.3917 20.2387L39.2998 9.84462ZM94.7007 9.57429L93.0065 8.74575C91.8705 8.18991 91.403 7.94266 90.9875 8.01189C90.6555 8.0672 90.3568 8.32447 89.777 8.78774C89.1975 9.25127 88.484 9.63041 88.192 9.63041C87.795 9.63041 87.6664 12.2878 87.683 20.131C87.7048 30.25 87.7383 30.6411 88.5986 30.8917C89.0898 31.0348 89.8252 31.4323 90.2325 31.7751C90.8816 32.3213 91.141 32.3148 92.331 31.7246C93.0781 31.354 93.9505 31.0507 94.2693 31.0507C94.7318 31.0502 94.8345 28.8727 94.7752 20.3123L94.7007 9.57429ZM49.1473 10.2927C48.6857 10.1518 47.9489 9.65612 47.5101 9.19087C46.5375 8.16014 46.447 8.16098 45.1266 9.21614C44.5471 9.67968 43.7814 10.0588 43.4254 10.0588C42.887 10.0588 42.8374 10.5823 43.1297 13.1647C43.3232 14.8728 43.4745 19.4517 43.4665 23.3393L43.4518 30.4081L45.9326 30.5044C47.297 30.5575 49.2545 30.9059 50.2829 31.279C51.9536 31.8856 52.2894 31.8895 53.448 31.3145C54.1611 30.9607 56.0781 30.4484 57.7072 30.1763L60.6703 29.6811L60.5698 24.047C60.5145 20.948 60.6345 16.6293 60.8373 14.45C61.111 11.5072 61.0713 10.4872 60.6827 10.4872C60.3957 10.4872 59.5933 10.0999 58.9003 9.62656L57.6408 8.76589L56.0597 9.73366L54.4791 10.7014L54.4536 16.4848C54.4241 23.1556 54.0317 24.4104 51.9742 24.4104C49.9216 24.4104 49.3715 22.3056 49.7136 15.7656C49.968 10.9088 49.9288 10.5305 49.1473 10.2927ZM81.343 10.9113C80.6678 10.9092 79.0405 10.4272 77.7269 9.84033C75.133 8.68193 74.8085 8.63566 73.3118 9.21357C72.7621 9.42521 70.5519 9.72638 68.4001 9.88231L64.4874 10.1655L64.4298 13.6467C64.3982 15.5613 64.3102 18.1878 64.2343 19.4838C64.1584 20.7797 64.2647 23.7198 64.471 26.0168L64.8455 30.1939H67.5991C69.1142 30.1939 71.4207 30.498 72.7255 30.8699C75.0504 31.5323 75.1482 31.5236 77.6621 30.4414C79.0725 29.8341 80.6536 29.3369 81.1755 29.3369C82.0213 29.3369 82.1253 29.0928 82.1338 27.0879C82.1386 25.8507 82.4013 23.6572 82.7163 22.2131C83.0321 20.7689 83.1424 19.2267 82.9621 18.7859C82.7811 18.3451 82.6195 16.3941 82.6022 14.45L82.5709 10.9156L81.343 10.9113ZM28.6398 19.4417C28.7202 17.1117 28.9922 15.4983 29.3798 15.0505C30.2768 14.0151 31.5413 14.1856 32.4111 15.4592C33.3081 16.7724 33.4402 22.3745 32.6209 24.3316C32.2137 25.304 31.8792 25.5118 30.8982 25.4025C29.0466 25.1965 28.4917 23.7309 28.6398 19.4417ZM71.4083 19.5454C71.4083 16.5269 71.5721 15.2073 71.9664 15.0549C72.2736 14.9363 72.5446 14.8236 72.5696 14.8052C72.5942 14.7867 73.231 14.9773 73.9847 15.2297C75.459 15.7228 76.7663 17.7732 76.7663 19.5921C76.7663 20.1696 76.3077 21.2972 75.7473 22.0979C74.9418 23.2486 74.3807 23.5815 73.0683 23.6864L71.4083 23.8196V19.5454ZM49.1651 36.9357C49.713 36.1079 49.6046 35.8822 48.5249 35.6046C45.1806 34.7448 42.3855 35.7988 42.3855 37.9197C42.3855 39.3038 43.3115 40.0505 46.0691 40.8894C46.9903 41.1695 47.7435 41.6695 47.7435 42.0003C47.7435 42.8486 45.7794 43.2195 44.159 42.6775C43.0338 42.3015 42.744 42.3391 42.5234 42.8904C41.9675 44.2807 45.5361 45.119 47.9274 44.1602C51.1397 42.8725 50.3645 40.1367 46.4897 39.0867C45.3767 38.7851 44.3826 38.2993 44.2814 38.0071C44.0117 37.2303 45.9619 36.6813 47.4935 37.1023C48.4133 37.3555 48.9206 37.3049 49.1651 36.9357ZM56.3013 41.1232C56.1378 40.9695 55.5859 39.6526 55.0752 38.1965C54.359 36.1551 53.9245 35.5176 53.1775 35.4118C52.6443 35.3369 52.2087 35.4235 52.2087 35.6041C52.2087 35.7854 52.8542 37.8229 53.6432 40.1324C54.9792 44.0429 55.1586 44.3312 56.261 44.3312C57.3126 44.3312 57.5322 44.0571 58.2328 41.8678C58.6664 40.5133 59.1736 39.2427 59.3602 39.0452C59.5473 38.8477 60.1402 39.9559 60.6787 41.5085C61.5601 44.0493 61.7768 44.3308 62.8497 44.3264C63.961 44.3222 64.1271 44.0557 65.3246 40.3638C66.0306 38.1871 66.7056 36.1487 66.8254 35.8342C66.9745 35.4419 66.7235 35.3073 66.0238 35.4059C65.217 35.5193 64.8126 36.0985 64.0767 38.1965C63.5658 39.6526 63.0234 40.9605 62.8715 41.1036C62.7193 41.2463 62.1165 40.0548 61.532 38.456C60.7346 36.2751 60.2417 35.5176 59.5581 35.4238C58.7901 35.3184 58.4873 35.7759 57.623 38.3507C57.0594 40.0296 56.4647 41.2772 56.3013 41.1232ZM77.5008 44.2665C78.3929 44.1243 78.3341 43.9029 76.2927 39.7259C74.5758 36.2129 73.96 35.3347 73.213 35.3347C72.6575 35.3347 72.1218 35.7249 71.8905 36.2987C71.6766 36.8286 70.7774 38.7808 69.8925 40.6362C69.007 42.4917 68.2827 44.0823 68.2827 44.1705C68.2827 44.2589 68.7618 44.3312 69.3467 44.3312C70.0358 44.3312 70.4934 44.0287 70.6448 43.4744C70.993 42.1956 75.0487 42.2283 75.9402 43.5167C76.3256 44.0741 76.9199 44.3596 77.5008 44.2665ZM88.9706 38.7612C88.9706 37.7465 88.6232 37.0543 87.7552 36.3381C86.7835 35.536 86.0214 35.3347 83.96 35.3347C82.541 35.3347 81.2461 35.4632 81.0827 35.6204C80.9189 35.7773 80.7848 37.8015 80.7848 40.1188C80.7848 44.3264 80.7862 44.3312 81.901 44.3312C82.8438 44.3312 83.0175 44.1312 83.0175 43.0461C83.0175 41.813 83.0973 41.7607 84.9771 41.7607C87.5369 41.7607 88.9706 40.6838 88.9706 38.7612ZM85.6326 40.2104C83.8349 40.817 83.0175 40.3012 83.0175 38.5611C83.0175 37.1284 83.0969 37.0483 84.5257 37.0483C87.1555 37.0483 87.9848 39.4169 85.6326 40.2104ZM72.0807 40.1542C72.2579 39.7417 72.5035 39.0673 72.6273 38.6548C72.9416 37.6056 73.4101 37.7205 74.0154 38.9963C74.7914 40.6297 74.6664 40.9039 73.1465 40.9039C72.0003 40.9039 71.815 40.7736 72.0807 40.1542Z" fill="#2B2B37"/>
</g>
<defs>
<clipPath id="clip0_247_8120">
<rect width="130.286" height="48" fill="white" transform="translate(0.286133)"/>
</clipPath>
</defs>
</svg>
