<svg width="181" height="48" viewBox="0 0 181 48" fill="none" xmlns="http://www.w3.org/2000/svg">
<g clip-path="url(#clip0_247_8045)">
<path d="M35.6133 17.3009V17.2977H35.5548C32.6818 17.2933 27.4797 14.0827 24.6429 13.6103C23.6397 13.4445 20.1594 13.593 22.7873 17.3109L32.9011 31.6226C32.9011 31.6226 35.5289 35.3408 38.188 31.647C38.188 31.647 45.2223 22.212 48.0046 18.0665C45.2044 21.3042 35.6133 17.3009 35.6133 17.3009Z" fill="url(#paint0_linear_247_8045)"/>
<path d="M46.6187 13.6082C43.7644 14.0666 38.5364 17.2572 35.6162 17.2956V17.2988C35.6162 17.2988 45.2064 21.3021 48.0043 18.0644C48.1644 17.8257 48.3108 17.6045 48.4423 17.4035C49.0135 16.5217 51.0484 12.8982 46.6187 13.6082Z" fill="url(#paint1_linear_247_8045)"/>
<path d="M28.9224 29.3587C29.4927 30.2406 31.5276 33.8656 27.098 33.1541C24.2234 32.6928 18.9431 29.4606 16.0356 29.4659C13.1626 29.4711 7.95958 32.6816 5.12408 33.1541C4.12082 33.3211 0.63995 33.1713 3.26742 29.4535L13.381 15.1417C13.381 15.1417 16.0088 11.4235 18.6679 15.1174C18.6679 15.1174 26.5359 25.6707 28.9209 29.3587H28.9224Z" fill="url(#paint2_linear_247_8045)"/>
<mask id="mask0_247_8045" style="mask-type:luminance" maskUnits="userSpaceOnUse" x="2" y="13" width="28" height="21">
<path d="M28.9244 29.368C29.4947 30.2498 31.5296 33.8749 27.0999 33.1633C24.2253 32.7021 18.9451 29.4698 16.0376 29.4753C13.1645 29.4803 7.96153 32.6909 5.12603 33.1633C4.12278 33.3304 0.641898 33.1806 3.26937 29.4627L13.3829 15.151C13.3829 15.151 16.0107 11.4328 18.6698 15.1266C18.6698 15.1266 26.5378 25.68 28.9228 29.368H28.9244Z" fill="white"/>
</mask>
<g mask="url(#mask0_247_8045)">
<path d="M31.5271 11.4365H0.640625V33.8787H31.5271V11.4365Z" fill="url(#paint3_linear_247_8045)"/>
</g>
<path d="M28.9224 29.4194C29.4927 30.3012 31.5276 33.9262 27.098 33.2146C24.2247 32.7534 18.945 29.5214 16.0356 29.5266C13.1629 29.5317 7.95959 32.7421 5.12408 33.2146C4.12082 33.3817 0.63995 33.232 3.26742 29.5141L13.3812 15.2022C13.3812 15.2022 16.009 11.4841 18.6681 15.1779C18.6681 15.1779 26.5376 25.7313 28.9224 29.4194Z" fill="url(#paint4_linear_247_8045)"/>
<path d="M28.9199 29.4104C28.7898 29.2097 28.6437 28.9884 28.4819 28.7497C25.683 25.5116 16.0938 29.5153 16.0938 29.5153V29.5185C19.0138 29.5556 24.2421 32.7476 27.096 33.2059C31.5245 33.9172 29.4892 30.2922 28.9199 29.4104Z" fill="url(#paint5_linear_247_8045)"/>
<path d="M62.4287 29.2993V17.8774H64.8566V27.2993H69.5009V29.2993H62.4287Z" fill="#2B2B37"/>
<path d="M73.213 24.9165C73.213 25.7811 73.354 26.4347 73.636 26.8774C73.9232 27.3201 74.3879 27.5415 75.03 27.5415C75.6671 27.5415 76.1239 27.3227 76.4007 26.8852C76.6826 26.4425 76.8235 25.7863 76.8235 24.9165C76.8235 24.0519 76.6826 23.4035 76.4007 22.9712C76.1187 22.5389 75.6567 22.3227 75.0144 22.3227C74.3773 22.3227 73.9179 22.5389 73.636 22.9712C73.354 23.3983 73.213 24.0467 73.213 24.9165ZM79.2672 24.9165C79.2672 26.3384 78.8912 27.4504 78.1393 28.2524C77.3875 29.0545 76.3405 29.4555 74.9987 29.4555C74.1581 29.4555 73.4167 29.2732 72.7745 28.9087C72.1322 28.5389 71.6388 28.0103 71.2943 27.3227C70.9496 26.6353 70.7773 25.8331 70.7773 24.9165C70.7773 23.4895 71.1506 22.3801 71.8972 21.5883C72.6439 20.7967 73.6933 20.4009 75.0457 20.4009C75.8864 20.4009 76.6277 20.5832 77.27 20.9477C77.9122 21.3123 78.4056 21.8357 78.7503 22.518C79.0948 23.2003 79.2672 23.9999 79.2672 24.9165Z" fill="#2B2B37"/>
<path d="M84.7964 29.4555C82.0708 29.4555 80.708 27.9634 80.708 24.9789C80.708 23.4946 81.0788 22.3618 81.8201 21.5805C82.5616 20.7941 83.6241 20.4009 85.0078 20.4009C86.0207 20.4009 86.9292 20.5988 87.7333 20.9946L87.0285 22.8384C86.6525 22.6873 86.3026 22.5649 85.979 22.4712C85.6552 22.3722 85.3314 22.3227 85.0078 22.3227C83.7652 22.3227 83.1438 23.2029 83.1438 24.9634C83.1438 26.6717 83.7652 27.5259 85.0078 27.5259C85.4672 27.5259 85.8928 27.466 86.2844 27.3461C86.676 27.2212 87.0676 27.0284 87.4592 26.7681V28.8072C87.0728 29.0519 86.6812 29.2212 86.2844 29.3149C85.8928 29.4087 85.3968 29.4555 84.7964 29.4555Z" fill="#2B2B37"/>
<path d="M95.0562 29.2993L94.5942 28.1119H94.5316C94.1295 28.617 93.7144 28.9686 93.2863 29.1665C92.8633 29.3592 92.3098 29.4555 91.6258 29.4555C90.7853 29.4555 90.1222 29.216 89.6366 28.7368C89.1562 28.2577 88.916 27.5754 88.916 26.6899C88.916 25.7629 89.2398 25.0806 89.8872 24.6431C90.5399 24.2003 91.5215 23.9555 92.832 23.9087L94.3514 23.8618V23.479C94.3514 22.5936 93.8972 22.1509 92.9887 22.1509C92.2891 22.1509 91.4666 22.3618 90.5216 22.7837L89.7305 21.1743C90.7383 20.6483 91.8557 20.3853 93.0827 20.3853C94.2574 20.3853 95.1581 20.6405 95.7847 21.1509C96.4112 21.6614 96.7245 22.4374 96.7245 23.479V29.2993H95.0562ZM94.3514 25.2525L93.4272 25.2837C92.7328 25.3046 92.2159 25.4296 91.8765 25.6587C91.5372 25.8879 91.3674 26.2368 91.3674 26.7056C91.3674 27.3775 91.7538 27.7134 92.5265 27.7134C93.08 27.7134 93.5213 27.5545 93.8502 27.2368C94.1844 26.9191 94.3514 26.4973 94.3514 25.9712V25.2525Z" fill="#2B2B37"/>
<path d="M101.58 29.2993H99.1914V17.1431H101.58V29.2993Z" fill="#2B2B37"/>
<path d="M109.146 19.729C108.232 19.729 107.525 20.0728 107.024 20.7602C106.522 21.4425 106.272 22.3957 106.272 23.6197C106.272 26.1665 107.23 27.44 109.146 27.44C109.95 27.44 110.924 27.2394 112.067 26.8384V28.8696C111.128 29.2602 110.078 29.4556 108.919 29.4556C107.253 29.4556 105.979 28.953 105.097 27.9478C104.215 26.9374 103.773 25.4895 103.773 23.604C103.773 22.4166 103.99 21.3775 104.423 20.4869C104.857 19.591 105.478 18.9061 106.287 18.4321C107.102 17.953 108.055 17.7134 109.146 17.7134C110.258 17.7134 111.376 17.9816 112.498 18.5181L111.715 20.4869C111.287 20.2837 110.856 20.1066 110.423 19.9556C109.989 19.8046 109.564 19.729 109.146 19.729Z" fill="#2B2B37"/>
<path d="M116.226 24.9165C116.226 25.7811 116.366 26.4347 116.649 26.8774C116.936 27.3201 117.401 27.5415 118.043 27.5415C118.68 27.5415 119.137 27.3227 119.413 26.8852C119.696 26.4425 119.836 25.7863 119.836 24.9165C119.836 24.0519 119.696 23.4035 119.413 22.9712C119.131 22.5389 118.669 22.3227 118.027 22.3227C117.39 22.3227 116.931 22.5389 116.649 22.9712C116.366 23.3983 116.226 24.0467 116.226 24.9165ZM122.28 24.9165C122.28 26.3384 121.904 27.4504 121.152 28.2524C120.401 29.0545 119.354 29.4555 118.011 29.4555C117.171 29.4555 116.429 29.2732 115.787 28.9087C115.145 28.5389 114.652 28.0103 114.307 27.3227C113.962 26.6353 113.79 25.8331 113.79 24.9165C113.79 23.4895 114.163 22.3801 114.91 21.5883C115.657 20.7967 116.706 20.4009 118.059 20.4009C118.899 20.4009 119.641 20.5832 120.283 20.9477C120.925 21.3123 121.419 21.8357 121.763 22.518C122.108 23.2003 122.28 23.9999 122.28 24.9165Z" fill="#2B2B37"/>
<path d="M124.151 18.3072C124.151 17.5311 124.585 17.1431 125.452 17.1431C126.318 17.1431 126.751 17.5311 126.751 18.3072C126.751 18.6769 126.642 18.966 126.423 19.1743C126.209 19.3775 125.885 19.479 125.452 19.479C124.585 19.479 124.151 19.0883 124.151 18.3072ZM126.642 29.2993H124.253V20.5649H126.642V29.2993Z" fill="#2B2B37"/>
<path d="M137.239 29.2993H134.85V24.1978C134.85 23.5675 134.738 23.0962 134.514 22.7836C134.289 22.466 133.931 22.3072 133.441 22.3072C132.772 22.3072 132.289 22.5311 131.992 22.9789C131.695 23.4217 131.545 24.1587 131.545 25.1899V29.2993H129.156V20.5649H130.981L131.303 21.6821H131.435C131.701 21.2602 132.067 20.9425 132.532 20.729C133.002 20.5103 133.535 20.4009 134.13 20.4009C135.148 20.4009 135.921 20.6769 136.448 21.229C136.976 21.7759 137.239 22.5675 137.239 23.604V29.2993Z" fill="#2B2B37"/>
<path d="M146.646 26.1274C146.646 27.1588 146.272 27.9712 145.526 28.5649C144.784 29.1588 143.751 29.4556 142.424 29.4556C141.202 29.4556 140.121 29.2264 139.182 28.7681V26.5181C139.954 26.8618 140.607 27.104 141.139 27.2447C141.678 27.3853 142.168 27.4556 142.613 27.4556C143.145 27.4556 143.552 27.3541 143.834 27.1509C144.121 26.9478 144.265 26.6457 144.265 26.2447C144.265 26.0207 144.202 25.8228 144.077 25.6509C143.951 25.4738 143.766 25.3046 143.521 25.1431C143.28 24.9816 142.787 24.7238 142.04 24.3696C141.341 24.0415 140.816 23.7264 140.466 23.4244C140.116 23.1223 139.837 22.7708 139.629 22.3696C139.419 21.9686 139.315 21.4999 139.315 20.9634C139.315 19.953 139.657 19.1587 140.34 18.5806C141.03 18.0025 141.981 17.7134 143.192 17.7134C143.787 17.7134 144.353 17.7837 144.891 17.9244C145.434 18.0649 146.001 18.2629 146.591 18.5181L145.808 20.4009C145.197 20.1509 144.69 19.9765 144.288 19.8775C143.891 19.7785 143.499 19.729 143.113 19.729C142.654 19.729 142.302 19.8358 142.056 20.0494C141.81 20.2629 141.688 20.5415 141.688 20.8853C141.688 21.0989 141.737 21.2863 141.837 21.4478C141.936 21.604 142.092 21.7577 142.306 21.9087C142.526 22.0545 143.04 22.3201 143.849 22.7056C144.92 23.216 145.654 23.729 146.05 24.2447C146.447 24.7551 146.646 25.3826 146.646 26.1274Z" fill="#2B2B37"/>
<path d="M155.73 29.2989L155.057 26.2442L154.165 22.3848H154.094L152.496 29.2989H149.927L147.437 20.5645H149.817L150.827 24.4317C150.943 24.8901 151.102 25.8457 151.305 27.2989H151.368C151.389 26.9031 151.48 26.2754 151.642 25.4161L151.768 24.752L152.848 20.5645H155.48L156.506 24.752C156.569 25.0385 156.645 25.4603 156.734 26.0176C156.827 26.5697 156.879 26.9968 156.89 27.2989H156.952C157.01 26.8353 157.09 26.3093 157.195 25.7208C157.299 25.127 157.389 24.6974 157.462 24.4317L158.511 20.5645H160.853L158.331 29.2989H155.73Z" fill="#2B2B37"/>
<path d="M167.831 29.2993L167.369 28.1119H167.306C166.904 28.617 166.489 28.9686 166.061 29.1665C165.638 29.3592 165.085 29.4555 164.401 29.4555C163.56 29.4555 162.897 29.216 162.412 28.7368C161.932 28.2577 161.69 27.5754 161.69 26.6899C161.69 25.7629 162.015 25.0806 162.662 24.6431C163.314 24.2003 164.296 23.9555 165.607 23.9087L167.126 23.8618V23.479C167.126 22.5936 166.672 22.1509 165.764 22.1509C165.064 22.1509 164.241 22.3618 163.296 22.7837L162.505 21.1743C163.513 20.6483 164.631 20.3853 165.857 20.3853C167.032 20.3853 167.933 20.6405 168.559 21.1509C169.186 21.6614 169.5 22.4374 169.5 23.479V29.2993H167.831ZM167.126 25.2525L166.202 25.2837C165.508 25.3046 164.991 25.4296 164.652 25.6587C164.312 25.8879 164.142 26.2368 164.142 26.7056C164.142 27.3775 164.528 27.7134 165.302 27.7134C165.855 27.7134 166.296 27.5545 166.625 27.2368C166.959 26.9191 167.126 26.4973 167.126 25.9712V25.2525Z" fill="#2B2B37"/>
<path d="M176.775 29.4555C175.746 29.4555 174.939 29.0832 174.355 28.3384H174.23C174.313 29.0675 174.355 29.4895 174.355 29.604V33.1431H171.967V20.5649H173.909L174.246 21.6978H174.355C174.914 20.8331 175.742 20.4009 176.838 20.4009C177.872 20.4009 178.681 20.7993 179.265 21.5962C179.85 22.3931 180.143 23.4999 180.143 24.9165C180.143 25.8488 180.005 26.6587 179.728 27.3461C179.456 28.0337 179.067 28.5571 178.561 28.9165C178.055 29.2759 177.459 29.4555 176.775 29.4555ZM176.07 22.3072C175.48 22.3072 175.049 22.4895 174.778 22.854C174.506 23.2133 174.366 23.8097 174.355 24.6431V24.9009C174.355 25.8384 174.494 26.5103 174.77 26.9165C175.053 27.3227 175.496 27.5259 176.102 27.5259C177.171 27.5259 177.707 26.6457 177.707 24.8852C177.707 24.0259 177.574 23.3826 177.307 22.9555C177.047 22.5233 176.634 22.3072 176.07 22.3072Z" fill="#2B2B37"/>
</g>
<defs>
<linearGradient id="paint0_linear_247_8045" x1="34.9226" y1="12.6577" x2="34.8823" y2="31.8976" gradientUnits="userSpaceOnUse">
<stop stop-color="#F3D600"/>
<stop offset="0.27" stop-color="#EFCB04"/>
<stop offset="0.72" stop-color="#E5AF0F"/>
<stop offset="1" stop-color="#DD9B17"/>
</linearGradient>
<linearGradient id="paint1_linear_247_8045" x1="42.4791" y1="13.7865" x2="42.5596" y2="19.1879" gradientUnits="userSpaceOnUse">
<stop stop-color="#F3D600"/>
<stop offset="0.27" stop-color="#EFCB04"/>
<stop offset="0.72" stop-color="#E5AF0F"/>
<stop offset="1" stop-color="#DD9B17"/>
</linearGradient>
<linearGradient id="paint2_linear_247_8045" x1="16.0776" y1="29.8523" x2="15.9466" y2="16.5082" gradientUnits="userSpaceOnUse">
<stop stop-color="#3F71FB"/>
<stop offset="0.21" stop-color="#3C6AF0"/>
<stop offset="0.57" stop-color="#3458D4"/>
<stop offset="1" stop-color="#293CAA"/>
</linearGradient>
<linearGradient id="paint3_linear_247_8045" x1="16.1514" y1="29.8648" x2="16.0205" y2="16.5206" gradientUnits="userSpaceOnUse">
<stop stop-color="#3F71FB"/>
<stop offset="0.21" stop-color="#3C6AF0"/>
<stop offset="0.57" stop-color="#3458D4"/>
<stop offset="1" stop-color="#293CAA"/>
</linearGradient>
<linearGradient id="paint4_linear_247_8045" x1="16.0776" y1="29.9129" x2="15.9463" y2="16.5688" gradientUnits="userSpaceOnUse">
<stop stop-color="#3F71FB"/>
<stop offset="0.21" stop-color="#3C6AF0"/>
<stop offset="0.57" stop-color="#3458D4"/>
<stop offset="1" stop-color="#293CAA"/>
</linearGradient>
<linearGradient id="paint5_linear_247_8045" x1="23.1093" y1="31.5505" x2="22.6379" y2="28.2587" gradientUnits="userSpaceOnUse">
<stop stop-color="#3F71FB"/>
<stop offset="0.21" stop-color="#3C6AF0"/>
<stop offset="0.57" stop-color="#3458D4"/>
<stop offset="1" stop-color="#293CAA"/>
</linearGradient>
<clipPath id="clip0_247_8045">
<rect width="180.571" height="48" fill="white" transform="translate(0.142578)"/>
</clipPath>
</defs>
</svg>
