<svg width="248" height="48" viewBox="0 0 248 48" fill="none" xmlns="http://www.w3.org/2000/svg">
<g clip-path="url(#clip0_247_8090)">
<path d="M19.4733 28.33L18.707 28.5402V11.6574H21.4936V31.1839H18.707L4.0076 14.5413L4.77391 14.331V31.1839H1.9873V11.6574H4.77391L19.4733 28.33ZM38.0678 31.4842C36.0006 31.4842 34.1197 31.0742 32.4249 30.2526C30.7529 29.4114 29.4173 28.2399 28.4192 26.7378C27.4197 25.2358 26.9199 23.4633 26.9199 21.4206C26.9199 19.3778 27.4197 17.6054 28.4192 16.1033C29.4173 14.5817 30.7514 13.4102 32.4249 12.5886C34.1197 11.7671 36.0006 11.3569 38.0678 11.3569C40.1335 11.3569 42.0039 11.7671 43.6759 12.5886C45.3705 13.4102 46.7169 14.5817 47.7165 16.1033C48.7145 17.6054 49.2143 19.3778 49.2143 21.4206C49.2143 23.4633 48.7145 25.2358 47.715 26.7378C46.7604 28.2018 45.3648 29.4163 43.6759 30.2526C42.0039 31.0742 40.1335 31.4842 38.0678 31.4842ZM38.0678 29.2312C39.6458 29.2312 41.0634 28.9413 42.3174 28.36C43.5713 27.7592 44.5694 26.8776 45.313 25.7165C46.0551 24.554 46.4277 23.1225 46.4277 21.4206C46.4277 19.7188 46.0551 18.2964 45.313 17.1548C44.5694 15.9924 43.5713 15.112 42.3174 14.5112C41.0634 13.9104 39.6458 13.61 38.0678 13.61C36.511 13.61 35.095 13.9104 33.8182 14.5112C32.5642 15.112 31.5647 15.9936 30.8226 17.1548C30.079 18.2964 29.708 19.7188 29.708 21.4206C29.708 23.1225 30.079 24.5553 30.8226 25.7165C31.5647 26.8789 32.5642 27.7592 33.8182 28.36C35.095 28.9413 36.511 29.2312 38.0678 29.2312ZM59.664 31.1839L51.5162 11.6574H54.5118L61.5131 28.6004H60.6772L67.3968 11.6574H70.3925L77.1152 28.6004H76.2792L83.2821 11.6574H86.208L78.1269 31.1839H75.2009L68.513 13.64H69.2793L62.5914 31.1839H59.664Z" fill="#64ACFF"/>
<path d="M92.7634 24.2734V22.0204H99.8693C101.263 22.0204 102.388 21.6494 103.247 20.9088C104.131 20.1473 104.572 19.1664 104.572 17.9648C104.572 16.724 104.131 15.7419 103.248 15.0208C102.388 14.2803 101.263 13.9093 99.8693 13.9093H93.3208V31.1828H90.5342V11.6562H99.8693C100.914 11.6562 101.89 11.796 102.795 12.0768C103.701 12.3576 104.491 12.7678 105.164 13.3085C105.861 13.8493 106.395 14.5102 106.766 15.2912C107.16 16.0723 107.357 16.963 107.357 17.9648C107.357 18.9667 107.16 19.8574 106.766 20.6384C106.414 21.3958 105.866 22.0739 105.164 22.6212C104.48 23.1671 103.674 23.5863 102.795 23.8528C101.856 24.1382 100.865 24.2805 99.8693 24.2734H92.7634ZM118.017 31.4832C116.665 31.4879 115.342 31.1427 114.22 30.4919C113.083 29.8113 112.165 28.8893 111.469 27.7281C110.795 26.5461 110.458 25.2047 110.458 23.7027C110.458 22.2006 110.807 20.8592 111.503 19.6772C112.2 18.4951 113.139 17.5639 114.325 16.8833C115.524 16.2045 116.931 15.8488 118.365 15.862C119.99 15.862 121.221 16.2224 122.058 16.9434C122.916 17.6448 123.497 18.5853 123.8 19.7673C124.125 20.9493 124.286 22.2607 124.286 23.7027C124.286 24.4641 124.195 25.2948 124.009 26.196C123.821 27.0817 123.492 27.9411 123.033 28.7495C122.606 29.5349 121.961 30.2163 121.152 30.7321C120.339 31.2325 119.293 31.4832 118.017 31.4832ZM118.714 29.2001C119.898 29.2001 120.874 28.9493 121.64 28.4491C122.429 27.9488 123.01 27.2867 123.381 26.4664C123.753 25.6253 123.939 24.7031 123.939 23.7027C123.939 22.6016 123.741 21.639 123.347 20.8188C122.976 19.9776 122.394 19.3271 121.605 18.8661C120.838 18.3854 119.875 18.1451 118.713 18.1451C116.971 18.1451 115.626 18.6753 114.673 19.7373C113.721 20.7782 113.245 22.1013 113.245 23.7027C113.245 24.7645 113.477 25.7153 113.942 26.5565C114.39 27.3389 115.061 28.0107 115.892 28.5092C116.734 28.9715 117.715 29.2116 118.714 29.2001ZM123.939 16.1624H126.725V31.1828H124.181L124.113 30.6421C124.084 30.2211 124.049 29.8005 124.006 29.3804C123.965 28.9807 123.944 28.5799 123.939 28.1788V16.1624ZM130.606 16.1624H133.603L139.837 30.582L137.4 31.1828L130.606 16.1624ZM146.804 16.1624L137.085 37.191H134.056L138.27 29.0799L143.843 16.1624H146.804ZM150.669 16.1624H153.456V31.1828H150.669V16.1624ZM159.446 15.862C160.376 15.862 161.211 15.9822 161.955 16.2224C162.698 16.4628 163.325 16.8128 163.836 17.2739C164.346 17.735 164.741 18.2953 165.02 18.9561C165.299 19.5961 165.438 20.3276 165.438 21.1492V31.1828H162.651V21.75C162.651 20.5876 162.338 19.7176 161.71 19.1365C161.084 18.5552 160.144 18.2653 158.89 18.2653C157.937 18.2653 157.056 18.4756 156.242 18.8961C155.416 19.3283 154.723 19.926 154.221 20.6384C153.712 21.3595 153.398 22.2006 153.282 23.1619L153.246 21.4196C153.363 20.5784 153.595 19.8169 153.944 19.1365C154.283 18.4957 154.741 17.9071 155.301 17.3941C155.834 16.9087 156.474 16.5205 157.182 16.2525C157.902 15.9913 158.658 15.862 159.446 15.862ZM171.15 15.862C172.078 15.862 172.915 15.9822 173.659 16.2224C174.402 16.4628 175.029 16.8128 175.539 17.2739C176.05 17.735 176.445 18.2953 176.724 18.9561C177.002 19.5961 177.141 20.3276 177.141 21.1492V31.1828H174.355V21.75C174.355 20.5876 174.042 19.7176 173.414 19.1365C172.788 18.5552 171.848 18.2653 170.593 18.2653C169.641 18.2653 168.76 18.4756 167.946 18.8961C167.12 19.3283 166.427 19.926 165.925 20.6384C165.416 21.3595 165.101 22.2006 164.985 23.1619L164.95 21.4196C165.067 20.5784 165.299 19.8169 165.646 19.1365C165.987 18.4957 166.445 17.9071 167.005 17.3941C167.538 16.9087 168.177 16.5205 168.886 16.2525C169.605 15.9913 170.362 15.862 171.15 15.862ZM194.897 26.3462H197.509C197.337 27.2998 196.907 28.2051 196.256 28.9899C195.605 29.7679 194.745 30.3971 193.748 30.8223C192.725 31.2624 191.541 31.4832 190.195 31.4832C188.569 31.4832 187.106 31.1527 185.806 30.4919C184.513 29.8175 183.444 28.8653 182.706 27.7281C181.962 26.5461 181.592 25.2047 181.592 23.7027C181.592 22.2006 181.95 20.8592 182.67 19.6772C183.376 18.5302 184.421 17.5659 185.701 16.8833C186.978 16.2029 188.418 15.862 190.02 15.862C191.715 15.862 193.144 16.1925 194.305 16.8533C195.49 17.4933 196.361 18.4455 196.917 19.7072C197.498 20.948 197.731 22.4814 197.614 24.3034H184.378C184.493 25.2844 184.806 26.1451 185.318 26.887C185.806 27.6084 186.502 28.2086 187.339 28.6293C188.174 29.0303 189.125 29.2302 190.195 29.2302C191.379 29.2302 192.377 28.9689 193.19 28.4491C194.026 27.9084 194.596 27.2083 194.897 26.3462ZM190.125 18.115C188.685 18.115 187.478 18.4756 186.502 19.1965C185.528 19.9175 184.876 20.8984 184.552 22.1405H194.758C194.664 20.8188 194.165 19.8169 193.26 19.1365C192.404 18.4643 191.283 18.099 190.125 18.115ZM202.115 16.1624H204.901V31.1828H202.115V16.1624ZM210.893 15.862C211.822 15.862 212.659 15.9822 213.401 16.2224C214.145 16.4628 214.771 16.8128 215.282 17.2739C215.794 17.735 216.187 18.2953 216.466 18.9561C216.745 19.5961 216.884 20.3276 216.884 21.1492V31.1828H214.098V21.75C214.098 20.5876 213.784 19.7176 213.157 19.1365C212.53 18.5552 211.589 18.2653 210.336 18.2653C209.385 18.2653 208.501 18.4756 207.689 18.8961C206.862 19.3286 206.17 19.9262 205.668 20.6384C205.157 21.3595 204.844 22.2006 204.728 23.1619L204.693 21.4196C204.81 20.5784 205.041 19.8169 205.389 19.1365C205.762 18.4559 206.214 17.8748 206.748 17.3941C207.28 16.9087 207.92 16.5205 208.629 16.2525C209.349 15.9913 210.104 15.862 210.893 15.862ZM221.093 16.1624H231.333V18.4155H221.093V16.1624ZM224.82 12.2571H227.606V31.1828H224.82V12.2571ZM234.699 26.3462H237.276C237.346 27.2083 237.717 27.9084 238.392 28.4491C239.088 28.9899 240.085 29.2601 241.387 29.2601C242.176 29.2601 242.79 29.1701 243.233 28.9899C243.697 28.8096 244.034 28.5693 244.243 28.2688C244.452 27.9488 244.556 27.5975 244.556 27.2174C244.556 26.7564 244.417 26.3959 244.138 26.1359C243.849 25.8337 243.478 25.5966 243.059 25.4451C242.561 25.2462 242.049 25.0756 241.526 24.9343C240.828 24.706 240.132 24.4757 239.436 24.2433C238.739 23.9822 238.077 23.6817 237.451 23.3422C236.867 23.0005 236.37 22.5612 235.988 22.0504C235.616 21.5293 235.43 20.9088 235.43 20.1879C235.43 19.587 235.57 19.0254 235.849 18.5056C236.118 17.9744 236.523 17.5022 237.033 17.1237C237.577 16.718 238.202 16.4023 238.878 16.1925C239.641 15.9661 240.442 15.8543 241.248 15.862C242.408 15.862 243.382 16.0619 244.173 16.4628C244.985 16.8638 245.602 17.4345 246.019 18.1751C246.46 18.8961 246.692 19.7373 246.716 20.6985H244.313C244.149 19.7973 243.813 19.1469 243.302 18.7459C242.814 18.3253 242.106 18.115 241.178 18.115C240.225 18.115 239.493 18.2953 238.984 18.6558C238.472 19.0162 238.217 19.4969 238.217 20.0977C238.217 20.5379 238.402 20.9088 238.774 21.2093C239.145 21.4901 239.621 21.75 240.202 21.9903C240.805 22.211 241.444 22.4409 242.118 22.6813C242.79 22.9216 243.442 23.1619 244.069 23.4022C244.696 23.6425 245.253 23.9233 245.741 24.2433C246.228 24.5633 246.611 24.9644 246.89 25.4451C247.192 25.9061 247.344 26.486 247.344 27.1873C247.344 28.0285 247.109 28.7796 246.646 29.4405C246.204 30.0805 245.542 30.582 244.661 30.9424C243.801 31.303 242.745 31.4832 241.491 31.4832C240.353 31.4832 239.377 31.363 238.565 31.1228C237.841 30.8957 237.169 30.5601 236.58 30.1313C236.083 29.751 235.66 29.3048 235.325 28.8096C235.062 28.3859 234.874 27.9301 234.769 27.4577C234.678 27.0926 234.656 26.7176 234.699 26.3462Z" fill="#2B2B37"/>
</g>
<defs>
<clipPath id="clip0_247_8090">
<rect width="246.857" height="48" fill="white" transform="translate(0.714844)"/>
</clipPath>
</defs>
</svg>
