<svg width="133" height="48" viewBox="0 0 133 48" fill="none" xmlns="http://www.w3.org/2000/svg">
<g clip-path="url(#clip0_247_8036)">
<mask id="mask0_247_8036" style="mask-type:luminance" maskUnits="userSpaceOnUse" x="0" y="0" width="133" height="48">
<path d="M132.14 0H0.711914V48H132.14V0Z" fill="white"/>
</mask>
<g mask="url(#mask0_247_8036)">
<path d="M44.4195 10.7757C44.4195 4.84229 39.5405 0 33.562 0C30.4697 0 27.6522 1.29577 25.7281 3.34183L1.19556 18.687C0.714528 18.9598 0.577157 19.6418 0.852014 20.1192C1.05819 20.4602 1.40173 20.5966 1.74539 20.5966C1.95144 20.5966 2.08892 20.5283 2.29509 20.4602L23.2543 7.29749C22.8419 8.38869 22.6357 9.54811 22.6357 10.8439C22.6357 13.5719 23.6665 16.0272 25.3157 17.9368L8.82332 34.2367C8.41098 34.6459 8.41098 35.2598 8.82332 35.6689C9.02949 35.8735 9.30435 35.9417 9.57921 35.9417C9.85418 35.9417 10.129 35.8735 10.3352 35.6689L26.8276 19.369C28.6829 20.8011 31.0194 21.6878 33.4933 21.6878C34.9364 21.6878 36.3107 21.415 37.5477 20.9376L24.4225 42.0798C24.1475 42.5571 24.285 43.171 24.766 43.512C24.9035 43.6483 25.1096 43.6483 25.3157 43.6483C25.6594 43.6483 26.0029 43.4438 26.2091 43.171L42.0144 17.5958C43.5263 15.6862 44.4195 13.3673 44.4195 10.7757ZM28.3394 17.8686L33.1497 13.1627C33.562 12.7535 33.562 12.1397 33.1497 11.7305C32.7373 11.3213 32.1189 11.3213 31.7066 11.7305L26.8276 16.5046C25.5219 15.0041 24.6973 13.0263 24.6973 10.8439C24.766 6.0016 28.6829 2.04606 33.562 2.04606C38.441 2.04606 42.358 6.0016 42.358 10.7757C42.358 15.6179 38.3723 19.5054 33.562 19.5054C31.6379 19.5736 29.7825 18.8915 28.3394 17.8686Z" fill="#25B7EB"/>
<path d="M33.5641 3.68311C29.5785 3.68311 26.3486 6.88848 26.3486 10.8441C26.3486 11.3897 26.8297 11.8672 27.3795 11.8672C27.9292 11.8672 28.4102 11.3897 28.4102 10.8441C28.4102 8.0479 30.6779 5.72905 33.5641 5.72905C34.1139 5.72905 34.5949 5.25168 34.5949 4.70608C34.5949 4.16048 34.1139 3.68311 33.5641 3.68311Z" fill="#25B7EB"/>
<path d="M50.9625 44.6608C54.2601 44.6608 55.9089 43.4108 55.9089 40.9108C55.9089 38.5893 54.5488 37.4286 51.8285 37.4286H50.1857C48.6142 37.4286 47.8285 36.7441 47.8285 35.375C47.8285 33.8275 48.9892 33.0537 51.3107 33.0537C52.7988 33.0537 54.1827 33.2917 55.4625 33.768V32.2501C54.1827 31.8929 52.7988 31.7144 51.3107 31.7144C47.8881 31.7144 46.1768 32.9346 46.1768 35.375C46.1768 37.6965 47.5131 38.8572 50.1857 38.8572H51.8285C53.4476 38.8572 54.2571 39.5418 54.2571 40.9108C54.2571 42.5179 53.1589 43.3214 50.9625 43.3214C49.4089 43.3214 47.9625 43.0834 46.6232 42.6072V44.1251C47.9625 44.4822 49.4089 44.6608 50.9625 44.6608ZM61.0339 44.5715L63.5875 37.5626L66.2749 44.5715H67.7838L70.2304 35.1965H68.4803L66.9803 42.5448L64.3732 35.1965H62.8821L60.4446 42.5448L58.7838 35.1965H57.1142L59.4892 44.5715H61.0339ZM79.3374 44.5715V38.1073C79.3374 36.1667 77.9446 35.1965 75.1589 35.1965C74.1946 35.1965 73.2065 35.3453 72.1946 35.6429V36.9822C73.2065 36.6846 74.1946 36.5358 75.1589 36.5358C76.8434 36.5358 77.6857 37.0745 77.6857 38.1518V39.0357C76.8702 38.9168 76.0547 38.8572 75.2393 38.8572C72.7035 38.8572 71.4357 39.8185 71.4357 41.7411C71.4357 43.6281 72.5517 44.5715 74.7838 44.5715C75.8851 44.5715 76.9029 44.262 77.8374 43.6429L78.4089 44.5715H79.3374ZM74.7838 43.2322C73.653 43.2322 73.0875 42.7262 73.0875 41.7144C73.0875 40.7025 73.8048 40.1965 75.2393 40.1965C76.0547 40.1965 76.8702 40.2561 77.6857 40.375V42.3214C76.894 42.9286 75.9267 43.2322 74.7838 43.2322ZM83.6678 47.9644V44.1251C84.3702 44.4227 85.0964 44.5715 85.8464 44.5715C88.8702 44.5715 90.3821 42.9316 90.3821 39.6518C90.3821 36.6817 88.8792 35.1965 85.8732 35.1965C84.5458 35.1965 83.2601 35.3245 82.0161 35.5804V47.9644H83.6678ZM85.8374 43.1429C85.0398 43.1429 84.3166 42.9822 83.6678 42.6608V36.7858C84.2929 36.6429 85.022 36.5715 85.8553 36.5715C87.7899 36.5715 88.7571 37.5923 88.7571 39.634C88.7571 41.9733 87.7838 43.1429 85.8374 43.1429ZM99.4892 44.5715V43.3214H94.0696L99.6678 36.5358V35.1965H92.3464V36.5358H97.8374L92.1678 43.3214V44.5715H99.4892ZM105.918 44.5626C108.894 44.5626 110.382 43.003 110.382 39.884C110.382 36.759 108.894 35.1965 105.918 35.1965C102.942 35.1965 101.454 36.759 101.454 39.884C101.465 43.003 102.954 44.5626 105.918 44.5626ZM105.918 43.2322C104.043 43.2322 103.105 42.1042 103.105 39.8483C103.105 37.64 104.043 36.5358 105.918 36.5358C107.793 36.5358 108.73 37.64 108.73 39.8483C108.73 42.1042 107.793 43.2322 105.918 43.2322ZM114.266 44.5715V37.759C115.117 36.9674 116.016 36.5715 116.963 36.5715C118.349 36.5715 119.043 37.268 119.043 38.6608V44.5715H120.694V38.6876C120.694 36.3602 119.525 35.1965 117.186 35.1965C116.037 35.1965 114.983 35.5953 114.025 36.393L113.73 35.1965H112.614V44.5715H114.266ZM127.757 44.5715C128.942 44.5715 129.948 44.4524 130.775 44.2144V42.875C129.948 43.1132 129.002 43.2322 127.935 43.2322C125.698 43.2322 124.579 42.2739 124.579 40.3572H131.159C131.213 39.9286 131.239 39.5268 131.239 39.1518C131.239 36.5149 129.906 35.1965 127.239 35.1965C124.364 35.1965 122.927 36.7233 122.927 39.7769C122.927 42.9733 124.536 44.5715 127.757 44.5715ZM129.65 38.9822H124.579C124.686 37.3394 125.573 36.5179 127.239 36.5179C128.811 36.5179 129.614 37.3394 129.65 38.9822Z" fill="#2B2B37"/>
<path d="M50.9625 44.6608C54.2601 44.6608 55.9089 43.4108 55.9089 40.9108C55.9089 38.5893 54.5488 37.4286 51.8285 37.4286H50.1857C48.6142 37.4286 47.8285 36.7441 47.8285 35.375C47.8285 33.8275 48.9892 33.0537 51.3107 33.0537C52.7988 33.0537 54.1827 33.2917 55.4625 33.768V32.2501C54.1827 31.8929 52.7988 31.7144 51.3107 31.7144C47.8881 31.7144 46.1768 32.9346 46.1768 35.375C46.1768 37.6965 47.5131 38.8572 50.1857 38.8572H51.8285C53.4476 38.8572 54.2571 39.5418 54.2571 40.9108C54.2571 42.5179 53.1589 43.3214 50.9625 43.3214C49.4089 43.3214 47.9625 43.0834 46.6232 42.6072V44.1251C47.9625 44.4822 49.4089 44.6608 50.9625 44.6608ZM61.0339 44.5715L63.5875 37.5626L66.2749 44.5715H67.7838L70.2304 35.1965H68.4803L66.9803 42.5448L64.3732 35.1965H62.8821L60.4446 42.5448L58.7838 35.1965H57.1142L59.4892 44.5715H61.0339ZM79.3374 44.5715V38.1073C79.3374 36.1667 77.9446 35.1965 75.1589 35.1965C74.1946 35.1965 73.2065 35.3453 72.1946 35.6429V36.9822C73.2065 36.6846 74.1946 36.5358 75.1589 36.5358C76.8434 36.5358 77.6857 37.0745 77.6857 38.1518V39.0357C76.8702 38.9168 76.0547 38.8572 75.2393 38.8572C72.7035 38.8572 71.4357 39.8185 71.4357 41.7411C71.4357 43.6281 72.5517 44.5715 74.7838 44.5715C75.8851 44.5715 76.9029 44.262 77.8374 43.6429L78.4089 44.5715H79.3374ZM74.7838 43.2322C73.653 43.2322 73.0875 42.7262 73.0875 41.7144C73.0875 40.7025 73.8048 40.1965 75.2393 40.1965C76.0547 40.1965 76.8702 40.2561 77.6857 40.375V42.3214C76.894 42.9286 75.9267 43.2322 74.7838 43.2322ZM83.6678 47.9644V44.1251C84.3702 44.4227 85.0964 44.5715 85.8464 44.5715C88.8702 44.5715 90.3821 42.9316 90.3821 39.6518C90.3821 36.6817 88.8792 35.1965 85.8732 35.1965C84.5458 35.1965 83.2601 35.3245 82.0161 35.5804V47.9644H83.6678ZM85.8374 43.1429C85.0398 43.1429 84.3166 42.9822 83.6678 42.6608V36.7858C84.2929 36.6429 85.022 36.5715 85.8553 36.5715C87.7899 36.5715 88.7571 37.5923 88.7571 39.634C88.7571 41.9733 87.7838 43.1429 85.8374 43.1429ZM99.4892 44.5715V43.3214H94.0696L99.6678 36.5358V35.1965H92.3464V36.5358H97.8374L92.1678 43.3214V44.5715H99.4892ZM105.918 44.5626C108.894 44.5626 110.382 43.003 110.382 39.884C110.382 36.759 108.894 35.1965 105.918 35.1965C102.942 35.1965 101.454 36.759 101.454 39.884C101.465 43.003 102.954 44.5626 105.918 44.5626ZM105.918 43.2322C104.043 43.2322 103.105 42.1042 103.105 39.8483C103.105 37.64 104.043 36.5358 105.918 36.5358C107.793 36.5358 108.73 37.64 108.73 39.8483C108.73 42.1042 107.793 43.2322 105.918 43.2322ZM114.266 44.5715V37.759C115.117 36.9674 116.016 36.5715 116.963 36.5715C118.349 36.5715 119.043 37.268 119.043 38.6608V44.5715H120.694V38.6876C120.694 36.3602 119.525 35.1965 117.186 35.1965C116.037 35.1965 114.983 35.5953 114.025 36.393L113.73 35.1965H112.614V44.5715H114.266ZM127.757 44.5715C128.942 44.5715 129.948 44.4524 130.775 44.2144V42.875C129.948 43.1132 129.002 43.2322 127.935 43.2322C125.698 43.2322 124.579 42.2739 124.579 40.3572H131.159C131.213 39.9286 131.239 39.5268 131.239 39.1518C131.239 36.5149 129.906 35.1965 127.239 35.1965C124.364 35.1965 122.927 36.7233 122.927 39.7769C122.927 42.9733 124.536 44.5715 127.757 44.5715ZM129.65 38.9822H124.579C124.686 37.3394 125.573 36.5179 127.239 36.5179C128.811 36.5179 129.614 37.3394 129.65 38.9822Z" fill="#E8168D"/>
</g>
</g>
<defs>
<clipPath id="clip0_247_8036">
<rect width="131.429" height="48" fill="white" transform="translate(0.713867)"/>
</clipPath>
</defs>
</svg>
