<svg width="150" height="48" viewBox="0 0 150 48" fill="none" xmlns="http://www.w3.org/2000/svg">
<path fill-rule="evenodd" clip-rule="evenodd" d="M7.63781 9.14307H20.4651C22.4884 9.14307 23.4991 9.14307 24.273 9.53467C24.9535 9.87584 25.5038 10.4254 25.8509 11.0994C26.2454 11.8674 26.2454 12.8708 26.2454 14.8792V17.0087H1.85742V14.8792C1.85742 12.8708 1.85742 11.8674 2.25192 11.0994C2.59563 10.4254 3.14928 9.87752 3.82994 9.53467C4.6037 9.14307 5.61451 9.14307 7.63781 9.14307ZM26.2471 23.6641H18.1166L18.1201 24.7817V39.3952H20.4668C22.49 39.3952 23.5009 39.3952 24.2763 39.0035C24.9535 38.6624 25.5055 38.1128 25.8526 37.4388C26.2471 36.6708 26.2471 35.6674 26.2471 33.6574V23.6641ZM9.9845 24.2691H1.85742V34.2641C1.85742 36.2724 1.85742 37.2759 2.25192 38.0423C2.59902 38.7178 3.14928 39.2674 3.82994 39.6087C4.6037 40.0002 5.61451 40.0002 7.63781 40.0002H9.9845V24.2691ZM42.0763 28.8035C42.0763 31.8826 43.7694 33.6238 47.0287 33.6238C48.1885 33.6238 49.0029 33.4388 49.5989 33.2203V30.2338C49.0655 30.4523 48.5018 30.5464 47.7483 30.5464C46.558 30.5464 45.869 29.891 45.869 28.4624V19.9095H49.4719V17.0792H45.869V13.5027H42.0763V17.0792H39.8854V19.9095H42.078L42.0763 28.8035ZM61.8403 27.654C61.8403 29.738 60.1167 30.9498 57.7971 30.9498C55.9178 30.9498 55.1643 30.0473 55.1643 28.6809C55.1643 26.6892 57.0132 26.0355 59.8966 26.0355H61.8403V27.654ZM51.4038 28.8355C51.4038 32.2255 53.8791 33.6556 56.8895 33.6556C59.3955 33.6556 60.8363 32.7531 61.9013 31.3531V33.3448H65.6312V22.6775C65.6312 18.2305 62.7495 16.738 59.0822 16.738C55.4149 16.738 52.3774 18.323 52.0625 22.1162H55.728C55.9178 20.501 56.8879 19.5683 58.8621 19.5683C61.0886 19.5683 61.8403 20.6556 61.8403 22.8338V23.6742H59.8035C55.1016 23.6742 51.4055 25.0406 51.4055 28.8338L51.4038 28.8355ZM68.7551 33.3448V17.0792H72.5477V19.6607C73.3317 18.0742 75.1484 16.7363 77.8439 16.7363C81.1336 16.7363 83.4533 18.6355 83.4533 23.1128V33.3448H79.6606V23.4556C79.6606 20.9985 78.6583 19.8792 76.403 19.8792C74.2696 19.8792 72.5477 21.1851 72.5477 23.7666V33.3448H68.7551ZM98.7575 24.8238C98.7575 27.933 96.8477 29.7985 94.2149 29.7985C91.77 29.7985 89.8906 27.933 89.8906 24.9162V24.6674C89.8906 21.7128 91.5194 19.6927 94.3402 19.6927C97.0661 19.6927 98.7592 21.5263 98.7592 24.6052L98.7575 24.8238ZM86.1927 33.9044C86.6314 37.0137 88.9492 39.3162 94.0896 39.3162C99.1656 39.3162 102.394 36.9212 102.425 32.1313V17.0792H98.6323V19.5666C97.6926 17.9498 96.0638 16.738 93.3683 16.738C89.1389 16.738 86.0031 20.1582 86.0031 24.7296V24.9481C86.0031 29.6439 89.1693 32.691 93.2752 32.691C95.6879 32.691 97.7247 31.2288 98.634 29.6742V32.0691C98.634 34.9935 97.0035 36.4556 94.0574 36.4556C91.5821 36.4556 90.3292 35.5212 90.0159 33.9044H86.1927ZM113.451 33.6556C108.625 33.6556 105.146 30.5145 105.146 25.3834V25.1346C105.146 20.096 108.625 16.738 113.293 16.738C117.367 16.738 121.035 19.133 121.035 24.9481V26.0355H109.032C109.157 29.1145 110.725 30.8556 113.544 30.8556C115.833 30.8556 117.023 29.9548 117.304 28.3683H120.972C120.438 31.7901 117.649 33.6556 113.451 33.6556ZM109.094 23.5178H117.272C117.086 20.7178 115.644 19.4742 113.293 19.4742C111.007 19.4742 109.47 20.9985 109.094 23.5178ZM123.732 17.0809V33.3448H127.524V23.6103C127.524 21.123 129.247 19.8792 131.127 19.8792C132.976 19.8792 134.041 20.9044 134.041 23.2994V33.3448H137.833V23.6103C137.833 21.123 139.557 19.8792 141.438 19.8792C143.318 19.8792 144.35 20.9044 144.35 23.2994V33.3448H148.143V23.0506C148.143 18.5716 145.7 16.738 142.692 16.738C140.654 16.738 138.397 17.6388 137.144 19.6624C136.331 17.6388 134.639 16.738 132.505 16.738C130.093 16.738 128.307 18.0439 127.524 19.5683V17.0809H123.732Z" fill="#2B2B37"/>
</svg>
