<svg width="144" height="48" viewBox="0 0 144 48" fill="none" xmlns="http://www.w3.org/2000/svg">
<g clip-path="url(#clip0_247_8123)">
<mask id="mask0_247_8123" style="mask-type:luminance" maskUnits="userSpaceOnUse" x="0" y="0" width="144" height="48">
<path d="M143.57 0H0.712891V48H143.57V0Z" fill="white"/>
</mask>
<g mask="url(#mask0_247_8123)">
<path d="M12.9141 6.85693C8.05812 6.85693 4.12825 10.6633 4.12825 15.3666V18.556C2.42302 18.855 0.712891 19.2537 0.712891 19.771V36.4156C0.712891 36.4156 0.712891 36.8759 1.247 37.0942C3.18254 37.8536 10.7973 40.4639 12.5466 41.062C12.772 41.1426 12.8357 41.1426 12.8946 41.1426C12.9779 41.1426 13.0171 41.1426 13.2424 41.062C14.9917 40.4639 22.6261 37.8536 24.5616 37.0942C25.0565 36.8949 25.0762 36.4345 25.0762 36.4345V19.771C25.0762 19.2537 23.3906 18.836 21.6804 18.556V15.3666C21.7048 10.6633 17.7504 6.85693 12.9141 6.85693ZM12.9141 10.9243C15.7758 10.9243 17.5055 12.5997 17.5055 15.3714V18.1431C14.2959 17.9248 11.5568 17.9248 8.32763 18.1431V15.3714C8.32763 12.595 10.0574 10.9243 12.9141 10.9243ZM12.8946 22.2247C16.888 22.2247 20.2397 22.5238 20.2397 23.06V33.4445C20.2397 33.6058 20.2202 33.6248 20.0732 33.6818C19.931 33.7434 13.262 36.0738 13.262 36.0738C13.262 36.0738 12.9925 36.1545 12.9141 36.1545C12.8308 36.1545 12.5662 36.0549 12.5662 36.0549C12.5662 36.0549 5.89718 33.7245 5.75508 33.6628C5.61297 33.6012 5.58848 33.5822 5.58848 33.4255V23.041C5.54927 22.5048 8.90094 22.2247 12.8946 22.2247Z" fill="#2B2B37"/>
<path d="M38.9155 36.5256V23.3832H33.9521V18.6704H49.4271V23.3832H44.5126V36.5256H38.9155Z" fill="#2B2B37"/>
<path d="M61.9662 36.5256L59.4196 30.9111H57.393V36.5256H51.7959V18.6704H61.6465C65.9703 18.6704 68.2894 21.4436 68.2894 24.7881C68.2894 27.8706 66.4472 29.5009 64.9679 30.2034L68.3111 36.5204H61.9662V36.5256ZM62.6272 24.7881C62.6272 23.8183 61.7386 23.399 60.8066 23.399H57.393V26.2193H60.8066C61.7386 26.1983 62.6272 25.779 62.6272 24.7881Z" fill="#2B2B37"/>
<path d="M71.2236 36.527V18.6719H85.2193V23.3847H76.7992V25.146H85.0135V29.8588H76.7992V31.8194H85.2193V36.527H71.2236Z" fill="#2B2B37"/>
<path d="M88.1299 36.5471V32.2536L95.1628 23.4047H88.1299V18.6919H102.532V22.9433L95.4771 31.8394H102.738V36.5522L88.1299 36.5471Z" fill="#2B2B37"/>
<path d="M104.104 27.6301C104.104 22.1467 108.498 18.3828 114.209 18.3828C119.898 18.3828 124.314 22.1258 124.314 27.6301C124.314 33.1136 119.92 36.8565 114.209 36.8565C108.498 36.8565 104.104 33.1136 104.104 27.6301ZM118.625 27.6301C118.625 25.1401 116.875 23.1585 114.187 23.1585C111.5 23.1585 109.75 25.1401 109.75 27.6301C109.75 30.1202 111.5 32.1018 114.187 32.1018C116.897 32.1018 118.625 30.1202 118.625 27.6301Z" fill="#2B2B37"/>
<path d="M136.828 36.5471L134.281 30.9326H132.255V36.5471H126.657V18.6919H136.509C140.832 18.6919 143.151 21.465 143.151 24.8096C143.151 27.8921 141.309 29.5224 139.83 30.2249L143.173 36.5418H136.828V36.5471ZM137.511 24.7886C137.511 23.8189 136.622 23.3994 135.69 23.3994H132.277V26.2198H135.69C136.628 26.1989 137.511 25.7794 137.511 24.7886Z" fill="#2B2B37"/>
</g>
</g>
<defs>
<clipPath id="clip0_247_8123">
<rect width="142.857" height="48" fill="white" transform="translate(0.714844)"/>
</clipPath>
</defs>
</svg>
