<svg width="167" height="48" viewBox="0 0 167 48" fill="none" xmlns="http://www.w3.org/2000/svg">
<g clip-path="url(#clip0_247_8093)">
<mask id="mask0_247_8093" style="mask-type:luminance" maskUnits="userSpaceOnUse" x="0" y="2" width="166" height="44">
<path d="M165.741 2.28564H0.569336V45.7142H165.741V2.28564Z" fill="white"/>
</mask>
<g mask="url(#mask0_247_8093)">
<path d="M7.54359 2.33008H37.5127C41.2745 2.33008 44.3239 5.36822 44.3239 9.11579V38.973C44.3239 42.7205 41.2745 45.7587 37.5127 45.7587H7.54359C3.78196 45.7587 0.732422 42.7205 0.732422 38.973V9.11579C0.732592 5.36822 3.78196 2.33008 7.54359 2.33008Z" fill="#2F2F2F"/>
<path d="M7.54359 2.33008H37.5127C41.2745 2.33008 44.3239 5.36822 44.3239 9.11579V38.973C44.3239 42.7205 41.2745 45.7587 37.5127 45.7587H7.54359C3.78196 45.7587 0.732422 42.7205 0.732422 38.973V9.11579C0.732592 5.36822 3.78196 2.33008 7.54359 2.33008Z" fill="url(#paint0_linear_247_8093)"/>
<path d="M25.9868 18.7541L21.1025 18.6383L30.4363 10.2367C30.9134 9.76155 31.6969 9.7931 32.1312 10.3109L34.1017 12.6332C34.2926 13.0236 34.2499 13.4779 33.9956 13.8259L30.9337 17.9635C29.7799 19.5247 27.9259 18.7859 25.9868 18.7541Z" fill="#FFD500"/>
<path d="M25.9868 18.7541L21.1025 18.6383L30.4363 10.2367C30.9134 9.76155 31.6969 9.7931 32.1312 10.3109L34.1017 12.6332C34.2926 13.0236 34.2499 13.4779 33.9956 13.8259L30.9337 17.9635C29.7799 19.5247 27.9259 18.7859 25.9868 18.7541Z" fill="url(#paint1_linear_247_8093)"/>
<path d="M25.4167 35.7144L21.7614 38.9125C21.0199 39.567 19.8438 39.0392 19.8438 38.0469V18.415L25.215 21.7188C25.554 21.9298 25.7549 22.2992 25.7658 22.6902L25.8084 34.8385C25.8083 35.1866 25.6709 35.5034 25.4167 35.7144Z" fill="#1389EA"/>
<path d="M25.4167 35.7144L21.7614 38.9125C21.0199 39.567 19.8438 39.0392 19.8438 38.0469V18.415L25.215 21.7188C25.554 21.9298 25.7549 22.2992 25.7658 22.6902L25.8084 34.8385C25.8083 35.1866 25.6709 35.5034 25.4167 35.7144Z" fill="url(#paint2_linear_247_8093)"/>
<path d="M25.7658 29.4874V22.6903C25.7658 22.3 25.5644 21.9406 25.2361 21.7296L14.9062 15.0801L12.0778 18.8692C11.6861 19.397 11.8132 20.1467 12.364 20.5052L25.7658 29.4874Z" fill="#FFD500"/>
<path d="M25.7658 29.4874V22.6903C25.7658 22.3 25.5644 21.9406 25.2361 21.7296L14.9062 15.0801L12.0778 18.8692C11.6861 19.397 11.8132 20.1467 12.364 20.5052L25.7658 29.4874Z" fill="url(#paint3_linear_247_8093)"/>
<path d="M29.2618 19.524H12.3638C11.9294 19.524 11.7813 19.2389 12.0356 18.8911L15.4683 14.0678C15.6802 13.7618 16.0408 13.5825 16.4115 13.5825H33.8609C33.9772 13.5825 34.1789 13.5825 34.1045 13.6775L30.1949 19.0502C29.9715 19.355 29.6325 19.524 29.2618 19.524Z" fill="#1389EA"/>
<path d="M29.2618 19.524H12.3638C11.9294 19.524 11.7813 19.2389 12.0356 18.8911L15.4683 14.0678C15.6802 13.7618 16.0408 13.5825 16.4115 13.5825H33.8609C33.9772 13.5825 34.1789 13.5825 34.1045 13.6775L30.1949 19.0502C29.9715 19.355 29.6325 19.524 29.2618 19.524Z" fill="url(#paint4_linear_247_8093)"/>
<path d="M29.2618 19.524H12.3638C11.9294 19.524 11.7813 19.2389 12.0356 18.8911L15.4683 14.0678C15.6802 13.7618 16.0408 13.5825 16.4115 13.5825H33.8609C33.9772 13.5825 34.1789 13.5825 34.1045 13.6775L30.1949 19.0502C29.9715 19.355 29.6325 19.524 29.2618 19.524Z" fill="url(#paint5_linear_247_8093)"/>
<path d="M27.4736 25.0181V22.6494H28.523C28.7336 22.6494 28.9141 22.6824 29.0649 22.7493C29.2153 22.8156 29.3315 22.9122 29.4133 23.0386C29.4949 23.165 29.5353 23.3159 29.5353 23.4918C29.5353 23.6655 29.4947 23.8154 29.4133 23.9405C29.3315 24.0655 29.2153 24.1626 29.0649 24.2315C28.9141 24.3003 28.7336 24.3348 28.523 24.3348H27.7215L27.9151 24.1317V25.0186L27.4736 25.0181ZM27.9151 24.1787L27.7215 23.9621H28.5028C28.6974 23.9621 28.844 23.921 28.9425 23.8388C29.0412 23.7564 29.0902 23.6406 29.0902 23.4916C29.0902 23.343 29.0412 23.2271 28.9425 23.145C28.844 23.0626 28.6974 23.0216 28.5028 23.0216H27.7215L27.9151 22.8048V24.1787Z" fill="#F7F7F7"/>
<path d="M27.4736 28.402V26.0332H27.9151V27.9277H29.556V28.402H27.4736Z" fill="#F7F7F7"/>
<path d="M28.5129 31.8198C28.1889 31.8198 27.935 31.7283 27.7503 31.5457C27.5656 31.3626 27.4736 31.0978 27.4736 30.7504V29.417H27.9153V30.7364C27.9153 30.9803 27.9679 31.1573 28.0732 31.2678C28.1785 31.3786 28.3275 31.4336 28.5199 31.4336C28.7126 31.4336 28.8607 31.3786 28.9651 31.2678C29.0692 31.1573 29.1214 30.9803 29.1214 30.7364V29.417H29.5561V30.7504C29.5561 31.0978 29.4638 31.3628 29.279 31.5457C29.0943 31.7283 28.839 31.8198 28.5129 31.8198Z" fill="#F7F7F7"/>
<path d="M28.5049 35.2046C28.3194 35.2046 28.142 35.1779 27.9736 35.1249C27.8048 35.0719 27.6693 35.0036 27.5674 34.9202L27.7202 34.5784C27.8155 34.6528 27.9333 34.7149 28.0734 34.7644C28.2139 34.8143 28.3577 34.839 28.5048 34.839C28.6292 34.839 28.7302 34.8256 28.8072 34.7983C28.8841 34.7715 28.9406 34.7345 28.977 34.6884C29.0132 34.6422 29.0313 34.5899 29.0313 34.5309C29.0313 34.4588 29.0052 34.4008 28.9531 34.3567C28.901 34.3126 28.8338 34.2779 28.7512 34.2519C28.6684 34.226 28.5768 34.2024 28.4758 34.1805C28.3752 34.1591 28.2741 34.1326 28.1736 34.1011C28.073 34.0695 27.9805 34.0293 27.8969 33.9811C27.8131 33.9324 27.7457 33.8677 27.6946 33.7862C27.6436 33.7053 27.6181 33.6012 27.6181 33.4748C27.6181 33.3463 27.6526 33.2284 27.7218 33.1214C27.7909 33.014 27.8962 32.9284 28.0378 32.864C28.1795 32.7998 28.3588 32.7676 28.5763 32.7676C28.7188 32.7676 28.8605 32.7855 29.001 32.8216C29.1413 32.8577 29.2637 32.9099 29.3678 32.9774L29.2284 33.319C29.122 33.2561 29.0123 33.2091 28.8989 33.1789C28.7856 33.1481 28.677 33.1331 28.5729 33.1331C28.4529 33.1331 28.3542 33.1479 28.2772 33.1772C28.2001 33.2065 28.1441 33.2453 28.1092 33.294C28.0739 33.3427 28.0565 33.3959 28.0565 33.4547C28.0565 33.527 28.0821 33.5849 28.1331 33.6289C28.1837 33.6732 28.2505 33.7075 28.3333 33.7323C28.4158 33.7571 28.5082 33.7809 28.61 33.8032C28.712 33.826 28.8126 33.8523 28.9124 33.8829C29.012 33.9132 29.1036 33.9529 29.1876 34.0014C29.2712 34.0501 29.3386 34.1143 29.3896 34.1943C29.4404 34.2747 29.4659 34.3766 29.4659 34.5005C29.4659 34.6272 29.4314 34.7439 29.3622 34.8509C29.2932 34.958 29.1874 35.0439 29.0446 35.1083C28.9024 35.1724 28.7224 35.2046 28.5049 35.2046Z" fill="#F7F7F7"/>
<path d="M59.8882 32.7668V19.9565H54.8174V16.9795H68.6266V19.9565H63.5557V32.7668H59.8882Z" fill="#2B2B37"/>
<path d="M71.0449 32.7668V16.9795H77.9042C79.3226 16.9795 80.5452 17.2089 81.5716 17.6674C82.5976 18.1263 83.3897 18.7838 83.9483 19.6409C84.5065 20.4979 84.786 21.5129 84.786 22.6855C84.786 23.8734 84.5065 24.8922 83.9483 25.7414C83.3897 26.5911 82.5976 27.2377 81.5716 27.6811C80.5452 28.1247 79.3226 28.3463 77.9042 28.3463H73.0598L74.735 26.7677V32.7668H71.0449ZM74.735 27.1734L73.0598 25.4371H77.7006C78.8173 25.4371 79.6624 25.1966 80.236 24.7153C80.8094 24.2342 81.0963 23.5578 81.0963 22.6855C81.0963 21.8139 80.8094 21.1407 80.236 20.667C79.6624 20.1934 78.8173 19.9565 77.7006 19.9565H73.0598L74.735 18.2199V27.1734ZM81.1414 32.7668L77.1571 27.0381H81.0963L85.0805 32.7668H81.1414Z" fill="#2B2B37"/>
<path d="M95.1792 33.0374C92.9307 33.0374 91.1721 32.4136 89.9044 31.1653C88.6366 29.9177 88.0029 28.1286 88.0029 25.7977V16.9795H91.6928V25.7075C91.6928 27.1959 92.0016 28.2751 92.621 28.9439C93.2395 29.613 94.0997 29.9476 95.2018 29.9476C96.3182 29.9476 97.1858 29.613 97.8052 28.9439C98.4237 28.2751 98.7333 27.1959 98.7333 25.7075V16.9795H102.333V25.7977C102.333 28.1284 101.699 29.9176 100.431 31.1653C99.1635 32.4138 97.4131 33.0374 95.1792 33.0374Z" fill="#2B2B37"/>
<path d="M111.66 33.038C110.392 33.038 109.174 32.869 108.005 32.5307C106.835 32.1923 105.895 31.7524 105.186 31.2113L106.431 28.4596C107.094 28.9412 107.895 29.3358 108.83 29.6436C109.766 29.9519 110.709 30.106 111.66 30.106C112.385 30.106 112.97 30.0312 113.415 29.8807C113.86 29.7304 114.189 29.5308 114.399 29.2831C114.61 29.0348 114.716 28.7456 114.716 28.4148C114.716 27.9942 114.55 27.6592 114.218 27.4112C113.886 27.163 113.445 26.9601 112.894 26.8022C112.343 26.6442 111.743 26.4943 111.094 26.3511C110.445 26.2083 109.793 26.0354 109.136 25.8322C108.48 25.6292 107.876 25.3586 107.325 25.0204C106.774 24.6822 106.337 24.2388 106.012 23.6899C105.687 23.1412 105.525 22.4534 105.525 21.6262C105.525 20.724 105.767 19.9009 106.25 19.1564C106.733 18.4123 107.468 17.8185 108.457 17.3747C109.445 16.9315 110.687 16.7095 112.181 16.7095C113.177 16.7095 114.162 16.8299 115.135 17.0703C116.109 17.3107 116.958 17.6568 117.683 18.1076L116.527 20.8593C115.819 20.4532 115.086 20.1488 114.331 19.9459C113.577 19.7427 112.853 19.6414 112.158 19.6414C111.434 19.6414 110.853 19.7202 110.415 19.8782C109.978 20.0361 109.657 20.2503 109.453 20.5209C109.25 20.7915 109.148 21.0924 109.148 21.4231C109.148 21.8442 109.314 22.1825 109.646 22.4379C109.978 22.6937 110.415 22.8929 110.959 23.0355C111.502 23.1786 112.106 23.3215 112.77 23.4641C113.433 23.6071 114.091 23.7838 114.739 23.994C115.389 24.2048 115.984 24.4714 116.527 24.7946C117.071 25.1179 117.512 25.554 117.852 26.1027C118.192 26.6518 118.361 27.3319 118.361 28.1436C118.361 29.031 118.116 29.843 117.625 30.5794C117.135 31.3164 116.391 31.91 115.396 32.3612C114.399 32.8124 113.154 33.038 111.66 33.038Z" fill="#2B2B37"/>
<path d="M124.382 32.7668V19.9565H119.31V16.9795H133.12V19.9565H128.049V32.7668H124.382Z" fill="#2B2B37"/>
<path d="M139.188 29.8362H147.813V32.768H135.543V16.981H147.518V19.913H139.188V29.8362ZM138.916 23.3184H146.545V26.1826H138.916V23.3184Z" fill="#2B2B37"/>
<path d="M154.828 29.8347H163.453V32.7666H151.184V16.9795H163.16V19.9115H154.828V29.8347ZM154.557 23.317H162.186V26.1811H154.557V23.317Z" fill="#2B2B37"/>
</g>
</g>
<defs>
<linearGradient id="paint0_linear_247_8093" x1="22.5282" y1="45.7587" x2="22.5282" y2="2.33008" gradientUnits="userSpaceOnUse">
<stop stop-opacity="0"/>
<stop offset="1" stop-color="#F7F7F7" stop-opacity="0.2"/>
</linearGradient>
<linearGradient id="paint1_linear_247_8093" x1="27.5911" y1="14.1642" x2="27.4488" y2="10.6728" gradientUnits="userSpaceOnUse">
<stop stop-opacity="0.3"/>
<stop offset="1" stop-color="#FFD500" stop-opacity="0"/>
</linearGradient>
<linearGradient id="paint2_linear_247_8093" x1="21.2512" y1="39.0021" x2="23.0333" y2="24.9388" gradientUnits="userSpaceOnUse">
<stop stop-color="#1389EA" stop-opacity="0"/>
<stop offset="0.7934" stop-opacity="0.2"/>
</linearGradient>
<linearGradient id="paint3_linear_247_8093" x1="15.187" y1="18.1924" x2="25.9551" y2="26.9733" gradientUnits="userSpaceOnUse">
<stop offset="0.147" stop-opacity="0.3"/>
<stop offset="1" stop-color="#FFD500" stop-opacity="0"/>
</linearGradient>
<linearGradient id="paint4_linear_247_8093" x1="21.9059" y1="16.5533" x2="11.6667" y2="16.5533" gradientUnits="userSpaceOnUse">
<stop offset="3.40978e-07" stop-color="#1389EA" stop-opacity="0"/>
<stop offset="1" stop-opacity="0.2"/>
</linearGradient>
<linearGradient id="paint5_linear_247_8093" x1="22.8762" y1="16.5533" x2="33.1153" y2="16.5533" gradientUnits="userSpaceOnUse">
<stop offset="0.1579" stop-color="#1389EA" stop-opacity="0"/>
<stop offset="1" stop-opacity="0.2"/>
</linearGradient>
<clipPath id="clip0_247_8093">
<rect width="165.714" height="48" fill="white" transform="translate(0.571289)"/>
</clipPath>
</defs>
</svg>
