<svg width="201" height="181" viewBox="0 0 201 181" fill="none" xmlns="http://www.w3.org/2000/svg">
<g clip-path="url(#clip0_227_10261)">
<path d="M201 80.5C201 100.377 195.106 119.808 184.063 136.335C173.02 152.862 157.324 165.743 138.96 173.35C120.596 180.957 100.389 182.947 80.8935 179.069C61.3984 175.191 43.491 165.619 29.4358 151.564C15.3806 137.509 5.80894 119.602 1.93112 100.107C-1.94669 80.6115 0.0435447 60.4043 7.65015 42.0403C15.2568 23.6763 28.1381 7.98039 44.6652 -3.06269C61.1924 -14.1058 80.623 -20 100.5 -20C127.154 -20 152.717 -9.41164 171.564 9.43577C190.412 28.2832 201 53.8457 201 80.5Z" fill="#F7931A"/>
<path fill-rule="evenodd" clip-rule="evenodd" d="M71.4281 25.8918L94.5248 32.0771L99.6868 12.8359L111.235 15.9697L106.274 34.416L115.694 36.9468L120.664 18.2995L132.413 21.4424L127.352 40.1902C127.352 40.1902 146.538 44.4386 151.051 60.0435C155.565 75.6484 141.129 83.8438 136.671 84.1544C136.671 84.1544 153.482 93.373 147.708 111.509C141.933 129.644 124.209 132.888 105.562 128.731L100.5 148.173L88.7506 145.03L93.9127 125.889L84.5936 123.349L79.4315 142.627L67.7735 139.493L72.9447 120.307L49.2358 113.912L55.211 100.646C55.211 100.646 61.8988 102.473 64.4296 103.076C66.9604 103.679 68.5867 101.048 69.2993 98.4163C70.0119 95.785 80.7472 52.1771 81.7613 48.5865C82.7754 44.9959 82.3643 42.1911 78.1067 41.0856C73.8492 39.9801 68.0567 38.2533 68.0567 38.2533L71.4281 25.8918ZM94.7258 83.6428L88.3303 109.069C88.3303 109.069 120.043 120.517 124.099 104.41C128.156 88.3023 94.7258 83.6428 94.7258 83.6428ZM97.6677 71.5828L103.944 48.285C103.944 48.285 131.098 53.1456 127.754 66.1101C124.41 79.0746 108.403 74.1044 97.6677 71.5828Z" fill="white"/>
</g>
<defs>
<clipPath id="clip0_227_10261">
<rect width="201" height="201" fill="white" transform="translate(0 -20)"/>
</clipPath>
</defs>
</svg>
