<svg width="163" height="184" viewBox="0 0 163 184" fill="none" xmlns="http://www.w3.org/2000/svg">
<path d="M141.406 165.792C136.931 170.571 131.803 174.696 126.173 178.048C126.044 178.127 125.913 178.201 125.781 178.278L116.667 170.234C116.763 170.146 116.869 170.046 116.983 169.937C123.774 163.506 157.485 118.547 159.731 107.598C159.576 108.51 161.758 144.28 141.406 165.792Z" fill="#00C26F"/>
<path d="M127.932 179.599C127.759 179.64 127.584 179.679 127.408 179.714L120.571 173.679C120.704 173.632 120.861 173.577 121.039 173.516C123.973 172.48 132.71 169.353 141.405 165.791C150.748 161.962 160.046 157.636 162.046 154.865C161.617 155.509 148.403 175.034 127.932 179.599Z" fill="#00C26F"/>
<path d="M42.9299 36.5167V68.2129C37.8797 69.5379 32.592 69.6899 27.4737 68.6572C22.3553 67.6246 17.5427 65.4347 13.4061 62.2562C9.26952 59.0777 5.9192 54.9952 3.61293 50.3228C1.30666 45.6504 0.105899 40.5127 0.103027 35.305C0.103027 34.3754 0.140481 33.4555 0.215388 32.5453H18.9531C19.8515 32.5462 20.7363 32.3265 21.5294 31.9057C22.3226 31.4849 22.9997 30.8758 23.501 30.1323C24.0022 29.3888 24.3123 28.5337 24.4039 27.6424C24.4954 26.7512 24.3655 25.8511 24.0258 25.0217H31.3993C32.9133 25.0212 34.4126 25.3181 35.8116 25.8955C37.2105 26.473 38.4817 27.3196 39.5525 28.3871C40.6232 29.4545 41.4726 30.7219 42.0521 32.1168C42.6317 33.5117 42.9299 35.0068 42.9299 36.5167Z" fill="#00C26F"/>
<path d="M128.857 44.4079H127.844V16.8947C127.844 14.8035 127.429 12.7328 126.622 10.8008C125.815 8.86885 124.632 7.11341 123.141 5.63473C121.65 4.15605 119.88 2.9831 117.932 2.18285C115.983 1.38259 113.896 0.970705 111.787 0.970703H53.0092C48.7506 0.970694 44.6664 2.64838 41.6552 5.63469C38.6439 8.621 36.9522 12.6713 36.9521 16.8946V167.835C36.9521 172.058 38.6439 176.108 41.6551 179.095C44.6664 182.081 48.7505 183.759 53.0091 183.759H111.787C116.045 183.759 120.13 182.081 123.141 179.095C126.152 176.108 127.844 172.058 127.844 167.835V63.9924H128.857L128.857 44.4079Z" fill="#111111"/>
<path d="M124.426 17.0064V167.724C124.426 170.878 123.162 173.903 120.914 176.133C118.665 178.364 115.615 179.617 112.434 179.617H53.3745C50.1942 179.617 47.144 178.364 44.8952 176.133C42.6463 173.903 41.3829 170.878 41.3828 167.724V17.0064C41.3829 13.8524 42.6463 10.8275 44.8952 8.59727C47.1441 6.36703 50.1942 5.11407 53.3745 5.11401H60.5392C60.1872 5.97197 60.0531 6.90257 60.1488 7.82396C60.2445 8.74536 60.5671 9.62931 61.0881 10.3981C61.6091 11.1668 62.3127 11.7968 63.1368 12.2326C63.961 12.6685 64.8805 12.8967 65.8145 12.8974H99.4877C100.422 12.8967 101.341 12.6684 102.165 12.2326C102.99 11.7968 103.693 11.1668 104.214 10.398C104.735 9.6293 105.058 8.74535 105.153 7.82396C105.249 6.90257 105.115 5.97197 104.763 5.11401H112.434C115.615 5.11407 118.665 6.36703 120.914 8.59727C123.162 10.8275 124.426 13.8524 124.426 17.0064Z" fill="white"/>
<path d="M56.5227 19.0935C55.4585 19.0935 54.4046 19.3014 53.4214 19.7053C52.4381 20.1092 51.5447 20.7012 50.7922 21.4475C50.0396 22.1938 49.4427 23.0798 49.0354 24.0549C48.6281 25.03 48.4185 26.0751 48.4185 27.1306C48.4185 28.186 48.6281 29.2311 49.0353 30.2062C49.4426 31.1813 50.0396 32.0673 50.7921 32.8136C51.5447 33.56 52.4381 34.152 53.4213 34.5559C54.4046 34.9598 55.4584 35.1677 56.5227 35.1677H56.5227C58.6721 35.1677 60.7334 34.3209 62.2533 32.8137C63.7731 31.3064 64.627 29.2622 64.627 27.1306C64.627 24.999 63.7731 22.9548 62.2533 21.4475C60.7334 19.9403 58.6721 19.0935 56.5227 19.0935Z" fill="#F2F2F2"/>
<path d="M115.364 33.9114H72.8171C72.2797 33.9114 71.7644 33.6997 71.3844 33.3229C71.0045 32.9461 70.791 32.435 70.791 31.9021C70.791 31.3692 71.0045 30.8581 71.3844 30.4813C71.7644 30.1045 72.2797 29.8928 72.8171 29.8928H115.364C115.902 29.8928 116.417 30.1045 116.797 30.4813C117.177 30.8581 117.39 31.3692 117.39 31.9021C117.39 32.435 117.177 32.9461 116.797 33.3229C116.417 33.6997 115.902 33.9114 115.364 33.9114Z" fill="#F2F2F2"/>
<path d="M86.2397 25.3718H72.8171C72.2797 25.3718 71.7644 25.1601 71.3844 24.7833C71.0045 24.4065 70.791 23.8954 70.791 23.3625C70.791 22.8297 71.0045 22.3186 71.3844 21.9418C71.7644 21.565 72.2797 21.3533 72.8171 21.3533H86.2397C86.7771 21.3533 87.2924 21.565 87.6724 21.9418C88.0523 22.3186 88.2658 22.8297 88.2658 23.3625C88.2658 23.8954 88.0523 24.4065 87.6724 24.7833C87.2924 25.1601 86.7771 25.3718 86.2397 25.3718Z" fill="#F2F2F2"/>
<path d="M56.5227 52.7476C55.4585 52.7476 54.4046 52.9554 53.4214 53.3593C52.4381 53.7632 51.5447 54.3552 50.7922 55.1015C50.0396 55.8479 49.4427 56.7339 49.0354 57.709C48.6281 58.6841 48.4185 59.7292 48.4185 60.7846C48.4185 61.8401 48.6281 62.8852 49.0353 63.8603C49.4426 64.8354 50.0396 65.7214 50.7921 66.4677C51.5447 67.214 52.4381 67.806 53.4213 68.2099C54.4046 68.6138 55.4584 68.8217 56.5227 68.8217H56.5227C58.6721 68.8217 60.7334 67.975 62.2533 66.4677C63.7731 64.9605 64.627 62.9162 64.627 60.7846C64.627 58.6531 63.7731 56.6088 62.2533 55.1016C60.7334 53.5943 58.6721 52.7476 56.5227 52.7476Z" fill="#F2F2F2"/>
<path d="M115.364 67.5644H72.8171C72.2797 67.5644 71.7644 67.3527 71.3844 66.9759C71.0045 66.5991 70.791 66.0881 70.791 65.5552C70.791 65.0223 71.0045 64.5112 71.3844 64.1344C71.7644 63.7576 72.2797 63.5459 72.8171 63.5459H115.364C115.902 63.5459 116.417 63.7576 116.797 64.1344C117.177 64.5112 117.39 65.0223 117.39 65.5552C117.39 66.0881 117.177 66.5991 116.797 66.9759C116.417 67.3527 115.902 67.5644 115.364 67.5644Z" fill="#F2F2F2"/>
<path d="M86.2392 59.0264H72.8166C72.2792 59.0264 71.7639 58.8147 71.384 58.4379C71.004 58.061 70.7905 57.55 70.7905 57.0171C70.7905 56.4842 71.004 55.9731 71.384 55.5963C71.7639 55.2195 72.2792 55.0078 72.8166 55.0078H86.2392C86.7766 55.0078 87.2919 55.2195 87.6719 55.5963C88.0518 55.9731 88.2653 56.4842 88.2653 57.0171C88.2653 57.55 88.0518 58.061 87.6719 58.4379C87.2919 58.8147 86.7766 59.0264 86.2392 59.0264Z" fill="#F2F2F2"/>
<path d="M56.5227 120.057C54.3734 120.057 52.312 120.903 50.7922 122.411C49.2723 123.918 48.4185 125.962 48.4185 128.094C48.4184 130.225 49.2723 132.27 50.7921 133.777C52.3119 135.284 54.3733 136.131 56.5227 136.131H56.5227C58.6721 136.131 60.7334 135.284 62.2533 133.777C63.7731 132.27 64.627 130.225 64.627 128.094C64.627 125.962 63.7731 123.918 62.2533 122.411C60.7334 120.903 58.6721 120.057 56.5227 120.057Z" fill="#F2F2F2"/>
<path d="M115.364 134.875H72.8171C72.2797 134.875 71.7644 134.664 71.3844 134.287C71.0045 133.91 70.791 133.399 70.791 132.866C70.791 132.333 71.0045 131.822 71.3844 131.445C71.7644 131.068 72.2797 130.857 72.8171 130.857H115.364C115.902 130.857 116.417 131.068 116.797 131.445C117.177 131.822 117.39 132.333 117.39 132.866C117.39 133.399 117.177 133.91 116.797 134.287C116.417 134.664 115.902 134.875 115.364 134.875Z" fill="#F2F2F2"/>
<path d="M86.2397 126.335H72.8171C72.2797 126.335 71.7644 126.124 71.3844 125.747C71.0045 125.37 70.791 124.859 70.791 124.326C70.791 123.793 71.0045 123.282 71.3844 122.905C71.7644 122.529 72.2797 122.317 72.8171 122.317H86.2397C86.7771 122.317 87.2924 122.529 87.6724 122.905C88.0523 123.282 88.2658 123.793 88.2658 124.326C88.2658 124.859 88.0523 125.37 87.6724 125.747C87.2924 126.124 86.7771 126.335 86.2397 126.335Z" fill="#F2F2F2"/>
<path d="M56.5227 153.713C55.4585 153.713 54.4046 153.921 53.4214 154.324C52.4381 154.728 51.5447 155.32 50.7922 156.067C50.0396 156.813 49.4427 157.699 49.0354 158.674C48.6281 159.649 48.4185 160.694 48.4185 161.75C48.4185 162.805 48.6281 163.85 49.0353 164.825C49.4426 165.8 50.0396 166.686 50.7921 167.433C51.5447 168.179 52.4381 168.771 53.4213 169.175C54.4046 169.579 55.4584 169.787 56.5227 169.787H56.5227C58.6721 169.787 60.7334 168.94 62.2533 167.433C63.7731 165.926 64.627 163.881 64.627 161.75C64.627 159.618 63.7731 157.574 62.2533 156.067C60.7334 154.559 58.6721 153.713 56.5227 153.713Z" fill="#F2F2F2"/>
<path d="M115.364 168.531H72.8171C72.2797 168.531 71.7644 168.32 71.3844 167.943C71.0045 167.566 70.791 167.055 70.791 166.522C70.791 165.989 71.0045 165.478 71.3844 165.101C71.7644 164.724 72.2797 164.513 72.8171 164.513H115.364C115.902 164.513 116.417 164.724 116.797 165.101C117.177 165.478 117.39 165.989 117.39 166.522C117.39 167.055 117.177 167.566 116.797 167.943C116.417 168.32 115.902 168.531 115.364 168.531Z" fill="#F2F2F2"/>
<path d="M86.2397 159.99H72.8171C72.2797 159.99 71.7644 159.779 71.3844 159.402C71.0045 159.025 70.791 158.514 70.791 157.981C70.791 157.448 71.0045 156.937 71.3844 156.56C71.7644 156.184 72.2797 155.972 72.8171 155.972H86.2397C86.7771 155.972 87.2924 156.184 87.6724 156.56C88.0523 156.937 88.2658 157.448 88.2658 157.981C88.2658 158.514 88.0523 159.025 87.6724 159.402C87.2924 159.779 86.7771 159.99 86.2397 159.99Z" fill="#F2F2F2"/>
<path d="M131.783 113.778H34.0259C32.918 113.777 31.8559 113.34 31.0725 112.563C30.2891 111.786 29.8484 110.733 29.8472 109.634V78.4906C29.8484 77.3918 30.2891 76.3385 31.0725 75.5616C31.8559 74.7847 32.918 74.3477 34.0259 74.3464H131.783C132.891 74.3477 133.953 74.7847 134.737 75.5616C135.52 76.3385 135.961 77.3918 135.962 78.4906V109.634C135.961 110.733 135.52 111.786 134.737 112.563C133.953 113.34 132.891 113.777 131.783 113.778Z" fill="white"/>
<ellipse cx="8.08655" cy="8.03543" rx="8.08655" ry="8.03543" transform="matrix(1.00041 0 -0.00116196 0.999591 48.7666 86.3601)" fill="#FFBE55"/>
<path d="M56.0915 98.6203C54.8312 98.5093 53.5772 97.591 53.5777 97.1103C53.5782 96.6403 53.9629 96.4178 54.3408 96.1332C54.7187 95.8487 56.442 97.576 57.4733 97.2286C58.5047 96.8811 57.885 95.9594 56.9578 95.3598C55.8655 94.6534 55.0772 94.1278 54.3443 93.0022C53.949 92.447 53.3178 90.8868 54.6274 90.194C55.037 89.9773 55.1926 89.8402 56.3989 89.8768L56.4252 89.056C56.7044 88.7393 57.8683 88.7543 58.1907 89.1096L58.1644 89.9304C58.9046 90.1082 60.6683 90.6041 60.8414 91.1369C61.0479 91.3564 61.2025 91.9941 60.8399 92.4317C60.2384 93.1576 56.1033 90.7293 56.4292 92.4317C56.6963 93.8268 61.6031 95.2672 60.2112 97.399C59.9172 98.1171 58.667 98.7333 57.8842 98.6748L57.8585 99.4758C57.468 99.9325 56.3313 99.8639 56.0905 99.5007L56.0915 98.6203Z" fill="white"/>
<path d="M115.363 100.844H72.8161C72.2788 100.844 71.7634 100.632 71.3835 100.255C71.0035 99.8784 70.79 99.3674 70.79 98.8345C70.79 98.3016 71.0035 97.7905 71.3835 97.4137C71.7634 97.0369 72.2788 96.8252 72.8161 96.8252H115.363C115.901 96.8252 116.416 97.0369 116.796 97.4137C117.176 97.7905 117.389 98.3016 117.389 98.8345C117.389 99.3674 117.176 99.8784 116.796 100.255C116.416 100.632 115.901 100.844 115.363 100.844Z" fill="#00C26F"/>
<path d="M86.2388 92.3035H72.8161C72.2788 92.3035 71.7634 92.0918 71.3835 91.715C71.0035 91.3381 70.79 90.8271 70.79 90.2942C70.79 89.7613 71.0035 89.2502 71.3835 88.8734C71.7634 88.4966 72.2788 88.2849 72.8161 88.2849H86.2388C86.7761 88.2849 87.2914 88.4966 87.6714 88.8734C88.0514 89.2502 88.2648 89.7613 88.2648 90.2942C88.2648 90.8271 88.0514 91.3381 87.6714 91.715C87.2914 92.0918 86.7761 92.3035 86.2388 92.3035Z" fill="#00C26F"/>
<rect x="30.2074" y="74.2853" width="105.393" height="39.3635" stroke="#2C3131" stroke-width="0.721525"/>
<ellipse cx="8.08655" cy="8.03543" rx="8.08655" ry="8.03543" transform="matrix(1.00041 0 -0.00116196 0.999591 48.7661 85.5579)" fill="#FFBE55"/>
<path d="M56.0905 97.8181C54.8302 97.7071 53.5762 96.7887 53.5767 96.3081C53.5773 95.838 53.9619 95.6155 54.3398 95.331C54.7178 95.0465 56.441 96.7738 57.4724 96.4263C58.5037 96.0789 57.884 95.1571 56.9569 94.5575C55.8645 93.8511 55.0762 93.3256 54.3433 92.1999C53.948 91.6448 53.3168 90.0846 54.6264 89.3917C55.036 89.1751 55.1916 89.038 56.3979 89.0746L56.4242 88.2537C56.7034 87.9371 57.8674 87.952 58.1897 88.3073L58.1634 89.1282C58.9036 89.3059 60.6673 89.8019 60.8404 90.3346C61.047 90.5541 61.2016 91.1919 60.839 91.6294C60.2374 92.3554 56.1024 89.9271 56.4282 91.6294C56.6953 93.0246 61.6021 94.465 60.2102 96.5967C59.9162 97.3148 58.666 97.931 57.8832 97.8725L57.8575 98.6736C57.4671 99.1302 56.3303 99.0616 56.0896 98.6985L56.0905 97.8181Z" fill="white"/>
<path d="M153.073 46.2867L142.01 37.8491L133.55 48.8811L144.612 57.3187L153.073 46.2867Z" fill="#00C26F"/>
</svg>
