<svg width="229" height="144" viewBox="0 0 229 144" fill="none" xmlns="http://www.w3.org/2000/svg">
<path d="M96.6779 20.5018C98.5338 20.5003 100.364 20.9323 102.023 21.7632C103.681 22.594 105.122 23.8007 106.228 25.2865L113.087 16.3423L92.5073 0.644043L76.7671 21.1693L85.6371 27.9352C86.5247 25.7396 88.0501 23.8588 90.0175 22.5343C91.9848 21.2097 94.3042 20.5019 96.6779 20.5018Z" fill="#00C26F"/>
<path d="M193.147 96.8439H226.896C228.307 102.192 228.469 107.792 227.369 113.212C226.269 118.633 223.938 123.729 220.553 128.11C217.169 132.491 212.822 136.039 207.847 138.481C202.872 140.923 197.402 142.195 191.857 142.198C190.867 142.198 189.888 142.158 188.919 142.079V122.236C188.919 121.284 188.686 120.347 188.237 119.507C187.789 118.667 187.141 117.95 186.349 117.419C185.558 116.888 184.647 116.56 183.698 116.463C182.749 116.366 181.791 116.504 180.908 116.864V109.055C180.907 107.452 181.223 105.864 181.838 104.382C182.453 102.901 183.354 101.555 184.491 100.421C185.628 99.2867 186.977 98.3872 188.462 97.7735C189.947 97.1598 191.539 96.8439 193.147 96.8439Z" fill="#00C26F"/>
<path d="M21.5262 108.359L9.77979 99.3987L0.795779 111.114L12.5422 120.074L21.5262 108.359Z" fill="#00C26F"/>
<path d="M28.6344 131.832L18.059 52.7621L172.95 28.5952L183.525 107.665L28.6344 131.832Z" fill="#F1F1F1" stroke="#111111" stroke-width="0.647353"/>
<path d="M169.694 35.7543L23.0581 58.6333L31.9531 125.139L178.589 102.26L169.694 35.7543Z" fill="white"/>
<path d="M18.2455 54.6623L17.3769 48.1674L172.268 24.0004L173.136 30.4953L18.2455 54.6623Z" fill="#E5E5E5" stroke="#111111" stroke-width="0.647353"/>
<path d="M22.4861 52.6627C23.1695 52.6627 23.7236 52.0643 23.7236 51.3262C23.7236 50.5881 23.1695 49.9897 22.4861 49.9897C21.8026 49.9897 21.2485 50.5881 21.2485 51.3262C21.2485 52.0643 21.8026 52.6627 22.4861 52.6627Z" fill="white"/>
<path d="M27.1345 51.9385C27.818 51.9385 28.372 51.3402 28.372 50.6021C28.372 49.864 27.818 49.2656 27.1345 49.2656C26.451 49.2656 25.897 49.864 25.897 50.6021C25.897 51.3402 26.451 51.9385 27.1345 51.9385Z" fill="white"/>
<path d="M31.7824 51.213C32.4659 51.213 33.02 50.6146 33.02 49.8765C33.02 49.1384 32.4659 48.54 31.7824 48.54C31.099 48.54 30.5449 49.1384 30.5449 49.8765C30.5449 50.6146 31.099 51.213 31.7824 51.213Z" fill="white"/>
<path d="M52.1332 142.738V62.8461H208.631V142.738H52.1332Z" fill="#E6E6E6" stroke="#111111" stroke-width="0.647353"/>
<path d="M52.0905 64.7338V58.218H208.541V64.7338H52.0905Z" fill="#E5E5E5" stroke="#111111" stroke-width="0.694704"/>
<path d="M56.7038 63.4463C57.3873 63.4463 57.9414 62.848 57.9414 62.1099C57.9414 61.3718 57.3873 60.7734 56.7038 60.7734C56.0204 60.7734 55.4663 61.3718 55.4663 62.1099C55.4663 62.848 56.0204 63.4463 56.7038 63.4463Z" fill="white"/>
<path d="M61.4001 63.4463C62.0836 63.4463 62.6377 62.848 62.6377 62.1099C62.6377 61.3718 62.0836 60.7734 61.4001 60.7734C60.7167 60.7734 60.1626 61.3718 60.1626 62.1099C60.1626 62.848 60.7167 63.4463 61.4001 63.4463Z" fill="white"/>
<path d="M66.0969 63.4468C66.7804 63.4468 67.3344 62.8485 67.3344 62.1104C67.3344 61.3723 66.7804 60.7739 66.0969 60.7739C65.4134 60.7739 64.8594 61.3723 64.8594 62.1104C64.8594 62.8485 65.4134 63.4468 66.0969 63.4468Z" fill="white"/>
<path d="M56.6264 136.303V69.7534H204.137V136.303H56.6264Z" fill="white" stroke="#111111" stroke-width="0.647353"/>
<ellipse cx="172.553" cy="96.6707" rx="8.10994" ry="8.13605" fill="#00C26F"/>
<path d="M185.389 117.559C185.389 116.034 185.059 114.524 184.417 113.116C183.775 111.707 182.835 110.428 181.649 109.35C180.463 108.272 179.055 107.416 177.505 106.833C175.955 106.25 174.295 105.949 172.617 105.949C170.94 105.949 169.279 106.25 167.73 106.833C166.18 107.416 164.772 108.272 163.586 109.35C162.4 110.428 161.459 111.707 160.817 113.116C160.176 114.524 159.845 116.034 159.845 117.559L172.617 117.559H185.389Z" fill="#00C26F"/>
<path d="M96.5322 118.021H75.666V119.715H96.5322V118.021Z" fill="#E6E6E6"/>
<path d="M99.1347 122.423H72.8745V124.117H99.1347V122.423Z" fill="#E6E6E6"/>
<path d="M95.8237 92.291H75.1699V108.331H95.8237V92.291Z" fill="#00C26F"/>
<path d="M97.8891 107.072H78.0615C77.8425 107.072 77.6325 106.975 77.4776 106.803C77.3227 106.631 77.2356 106.398 77.2354 106.155V91.0318C77.2356 90.7888 77.3227 90.5558 77.4776 90.384C77.6325 90.2121 77.8425 90.1155 78.0615 90.1152H97.8891C98.1081 90.1155 98.3181 90.2121 98.473 90.384C98.6279 90.5558 98.715 90.7888 98.7152 91.0318V106.155C98.715 106.398 98.6279 106.631 98.473 106.803C98.3181 106.975 98.1081 107.072 97.8891 107.072ZM78.0615 91.0318V106.155H97.8897L97.8891 91.0318H78.0615Z" fill="#3F3D56"/>
<path d="M95.6168 90.4588H94.7906C94.7906 88.4533 94.0725 86.5299 92.7943 85.1118C91.5161 83.6937 89.7825 82.897 87.9749 82.897C86.1672 82.897 84.4336 83.6937 83.1554 85.1118C81.8772 86.5299 81.1592 88.4533 81.1592 90.4588H80.333C80.333 88.2102 81.1381 86.0537 82.5713 84.4637C84.0044 82.8737 85.9481 81.9805 87.9749 81.9805C90.0016 81.9805 91.9454 82.8737 93.3785 84.4637C94.8116 86.0537 95.6168 88.2102 95.6168 90.4588Z" fill="#3F3D56"/>
<path d="M90.041 96.7595C90.0415 96.3604 89.9479 95.9682 89.7697 95.6216C89.5915 95.275 89.3348 94.986 89.025 94.7832C88.7152 94.5805 88.3631 94.471 88.0034 94.4655C87.6437 94.4601 87.289 94.559 86.9744 94.7524C86.6597 94.9457 86.396 95.2269 86.2094 95.568C86.0228 95.9091 85.9197 96.2984 85.9104 96.6973C85.901 97.0962 85.9857 97.4908 86.1561 97.8423C86.3265 98.1937 86.5767 98.4897 86.8818 98.7009V101.16C86.8818 101.32 86.9101 101.477 86.9651 101.625C87.02 101.772 87.1006 101.906 87.2021 102.018C87.3037 102.131 87.4242 102.22 87.5569 102.281C87.6896 102.342 87.8318 102.373 87.9754 102.373C88.2654 102.373 88.5436 102.246 88.7487 102.018C88.9538 101.791 89.069 101.482 89.069 101.16V98.7009C89.3663 98.4955 89.6116 98.2095 89.7816 97.8698C89.9517 97.5301 90.041 97.148 90.041 96.7595Z" fill="#3F3D56"/>
</svg>
