<svg width="141" height="162" viewBox="0 0 141 162" fill="none" xmlns="http://www.w3.org/2000/svg">
<path d="M132.481 54.4009H8.03662V160.887H132.481V54.4009Z" fill="white"/>
<path d="M132.842 161.251H7.6748V54.0376H132.842V161.251ZM8.39832 160.524H132.119V54.7645H8.39832V160.524Z" fill="#2C3131"/>
<path d="M85.8132 75.1162H54.7021V160.887H85.8132V75.1162Z" fill="#699CFF"/>
<path d="M85.8132 75.1162H54.7021V160.887H85.8132V75.1162Z" fill="#00C26F"/>
<path d="M139.716 44.5876H0.80127V75.1162H139.716V44.5876Z" fill="white"/>
<path d="M140.077 75.4803H0.439453V44.2249H140.077V75.4803ZM1.16297 74.7534H139.354V44.9517H1.16297V74.7534Z" fill="#2C3131"/>
<path d="M85.8132 41.6814H54.7021V74.754H85.8132V41.6814Z" fill="#00C26F"/>
<path d="M66.9277 12.8448C75.1401 25.075 67.4025 44.7455 67.4025 44.7455C67.4025 44.7455 46.35 44.5869 38.1376 32.3567C29.9252 20.1266 37.6628 0.456055 37.6628 0.456055C37.6628 0.456055 58.7153 0.614625 66.9277 12.8448Z" fill="#00C26F"/>
<path d="M70.6947 12.8448C62.4823 25.075 70.2199 44.7455 70.2199 44.7455C70.2199 44.7455 91.2725 44.5869 99.4848 32.3567C107.697 20.1266 99.9596 0.456055 99.9596 0.456055C99.9596 0.456055 78.9071 0.614625 70.6947 12.8448Z" fill="#00C26F"/>
<ellipse cx="25.1197" cy="25.2862" rx="25.1197" ry="25.2862" transform="matrix(1.00041 0 -0.0011555 0.999591 45.521 84.5991)" fill="#FFBE55"/>
<path d="M68.2742 123.177C64.3591 122.828 60.4637 119.938 60.4654 118.426C60.467 116.946 61.6618 116.246 62.8358 115.351C64.0098 114.456 69.3629 119.891 72.5666 118.798C75.7703 117.704 73.8452 114.804 70.9652 112.917C67.572 110.694 65.1234 109.04 62.8467 105.498C61.6187 103.751 59.658 98.8413 63.7261 96.661C64.9983 95.9792 65.4817 95.5478 69.229 95.663L69.3107 93.0799C70.178 92.0836 73.7936 92.1306 74.7948 93.2486L74.7131 95.8317C77.0126 96.391 82.4911 97.9516 83.0289 99.6281C83.6705 100.319 84.1508 102.326 83.0244 103.703C81.1557 105.987 68.3108 98.3458 69.3231 103.703C70.1528 108.093 85.395 112.626 81.0713 119.334C80.1579 121.594 76.2744 123.533 73.8427 123.349L73.763 125.869C72.5501 127.306 69.0189 127.091 68.2711 125.948L68.2742 123.177Z" fill="white"/>
</svg>
