<svg width="150" height="150" viewBox="0 0 150 150" fill="none" xmlns="http://www.w3.org/2000/svg">
<g clip-path="url(#clip0_227_10262)">
<path fill-rule="evenodd" clip-rule="evenodd" d="M74.7065 0C89.5401 0 104.041 4.39867 116.374 12.6398C128.708 20.8809 138.321 32.5943 143.997 46.2987C149.674 60.0032 151.159 75.0832 148.265 89.6318C145.372 104.18 138.228 117.544 127.74 128.033C117.251 138.522 103.887 145.665 89.3383 148.559C74.7897 151.453 59.7097 149.968 46.0053 144.291C32.3008 138.614 20.5874 129.001 12.3463 116.668C4.10522 104.334 -0.293457 89.8336 -0.293457 75C-0.293457 55.1088 7.60831 36.0322 21.6735 21.967C35.7388 7.90176 54.8153 0 74.7065 0V0Z" fill="white"/>
<path fill-rule="evenodd" clip-rule="evenodd" d="M74.7068 16.1045L94.4386 45.5863L114.17 75.075L74.7068 94.9568L35.2432 75L54.975 45.5113L74.7068 16.1045ZM74.7068 102.9L37.4318 83.0113L74.7068 133.895L111.982 83.0113L74.7068 102.9Z" fill="#343434"/>
<path fill-rule="evenodd" clip-rule="evenodd" d="M74.7065 16.1045L94.4384 45.5113L114.17 74.9999L74.7065 60.1022V16.1045Z" fill="#343434"/>
<path fill-rule="evenodd" clip-rule="evenodd" d="M74.7065 102.9L112.057 83.0117L74.7065 133.971V102.9Z" fill="#313131"/>
<path fill-rule="evenodd" clip-rule="evenodd" d="M74.7065 60.1025L114.17 75.0003L74.7065 94.8821V60.1025Z" fill="#151515"/>
<path fill-rule="evenodd" clip-rule="evenodd" d="M74.7068 16.1045L54.975 45.5113L35.2432 74.9999L74.7068 60.1022V16.1045Z" fill="#8C8C8C"/>
<path fill-rule="evenodd" clip-rule="evenodd" d="M74.7066 102.9L37.4316 83.0117L74.7066 133.971V102.9Z" fill="#8A8A8A"/>
<path fill-rule="evenodd" clip-rule="evenodd" d="M74.7068 60.1025L35.2432 75.0003L74.7068 94.8821V60.1025Z" fill="#353535"/>
</g>
<defs>
<clipPath id="clip0_227_10262">
<rect width="150" height="150" fill="white"/>
</clipPath>
</defs>
</svg>
