<svg width="231" height="230" viewBox="0 0 231 230" fill="none" xmlns="http://www.w3.org/2000/svg">
<path d="M177.481 88.4009H53.0366V194.887H177.481V88.4009Z" fill="white"/>
<path d="M177.842 195.251H52.6748V88.0376H177.842V195.251ZM53.3983 194.524H177.119V88.7645H53.3983V194.524Z" fill="#2C3131"/>
<path d="M130.813 109.116H99.7021V194.887H130.813V109.116Z" fill="#699CFF"/>
<path d="M130.813 109.116H99.7021V194.887H130.813V109.116Z" fill="#00C26F"/>
<path d="M184.716 78.5876H45.8013V109.116H184.716V78.5876Z" fill="white"/>
<path d="M185.077 109.48H45.4395V78.2249H185.077V109.48ZM46.163 108.753H184.354V78.9517H46.163V108.753Z" fill="#2C3131"/>
<path d="M130.813 75.6814H99.7021V108.754H130.813V75.6814Z" fill="#00C26F"/>
<path d="M111.928 46.8448C120.14 59.075 112.402 78.7455 112.402 78.7455C112.402 78.7455 91.35 78.5869 83.1376 66.3567C74.9252 54.1266 82.6628 34.4561 82.6628 34.4561C82.6628 34.4561 103.715 34.6146 111.928 46.8448Z" fill="#00C26F"/>
<path d="M115.695 46.8448C107.482 59.075 115.22 78.7455 115.22 78.7455C115.22 78.7455 136.272 78.5869 144.485 66.3567C152.697 54.1266 144.96 34.4561 144.96 34.4561C144.96 34.4561 123.907 34.6146 115.695 46.8448Z" fill="#00C26F"/>
<ellipse cx="25.1197" cy="25.2862" rx="25.1197" ry="25.2862" transform="matrix(1.00041 0 -0.0011555 0.999591 90.521 118.599)" fill="#FFBE55"/>
<path d="M113.274 157.177C109.359 156.828 105.464 153.938 105.465 152.426C105.467 150.946 106.662 150.246 107.836 149.351C109.01 148.456 114.363 153.891 117.567 152.798C120.77 151.704 118.845 148.804 115.965 146.917C112.572 144.694 110.123 143.04 107.847 139.498C106.619 137.751 104.658 132.841 108.726 130.661C109.998 129.979 110.482 129.548 114.229 129.663L114.311 127.08C115.178 126.084 118.794 126.131 119.795 127.249L119.713 129.832C122.013 130.391 127.491 131.952 128.029 133.628C128.671 134.319 129.151 136.326 128.024 137.703C126.156 139.987 113.311 132.346 114.323 137.703C115.153 142.093 130.395 146.626 126.071 153.334C125.158 155.594 121.274 157.533 118.843 157.349L118.763 159.869C117.55 161.306 114.019 161.091 113.271 159.948L113.274 157.177Z" fill="white"/>
</svg>
