<svg width="32" height="32" viewBox="0 0 32 32" fill="none" xmlns="http://www.w3.org/2000/svg">
<path d="M15.9999 32C24.8365 32 31.9999 24.8366 31.9999 16C31.9999 7.16344 24.8365 0 15.9999 0C7.16338 0 -6.10352e-05 7.16344 -6.10352e-05 16C-6.10352e-05 24.8366 7.16338 32 15.9999 32Z" fill="white"/>
<path d="M15.0739 22.4369C11.93 21.9765 9.51716 19.2662 9.51716 15.9912C9.51716 12.7162 11.93 10.0059 15.0739 9.54567V6.15381C10.0684 6.63257 6.15387 10.8541 6.15387 15.9912C6.15387 21.1283 10.0684 25.3495 15.0739 25.8285V22.4369Z" fill="#1FA747"/>
<path d="M21.5986 9.6001L21.5112 9.89697V18.5115L21.5986 18.5987L25.5974 16.235L21.5986 9.6001Z" fill="#1FA747"/>
<path d="M21.5987 9.6001L17.5999 16.235L21.5987 18.5987V14.4175V9.6001Z" fill="#1FA747"/>
<path d="M21.5989 19.8996L21.5497 19.9596V23.0283L21.5989 23.172L25.6001 17.5371L21.5989 19.8996Z" fill="#1FA747"/>
<path d="M21.5987 23.1721V19.8996L17.5999 17.5371L21.5987 23.1721Z" fill="#1FA747"/>
<path d="M21.5987 18.5987L25.5974 16.235L21.5987 14.4175V18.5987Z" fill="#1FA747"/>
<path d="M17.5999 16.235L21.5986 18.5987V14.4175L17.5999 16.235Z" fill="#1FA747"/>
</svg>
