<svg width="32" height="32" viewBox="0 0 32 32" fill="none" xmlns="http://www.w3.org/2000/svg">
<path d="M16 31.9999C24.8366 31.9999 32 24.8365 32 15.9999C32 7.16337 24.8366 -7.62939e-05 16 -7.62939e-05C7.16344 -7.62939e-05 0 7.16337 0 15.9999C0 24.8365 7.16344 31.9999 16 31.9999Z" fill="#1FA747"/>
<path d="M15.0738 22.4368C11.9299 21.9764 9.5171 19.266 9.5171 15.9911C9.5171 12.7161 11.9299 10.0058 15.0738 9.54555V6.15369C10.0684 6.63246 6.15381 10.854 6.15381 15.9911C6.15381 21.1281 10.0684 25.3494 15.0738 25.8284V22.4368Z" fill="white"/>
<path d="M21.5986 9.59993L21.5112 9.8968V18.5114L21.5986 18.5985L25.5974 16.2349L21.5986 9.59993Z" fill="white"/>
<path d="M21.5989 9.59995L17.6001 16.2349L21.5989 18.5986V14.4173V9.59995Z" fill="white"/>
<path d="M21.599 19.8994L21.5498 19.9594V23.0281L21.599 23.1718L25.6002 17.5369L21.599 19.8994Z" fill="white"/>
<path d="M21.5989 23.1718V19.8994L17.6001 17.5369L21.5989 23.1718Z" fill="white"/>
<path d="M21.5991 18.5985L25.5978 16.2348L21.5991 14.4173V18.5985Z" fill="white"/>
<path d="M17.6001 16.2348L21.5988 18.5985V14.4173L17.6001 16.2348Z" fill="white"/>
</svg>
