<svg width="134" height="108" viewBox="0 0 134 108" fill="none" xmlns="http://www.w3.org/2000/svg">
<g clip-path="url(#clip0_227_10263)">
<path d="M67 134C104.003 134 134 104.003 134 67C134 29.9969 104.003 0 67 0C29.9969 0 0 29.9969 0 67C0 104.003 29.9969 134 67 134Z" fill="#172852"/>
<path d="M53.969 29.9426C61.8147 27.008 70.6453 27.0013 78.6384 29.4133C89.0435 32.6427 97.8272 40.4951 102.417 50.3509C103.683 53.1582 104.896 56.0861 105.016 59.2083C99.1672 55.8181 92.7553 53.6205 86.33 51.6172C76.0522 47.9121 65.292 45.3393 55.5636 40.2472C53.299 38.8938 50.4113 37.5069 49.7949 34.6862C49.547 32.2474 52.1265 30.8873 53.969 29.9426Z" fill="#FFD83D"/>
<path d="M30.2843 53.6611C32.5556 47.4971 36.2808 41.7753 41.3393 37.5342C42.6257 48.1135 47.1281 58.3377 54.5651 66.0293C63.4828 75.2954 76.186 80.9837 89.1103 80.7693C94.2425 80.9301 99.2608 79.7442 104.266 78.7861C99.3412 96.5813 79.8375 108.393 61.7676 105.553C50.86 104.159 40.7899 97.7002 34.713 88.5815C27.8589 78.5047 26.1303 65.1248 30.2843 53.6611Z" fill="#FFD83D"/>
<path d="M86.3296 51.6172C92.7549 53.6205 99.1668 55.8181 105.016 59.2083L105.411 59.416C105.954 63.4963 106.349 67.657 105.626 71.744C102.684 70.4978 100.299 68.3069 97.8067 66.3706C93.0095 62.3774 88.1118 57.808 86.3296 51.6172Z" fill="#FF6F03"/>
</g>
<defs>
<clipPath id="clip0_227_10263">
<rect width="134" height="134" fill="white"/>
</clipPath>
</defs>
</svg>
