<svg width="231" height="230" viewBox="0 0 231 230" fill="none" xmlns="http://www.w3.org/2000/svg">
<path d="M176.406 187.792C171.931 192.571 166.803 196.696 161.173 200.048C161.044 200.127 160.913 200.201 160.781 200.278L151.667 192.234C151.763 192.146 151.869 192.046 151.983 191.937C158.774 185.506 192.485 140.547 194.731 129.598C194.576 130.51 196.758 166.28 176.406 187.792Z" fill="#00C26F"/>
<path d="M162.932 201.599C162.759 201.64 162.584 201.679 162.408 201.714L155.571 195.679C155.704 195.632 155.861 195.577 156.039 195.516C158.973 194.48 167.71 191.353 176.405 187.791C185.748 183.962 195.046 179.636 197.046 176.865C196.617 177.509 183.403 197.034 162.932 201.599Z" fill="#00C26F"/>
<path d="M77.9299 58.5167V90.2129C72.8797 91.5379 67.592 91.6899 62.4737 90.6572C57.3553 89.6246 52.5427 87.4347 48.4061 84.2562C44.2695 81.0777 40.9192 76.9952 38.6129 72.3228C36.3067 67.6504 35.1059 62.5127 35.103 57.305C35.103 56.3754 35.1405 55.4555 35.2154 54.5453H53.9531C54.8515 54.5462 55.7363 54.3265 56.5294 53.9057C57.3226 53.4849 57.9997 52.8758 58.501 52.1323C59.0022 51.3888 59.3123 50.5337 59.4039 49.6424C59.4954 48.7512 59.3655 47.8511 59.0258 47.0217H66.3993C67.9133 47.0212 69.4126 47.3181 70.8116 47.8955C72.2105 48.473 73.4817 49.3196 74.5525 50.3871C75.6232 51.4545 76.4726 52.7219 77.0521 54.1168C77.6317 55.5117 77.9299 57.0068 77.9299 58.5167Z" fill="#00C26F"/>
<path d="M163.857 66.4079H162.844V38.8947C162.844 36.8035 162.429 34.7328 161.622 32.8008C160.815 30.8688 159.632 29.1134 158.141 27.6347C156.65 26.1561 154.88 24.9831 152.932 24.1828C150.983 23.3826 148.896 22.9707 146.787 22.9707H88.0092C83.7506 22.9707 79.6664 24.6484 76.6552 27.6347C73.6439 30.621 71.9522 34.6713 71.9521 38.8946V189.835C71.9521 194.058 73.6439 198.108 76.6551 201.095C79.6664 204.081 83.7505 205.759 88.0091 205.759H146.787C151.045 205.759 155.13 204.081 158.141 201.095C161.152 198.108 162.844 194.058 162.844 189.835V85.9924H163.857L163.857 66.4079Z" fill="#111111"/>
<path d="M159.426 39.0064V189.724C159.426 192.878 158.162 195.903 155.914 198.133C153.665 200.364 150.615 201.617 147.434 201.617H88.3745C85.1942 201.617 82.144 200.364 79.8952 198.133C77.6463 195.903 76.3829 192.878 76.3828 189.724V39.0064C76.3829 35.8524 77.6463 32.8275 79.8952 30.5973C82.1441 28.367 85.1942 27.1141 88.3745 27.114H95.5392C95.1872 27.972 95.0531 28.9026 95.1488 29.824C95.2445 30.7454 95.5671 31.6293 96.0881 32.3981C96.6091 33.1668 97.3127 33.7968 98.1368 34.2326C98.961 34.6685 99.8805 34.8967 100.815 34.8974H134.488C135.422 34.8967 136.341 34.6684 137.165 34.2326C137.99 33.7968 138.693 33.1668 139.214 32.398C139.735 31.6293 140.058 30.7453 140.153 29.824C140.249 28.9026 140.115 27.972 139.763 27.114H147.434C150.615 27.1141 153.665 28.367 155.914 30.5973C158.162 32.8275 159.426 35.8524 159.426 39.0064Z" fill="white"/>
<path d="M91.5227 41.0935C90.4585 41.0935 89.4046 41.3014 88.4214 41.7053C87.4381 42.1092 86.5447 42.7012 85.7922 43.4475C85.0396 44.1938 84.4427 45.0798 84.0354 46.0549C83.6281 47.03 83.4185 48.0751 83.4185 49.1306C83.4185 50.186 83.6281 51.2311 84.0353 52.2062C84.4426 53.1813 85.0396 54.0673 85.7921 54.8136C86.5447 55.56 87.4381 56.152 88.4213 56.5559C89.4046 56.9598 90.4584 57.1677 91.5227 57.1677H91.5227C93.6721 57.1677 95.7334 56.3209 97.2533 54.8137C98.7731 53.3064 99.627 51.2622 99.627 49.1306C99.627 46.999 98.7731 44.9548 97.2533 43.4475C95.7334 41.9403 93.6721 41.0935 91.5227 41.0935Z" fill="#F2F2F2"/>
<path d="M150.364 55.9114H107.817C107.28 55.9114 106.764 55.6997 106.384 55.3229C106.004 54.9461 105.791 54.435 105.791 53.9021C105.791 53.3692 106.004 52.8581 106.384 52.4813C106.764 52.1045 107.28 51.8928 107.817 51.8928H150.364C150.902 51.8928 151.417 52.1045 151.797 52.4813C152.177 52.8581 152.39 53.3692 152.39 53.9021C152.39 54.435 152.177 54.9461 151.797 55.3229C151.417 55.6997 150.902 55.9114 150.364 55.9114Z" fill="#F2F2F2"/>
<path d="M121.24 47.3718H107.817C107.28 47.3718 106.764 47.1601 106.384 46.7833C106.004 46.4065 105.791 45.8954 105.791 45.3625C105.791 44.8297 106.004 44.3186 106.384 43.9418C106.764 43.565 107.28 43.3533 107.817 43.3533H121.24C121.777 43.3533 122.292 43.565 122.672 43.9418C123.052 44.3186 123.266 44.8297 123.266 45.3625C123.266 45.8954 123.052 46.4065 122.672 46.7833C122.292 47.1601 121.777 47.3718 121.24 47.3718Z" fill="#F2F2F2"/>
<path d="M91.5227 74.7476C90.4585 74.7476 89.4046 74.9554 88.4214 75.3593C87.4381 75.7632 86.5447 76.3552 85.7922 77.1015C85.0396 77.8479 84.4427 78.7339 84.0354 79.709C83.6281 80.6841 83.4185 81.7292 83.4185 82.7846C83.4185 83.8401 83.6281 84.8852 84.0353 85.8603C84.4426 86.8354 85.0396 87.7214 85.7921 88.4677C86.5447 89.214 87.4381 89.806 88.4213 90.2099C89.4046 90.6138 90.4584 90.8217 91.5227 90.8217H91.5227C93.6721 90.8217 95.7334 89.975 97.2533 88.4677C98.7731 86.9605 99.627 84.9162 99.627 82.7846C99.627 80.6531 98.7731 78.6088 97.2533 77.1016C95.7334 75.5943 93.6721 74.7476 91.5227 74.7476Z" fill="#F2F2F2"/>
<path d="M150.364 89.5644H107.817C107.28 89.5644 106.764 89.3527 106.384 88.9759C106.004 88.5991 105.791 88.0881 105.791 87.5552C105.791 87.0223 106.004 86.5112 106.384 86.1344C106.764 85.7576 107.28 85.5459 107.817 85.5459H150.364C150.902 85.5459 151.417 85.7576 151.797 86.1344C152.177 86.5112 152.39 87.0223 152.39 87.5552C152.39 88.0881 152.177 88.5991 151.797 88.9759C151.417 89.3527 150.902 89.5644 150.364 89.5644Z" fill="#F2F2F2"/>
<path d="M121.239 81.0264H107.817C107.279 81.0264 106.764 80.8147 106.384 80.4379C106.004 80.061 105.791 79.55 105.791 79.0171C105.791 78.4842 106.004 77.9731 106.384 77.5963C106.764 77.2195 107.279 77.0078 107.817 77.0078H121.239C121.777 77.0078 122.292 77.2195 122.672 77.5963C123.052 77.9731 123.265 78.4842 123.265 79.0171C123.265 79.55 123.052 80.061 122.672 80.4379C122.292 80.8147 121.777 81.0264 121.239 81.0264Z" fill="#F2F2F2"/>
<path d="M91.5227 142.057C89.3734 142.057 87.312 142.903 85.7922 144.411C84.2723 145.918 83.4185 147.962 83.4185 150.094C83.4184 152.225 84.2723 154.27 85.7921 155.777C87.3119 157.284 89.3733 158.131 91.5227 158.131H91.5227C93.6721 158.131 95.7334 157.284 97.2533 155.777C98.7731 154.27 99.627 152.225 99.627 150.094C99.627 147.962 98.7731 145.918 97.2533 144.411C95.7334 142.903 93.6721 142.057 91.5227 142.057Z" fill="#F2F2F2"/>
<path d="M150.364 156.875H107.817C107.28 156.875 106.764 156.664 106.384 156.287C106.004 155.91 105.791 155.399 105.791 154.866C105.791 154.333 106.004 153.822 106.384 153.445C106.764 153.068 107.28 152.857 107.817 152.857H150.364C150.902 152.857 151.417 153.068 151.797 153.445C152.177 153.822 152.39 154.333 152.39 154.866C152.39 155.399 152.177 155.91 151.797 156.287C151.417 156.664 150.902 156.875 150.364 156.875Z" fill="#F2F2F2"/>
<path d="M121.24 148.335H107.817C107.28 148.335 106.764 148.124 106.384 147.747C106.004 147.37 105.791 146.859 105.791 146.326C105.791 145.793 106.004 145.282 106.384 144.905C106.764 144.529 107.28 144.317 107.817 144.317H121.24C121.777 144.317 122.292 144.529 122.672 144.905C123.052 145.282 123.266 145.793 123.266 146.326C123.266 146.859 123.052 147.37 122.672 147.747C122.292 148.124 121.777 148.335 121.24 148.335Z" fill="#F2F2F2"/>
<path d="M91.5227 175.713C90.4585 175.713 89.4046 175.921 88.4214 176.324C87.4381 176.728 86.5447 177.32 85.7922 178.067C85.0396 178.813 84.4427 179.699 84.0354 180.674C83.6281 181.649 83.4185 182.694 83.4185 183.75C83.4185 184.805 83.6281 185.85 84.0353 186.825C84.4426 187.8 85.0396 188.686 85.7921 189.433C86.5447 190.179 87.4381 190.771 88.4213 191.175C89.4046 191.579 90.4584 191.787 91.5227 191.787H91.5227C93.6721 191.787 95.7334 190.94 97.2533 189.433C98.7731 187.926 99.627 185.881 99.627 183.75C99.627 181.618 98.7731 179.574 97.2533 178.067C95.7334 176.559 93.6721 175.713 91.5227 175.713Z" fill="#F2F2F2"/>
<path d="M150.364 190.531H107.817C107.28 190.531 106.764 190.32 106.384 189.943C106.004 189.566 105.791 189.055 105.791 188.522C105.791 187.989 106.004 187.478 106.384 187.101C106.764 186.724 107.28 186.513 107.817 186.513H150.364C150.902 186.513 151.417 186.724 151.797 187.101C152.177 187.478 152.39 187.989 152.39 188.522C152.39 189.055 152.177 189.566 151.797 189.943C151.417 190.32 150.902 190.531 150.364 190.531Z" fill="#F2F2F2"/>
<path d="M121.24 181.99H107.817C107.28 181.99 106.764 181.779 106.384 181.402C106.004 181.025 105.791 180.514 105.791 179.981C105.791 179.448 106.004 178.937 106.384 178.56C106.764 178.184 107.28 177.972 107.817 177.972H121.24C121.777 177.972 122.292 178.184 122.672 178.56C123.052 178.937 123.266 179.448 123.266 179.981C123.266 180.514 123.052 181.025 122.672 181.402C122.292 181.779 121.777 181.99 121.24 181.99Z" fill="#F2F2F2"/>
<path d="M166.783 135.778H69.0259C67.918 135.777 66.8559 135.34 66.0725 134.563C65.2891 133.786 64.8484 132.733 64.8472 131.634V100.491C64.8484 99.3918 65.2891 98.3385 66.0725 97.5616C66.8559 96.7847 67.918 96.3477 69.0259 96.3464H166.783C167.891 96.3477 168.953 96.7847 169.737 97.5616C170.52 98.3385 170.961 99.3918 170.962 100.491V131.634C170.961 132.733 170.52 133.786 169.737 134.563C168.953 135.34 167.891 135.777 166.783 135.778Z" fill="white"/>
<ellipse cx="8.08655" cy="8.03543" rx="8.08655" ry="8.03543" transform="matrix(1.00041 0 -0.00116196 0.999591 83.7666 108.36)" fill="#FFBE55"/>
<path d="M91.0915 120.62C89.8312 120.509 88.5772 119.591 88.5777 119.11C88.5782 118.64 88.9629 118.418 89.3408 118.133C89.7187 117.849 91.442 119.576 92.4733 119.229C93.5047 118.881 92.885 117.959 91.9578 117.36C90.8655 116.653 90.0772 116.128 89.3443 115.002C88.949 114.447 88.3178 112.887 89.6274 112.194C90.037 111.977 90.1926 111.84 91.3989 111.877L91.4252 111.056C91.7044 110.739 92.8683 110.754 93.1907 111.11L93.1644 111.93C93.9046 112.108 95.6683 112.604 95.8414 113.137C96.0479 113.356 96.2025 113.994 95.8399 114.432C95.2384 115.158 91.1033 112.729 91.4292 114.432C91.6963 115.827 96.6031 117.267 95.2112 119.399C94.9172 120.117 93.667 120.733 92.8842 120.675L92.8585 121.476C92.468 121.932 91.3313 121.864 91.0905 121.501L91.0915 120.62Z" fill="white"/>
<path d="M150.363 122.844H107.816C107.279 122.844 106.763 122.632 106.383 122.255C106.004 121.878 105.79 121.367 105.79 120.834C105.79 120.302 106.004 119.791 106.383 119.414C106.763 119.037 107.279 118.825 107.816 118.825H150.363C150.901 118.825 151.416 119.037 151.796 119.414C152.176 119.791 152.389 120.302 152.389 120.834C152.389 121.367 152.176 121.878 151.796 122.255C151.416 122.632 150.901 122.844 150.363 122.844Z" fill="#00C26F"/>
<path d="M121.239 114.303H107.816C107.279 114.303 106.763 114.092 106.383 113.715C106.004 113.338 105.79 112.827 105.79 112.294C105.79 111.761 106.004 111.25 106.383 110.873C106.763 110.497 107.279 110.285 107.816 110.285H121.239C121.776 110.285 122.291 110.497 122.671 110.873C123.051 111.25 123.265 111.761 123.265 112.294C123.265 112.827 123.051 113.338 122.671 113.715C122.291 114.092 121.776 114.303 121.239 114.303Z" fill="#00C26F"/>
<rect x="65.2074" y="96.2853" width="105.393" height="39.3635" stroke="#2C3131" stroke-width="0.721525"/>
<ellipse cx="8.08655" cy="8.03543" rx="8.08655" ry="8.03543" transform="matrix(1.00041 0 -0.00116196 0.999591 83.7661 107.558)" fill="#FFBE55"/>
<path d="M91.0905 119.818C89.8302 119.707 88.5762 118.789 88.5767 118.308C88.5773 117.838 88.9619 117.616 89.3398 117.331C89.7178 117.046 91.441 118.774 92.4724 118.426C93.5037 118.079 92.884 117.157 91.9569 116.558C90.8645 115.851 90.0762 115.326 89.3433 114.2C88.948 113.645 88.3168 112.085 89.6264 111.392C90.036 111.175 90.1916 111.038 91.3979 111.075L91.4242 110.254C91.7034 109.937 92.8674 109.952 93.1897 110.307L93.1634 111.128C93.9036 111.306 95.6673 111.802 95.8404 112.335C96.047 112.554 96.2016 113.192 95.839 113.629C95.2374 114.355 91.1024 111.927 91.4282 113.629C91.6953 115.025 96.6021 116.465 95.2102 118.597C94.9162 119.315 93.666 119.931 92.8832 119.873L92.8575 120.674C92.4671 121.13 91.3303 121.062 91.0896 120.698L91.0905 119.818Z" fill="white"/>
<path d="M188.073 68.2867L177.01 59.8491L168.55 70.8811L179.612 79.3187L188.073 68.2867Z" fill="#00C26F"/>
</svg>
