<svg width="231" height="230" viewBox="0 0 231 230" fill="none" xmlns="http://www.w3.org/2000/svg">
<path d="M97.6779 63.5018C99.5338 63.5003 101.364 63.9323 103.023 64.7632C104.681 65.594 106.122 66.8007 107.228 68.2865L114.087 59.3423L93.5073 43.644L77.7671 64.1693L86.6371 70.9352C87.5247 68.7396 89.0501 66.8588 91.0175 65.5343C92.9848 64.2097 95.3042 63.5019 97.6779 63.5018Z" fill="#00C26F"/>
<path d="M194.147 139.844H227.896C229.307 145.192 229.469 150.792 228.369 156.212C227.269 161.633 224.938 166.729 221.553 171.11C218.169 175.491 213.822 179.039 208.847 181.481C203.872 183.923 198.402 185.195 192.857 185.198C191.867 185.198 190.888 185.158 189.919 185.079V165.236C189.919 164.284 189.686 163.347 189.237 162.507C188.789 161.667 188.141 160.95 187.349 160.419C186.558 159.888 185.647 159.56 184.698 159.463C183.749 159.366 182.791 159.504 181.908 159.864V152.055C181.907 150.452 182.223 148.864 182.838 147.382C183.453 145.901 184.354 144.555 185.491 143.421C186.628 142.287 187.977 141.387 189.462 140.773C190.947 140.16 192.539 139.844 194.147 139.844Z" fill="#00C26F"/>
<path d="M22.5262 151.359L10.7798 142.399L1.79578 154.114L13.5422 163.074L22.5262 151.359Z" fill="#00C26F"/>
<path d="M29.6344 174.832L19.059 95.7621L173.95 71.5952L184.525 150.665L29.6344 174.832Z" fill="#F1F1F1" stroke="#111111" stroke-width="0.647353"/>
<path d="M170.694 78.7543L24.0581 101.633L32.9531 168.139L179.589 145.26L170.694 78.7543Z" fill="white"/>
<path d="M19.2455 97.6623L18.3769 91.1674L173.268 67.0004L174.136 73.4953L19.2455 97.6623Z" fill="#E5E5E5" stroke="#111111" stroke-width="0.647353"/>
<path d="M23.4861 95.6627C24.1695 95.6627 24.7236 95.0643 24.7236 94.3262C24.7236 93.5881 24.1695 92.9897 23.4861 92.9897C22.8026 92.9897 22.2485 93.5881 22.2485 94.3262C22.2485 95.0643 22.8026 95.6627 23.4861 95.6627Z" fill="white"/>
<path d="M28.1345 94.9385C28.818 94.9385 29.372 94.3402 29.372 93.6021C29.372 92.864 28.818 92.2656 28.1345 92.2656C27.451 92.2656 26.897 92.864 26.897 93.6021C26.897 94.3402 27.451 94.9385 28.1345 94.9385Z" fill="white"/>
<path d="M32.7824 94.213C33.4659 94.213 34.02 93.6146 34.02 92.8765C34.02 92.1384 33.4659 91.54 32.7824 91.54C32.099 91.54 31.5449 92.1384 31.5449 92.8765C31.5449 93.6146 32.099 94.213 32.7824 94.213Z" fill="white"/>
<path d="M53.1332 185.738V105.846H209.631V185.738H53.1332Z" fill="#E6E6E6" stroke="#111111" stroke-width="0.647353"/>
<path d="M53.0905 107.734V101.218H209.541V107.734H53.0905Z" fill="#E5E5E5" stroke="#111111" stroke-width="0.694704"/>
<path d="M57.7038 106.446C58.3873 106.446 58.9414 105.848 58.9414 105.11C58.9414 104.372 58.3873 103.773 57.7038 103.773C57.0204 103.773 56.4663 104.372 56.4663 105.11C56.4663 105.848 57.0204 106.446 57.7038 106.446Z" fill="white"/>
<path d="M62.4001 106.446C63.0836 106.446 63.6377 105.848 63.6377 105.11C63.6377 104.372 63.0836 103.773 62.4001 103.773C61.7167 103.773 61.1626 104.372 61.1626 105.11C61.1626 105.848 61.7167 106.446 62.4001 106.446Z" fill="white"/>
<path d="M67.0969 106.447C67.7804 106.447 68.3344 105.848 68.3344 105.11C68.3344 104.372 67.7804 103.774 67.0969 103.774C66.4134 103.774 65.8594 104.372 65.8594 105.11C65.8594 105.848 66.4134 106.447 67.0969 106.447Z" fill="white"/>
<path d="M57.6264 179.303V112.753H205.137V179.303H57.6264Z" fill="white" stroke="#111111" stroke-width="0.647353"/>
<ellipse cx="173.553" cy="139.671" rx="8.10994" ry="8.13605" fill="#00C26F"/>
<path d="M186.389 160.559C186.389 159.034 186.059 157.524 185.417 156.116C184.775 154.707 183.835 153.428 182.649 152.35C181.463 151.272 180.055 150.416 178.505 149.833C176.955 149.25 175.295 148.949 173.617 148.949C171.94 148.949 170.279 149.25 168.73 149.833C167.18 150.416 165.772 151.272 164.586 152.35C163.4 153.428 162.459 154.707 161.817 156.116C161.176 157.524 160.845 159.034 160.845 160.559L173.617 160.559H186.389Z" fill="#00C26F"/>
<path d="M97.5322 161.021H76.666V162.715H97.5322V161.021Z" fill="#E6E6E6"/>
<path d="M100.135 165.423H73.8745V167.117H100.135V165.423Z" fill="#E6E6E6"/>
<path d="M96.8237 135.291H76.1699V151.331H96.8237V135.291Z" fill="#00C26F"/>
<path d="M98.8891 150.072H79.0615C78.8425 150.072 78.6325 149.975 78.4776 149.803C78.3227 149.631 78.2356 149.398 78.2354 149.155V134.032C78.2356 133.789 78.3227 133.556 78.4776 133.384C78.6325 133.212 78.8425 133.115 79.0615 133.115H98.8891C99.1081 133.115 99.3181 133.212 99.473 133.384C99.6279 133.556 99.715 133.789 99.7152 134.032V149.155C99.715 149.398 99.6279 149.631 99.473 149.803C99.3181 149.975 99.1081 150.072 98.8891 150.072ZM79.0615 134.032V149.155H98.8897L98.8891 134.032H79.0615Z" fill="#3F3D56"/>
<path d="M96.6168 133.459H95.7906C95.7906 131.453 95.0725 129.53 93.7943 128.112C92.5161 126.694 90.7825 125.897 88.9749 125.897C87.1672 125.897 85.4336 126.694 84.1554 128.112C82.8772 129.53 82.1592 131.453 82.1592 133.459H81.333C81.333 131.21 82.1381 129.054 83.5713 127.464C85.0044 125.874 86.9481 124.98 88.9749 124.98C91.0016 124.98 92.9454 125.874 94.3785 127.464C95.8116 129.054 96.6168 131.21 96.6168 133.459Z" fill="#3F3D56"/>
<path d="M91.041 139.759C91.0415 139.36 90.9479 138.968 90.7697 138.622C90.5915 138.275 90.3348 137.986 90.025 137.783C89.7152 137.58 89.3631 137.471 89.0034 137.466C88.6437 137.46 88.289 137.559 87.9744 137.752C87.6597 137.946 87.396 138.227 87.2094 138.568C87.0228 138.909 86.9197 139.298 86.9104 139.697C86.901 140.096 86.9857 140.491 87.1561 140.842C87.3265 141.194 87.5767 141.49 87.8818 141.701V144.16C87.8818 144.32 87.9101 144.477 87.9651 144.625C88.02 144.772 88.1006 144.906 88.2021 145.018C88.3037 145.131 88.4242 145.22 88.5569 145.281C88.6896 145.342 88.8318 145.373 88.9754 145.373C89.2654 145.373 89.5436 145.246 89.7487 145.018C89.9538 144.791 90.069 144.482 90.069 144.16V141.701C90.3663 141.495 90.6116 141.209 90.7816 140.87C90.9517 140.53 91.041 140.148 91.041 139.759Z" fill="#3F3D56"/>
</svg>
