<svg width="501" height="374" viewBox="0 0 501 374" fill="none" xmlns="http://www.w3.org/2000/svg">
<path d="M501 328.055H0V328.305H501V328.055Z" fill="#EBEBEB"/>
<path d="M450.8 344.176H417.614V344.426H450.8V344.176Z" fill="#EBEBEB"/>
<path d="M331.882 346.902H323.175V347.153H331.882V346.902Z" fill="#EBEBEB"/>
<path d="M416.612 334.879H397.383V335.129H416.612V334.879Z" fill="#EBEBEB"/>
<path d="M95.8413 336.561H52.5649V336.811H95.8413V336.561Z" fill="#EBEBEB"/>
<path d="M111.112 336.561H104.769V336.811H111.112V336.561Z" fill="#EBEBEB"/>
<path d="M225.6 340.791H131.733V341.042H225.6V340.791Z" fill="#EBEBEB"/>
<path d="M237.474 283.366H43.9978C42.4821 283.363 41.0294 282.759 39.9586 281.686C38.8878 280.614 38.2864 279.16 38.2864 277.644V5.67132C38.2996 4.16434 38.9068 2.72341 39.9762 1.66153C41.0456 0.599655 42.4908 0.00258154 43.9978 0H237.474C238.991 0 240.447 0.602791 241.52 1.67577C242.593 2.74874 243.195 4.204 243.195 5.72142V277.644C243.195 279.162 242.593 280.617 241.52 281.69C240.447 282.763 238.991 283.366 237.474 283.366ZM43.9978 0.200401C42.5486 0.203055 41.1596 0.780623 40.1358 1.80633C39.1119 2.83204 38.5369 4.22208 38.5369 5.67132V277.644C38.5369 279.093 39.1119 280.483 40.1358 281.509C41.1596 282.535 42.5486 283.112 43.9978 283.115H237.474C238.924 283.112 240.314 282.535 241.34 281.51C242.365 280.484 242.942 279.094 242.945 277.644V5.67132C242.942 4.22116 242.365 2.83114 241.34 1.80572C240.314 0.780298 238.924 0.203049 237.474 0.200401H43.9978Z" fill="#EBEBEB"/>
<path d="M454.217 283.366H260.73C259.214 283.363 257.76 282.759 256.688 281.687C255.615 280.615 255.012 279.161 255.009 277.644V5.67132C255.025 4.16342 255.634 2.72251 256.705 1.66091C257.776 0.599305 259.222 0.00255339 260.73 0H454.217C455.722 0.0052149 457.165 0.603454 458.232 1.66505C459.299 2.72665 459.905 4.16607 459.918 5.67132V277.644C459.918 279.158 459.318 280.61 458.249 281.683C457.181 282.755 455.731 283.36 454.217 283.366ZM260.73 0.200401C259.28 0.203049 257.89 0.780298 256.865 1.80572C255.839 2.83114 255.262 4.22116 255.259 5.67132V277.644C255.262 279.094 255.839 280.484 256.865 281.51C257.89 282.535 259.28 283.112 260.73 283.115H454.217C455.667 283.112 457.057 282.535 458.082 281.51C459.108 280.484 459.685 279.094 459.688 277.644V5.67132C459.685 4.22116 459.108 2.83114 458.082 1.80572C457.057 0.780298 455.667 0.203049 454.217 0.200401H260.73Z" fill="#EBEBEB"/>
<path d="M179.498 188.064L411.652 188.064V33.6863L179.498 33.6863L179.498 188.064Z" fill="#E6E6E6"/>
<path d="M175.901 188.064L408.054 188.064V33.6863L175.901 33.6863L175.901 188.064Z" fill="#F5F5F5"/>
<path d="M401.602 180.811V40.9219L182.344 40.9219V180.811H401.602Z" fill="white"/>
<path d="M185.069 180.821V40.9316H182.354V180.821H185.069Z" fill="#E6E6E6"/>
<path d="M178.566 147.055L405.389 147.055V137.325L178.566 137.325V147.055Z" fill="#F5F5F5"/>
<g opacity="0.4">
<path d="M190.61 26.0625H168.697V156.663H190.61V26.0625Z" fill="#E6E6E6"/>
<path d="M190.62 146.172H201.482L201.482 26.0621H190.62V146.172Z" fill="#F5F5F5"/>
<path d="M223.396 26.0625H201.482V156.663H223.396V26.0625Z" fill="#E6E6E6"/>
<path d="M223.406 146.172H234.268L234.268 26.0621H223.406V146.172Z" fill="#F5F5F5"/>
<path d="M256.181 26.0625H234.268V156.663H256.181V26.0625Z" fill="#E6E6E6"/>
<path d="M256.191 146.172H267.053V26.0621H256.191V146.172Z" fill="#F5F5F5"/>
<path d="M288.967 26.0625H267.053V156.663H288.967V26.0625Z" fill="#E6E6E6"/>
<path d="M288.977 146.172H299.838V26.0621H288.977V146.172Z" fill="#F5F5F5"/>
<path d="M321.752 26.0625H299.838V156.663H321.752V26.0625Z" fill="#E6E6E6"/>
<path d="M321.752 146.172H332.614V26.0621H321.752V146.172Z" fill="#F5F5F5"/>
<path d="M354.528 26.0625H332.614V156.663H354.528V26.0625Z" fill="#E6E6E6"/>
<path d="M354.538 146.172H365.399V26.0621H354.538V146.172Z" fill="#F5F5F5"/>
<path d="M387.313 26.0625H365.399V156.663H387.313V26.0625Z" fill="#E6E6E6"/>
<path d="M387.323 146.172H398.185V26.0621H387.323V146.172Z" fill="#F5F5F5"/>
<path d="M420.099 26.0625H398.185V156.663H420.099V26.0625Z" fill="#E6E6E6"/>
</g>
<path d="M82.9556 328.055H134.348V222.444H82.9556L82.9556 328.055Z" fill="#EBEBEB"/>
<path d="M92.7151 328.054H82.9556V306.541H102.956L92.7151 328.054Z" fill="#F5F5F5"/>
<path d="M376.181 328.055H427.573V222.444H376.181V328.055Z" fill="#EBEBEB"/>
<path d="M82.9556 314.857L384.698 314.857V222.443L82.9556 222.443V314.857Z" fill="#F5F5F5"/>
<path d="M374.668 288.787H285.219C285.001 288.787 284.792 288.7 284.638 288.546C284.484 288.392 284.398 288.183 284.398 287.965V229.459C284.398 229.241 284.484 229.032 284.638 228.878C284.792 228.723 285.001 228.637 285.219 228.637H301.732C301.909 228.633 302.082 228.69 302.223 228.797C304.678 230.592 307.4 231.988 310.289 232.935C313.773 234.089 317.421 234.671 321.091 234.659H338.786C345.555 234.778 352.186 232.735 357.714 228.827C357.852 228.721 358.021 228.665 358.195 228.667H374.718C374.936 228.667 375.145 228.754 375.299 228.908C375.453 229.062 375.54 229.271 375.54 229.489V287.965C375.54 288.078 375.517 288.189 375.473 288.292C375.428 288.395 375.363 288.488 375.282 288.565C375.2 288.642 375.103 288.701 374.998 288.739C374.892 288.778 374.78 288.794 374.668 288.787ZM286.041 287.144H373.846V230.31H358.415C352.663 234.319 345.797 236.422 338.786 236.322H321.091C317.243 236.335 313.419 235.722 309.768 234.509C306.805 233.536 304.007 232.117 301.472 230.3H286.041V287.144Z" fill="#E6E6E6"/>
<path d="M278.556 288.787H189.097C188.88 288.787 188.671 288.7 188.516 288.546C188.362 288.392 188.276 288.183 188.276 287.965V229.459C188.276 229.241 188.362 229.032 188.516 228.878C188.671 228.723 188.88 228.637 189.097 228.637H204.719C204.896 228.633 205.069 228.69 205.21 228.797C207.647 230.591 210.352 231.987 213.226 232.935C216.71 234.089 220.357 234.671 224.027 234.659H241.722C248.468 234.758 255.07 232.705 260.57 228.797C260.712 228.692 260.884 228.636 261.061 228.637H278.556C278.664 228.636 278.772 228.656 278.872 228.697C278.972 228.738 279.063 228.798 279.14 228.875C279.217 228.951 279.277 229.042 279.318 229.143C279.359 229.243 279.379 229.35 279.378 229.459V287.935C279.382 288.046 279.363 288.156 279.324 288.259C279.284 288.362 279.225 288.456 279.148 288.536C279.071 288.615 278.979 288.679 278.878 288.722C278.776 288.765 278.666 288.787 278.556 288.787ZM189.929 287.144H277.734V230.31H261.382C255.636 234.318 248.777 236.421 241.773 236.322H224.077C220.23 236.335 216.406 235.722 212.755 234.509C209.785 233.542 206.983 232.123 204.448 230.3H189.919L189.929 287.144Z" fill="#E6E6E6"/>
<path d="M182.434 288.787H92.9856C92.7677 288.787 92.5587 288.7 92.4046 288.546C92.2505 288.392 92.164 288.183 92.164 287.965V229.459C92.1626 229.35 92.1829 229.243 92.2238 229.143C92.2646 229.042 92.325 228.951 92.4016 228.875C92.4782 228.798 92.5693 228.738 92.6696 228.697C92.7699 228.656 92.8773 228.636 92.9856 228.637H108.607C108.781 228.635 108.95 228.691 109.088 228.797C111.527 230.587 114.232 231.983 117.104 232.935C120.591 234.089 124.242 234.671 127.915 234.659H145.611C152.363 234.757 158.971 232.704 164.478 228.797C164.619 228.69 164.792 228.633 164.969 228.637H182.384C182.602 228.637 182.811 228.723 182.965 228.878C183.119 229.032 183.206 229.241 183.206 229.459V287.935C183.214 288.15 183.138 288.359 182.994 288.518C182.849 288.678 182.649 288.774 182.434 288.787ZM93.8072 287.144H181.613V230.31H165.33C159.581 234.318 152.719 236.421 145.711 236.322H127.965C124.118 236.336 120.294 235.724 116.643 234.509C113.674 233.543 110.872 232.123 108.336 230.3H93.8072V287.144Z" fill="#E6E6E6"/>
<path d="M374.938 328.054H384.698V306.541H364.708L374.938 328.054Z" fill="#F5F5F5"/>
<path d="M144.228 204.748H136.122C136.182 199.137 136.122 184.889 135.551 152.254C134.549 93.1356 132.675 89.4883 132.675 89.4883L142.284 118.687C144.566 125.553 145.894 132.701 146.232 139.929C147.294 162.694 143.286 180.871 144.228 204.748Z" fill="#E6E6E6"/>
<path d="M150.39 109.879C161.202 93.5168 182.785 84.9798 204.849 76.9437C213.506 73.7874 189.198 112.936 171.522 130.691C157.795 144.479 144.468 144.168 140.531 157.745C139.769 141.974 141.072 123.978 150.39 109.879Z" fill="#E6E6E6"/>
<path d="M138.005 99.3793C129.529 80.2411 108.116 55.4216 84.0478 37.9367C74.5989 31.073 97.9154 90.0407 114.358 114.149C127.164 132.946 139.108 144.389 140.971 157.796C149.048 141.022 146.472 118.507 138.005 99.3793Z" fill="#E6E6E6"/>
<path d="M138.807 222.445C143.389 222.445 147.798 220.692 151.129 217.545C154.461 214.398 156.462 210.096 156.723 205.521L158.316 189.299H119.298L120.881 205.521C121.145 210.097 123.148 214.399 126.481 217.545C129.814 220.692 134.224 222.445 138.807 222.445Z" fill="#F0F0F0"/>
<path d="M116.773 189.388H160.841L162.104 183.627H115.511L116.773 189.388Z" fill="#F0F0F0"/>
<path d="M118.947 199.267H158.667L159.809 193.506H117.805L118.947 199.267Z" fill="#F0F0F0"/>
<path d="M250.5 373.306C357.797 373.306 444.778 368.228 444.778 361.964C444.778 355.699 357.797 350.621 250.5 350.621C143.203 350.621 56.2222 355.699 56.2222 361.964C56.2222 368.228 143.203 373.306 250.5 373.306Z" fill="#F5F5F5"/>
<path d="M406.091 263.857H94.8994V299.088H406.091V263.857Z" fill="#4CB96C"/>
<path opacity="0.3" d="M406.101 263.857H339.347V299.088H406.101V263.857Z" fill="black"/>
<path d="M129.258 299.088H94.8994V361.963H129.258V299.088Z" fill="#4CB96C"/>
<path opacity="0.3" d="M94.9094 299.088V302.605L119.238 309.95V361.963H129.258V299.088H94.9094Z" fill="black"/>
<path d="M406.101 299.088H371.742V361.963H406.101V299.088Z" fill="#4CB96C"/>
<path opacity="0.2" d="M406.101 299.088H371.742V361.963H406.101V299.088Z" fill="black"/>
<path opacity="0.3" d="M371.742 299.088V302.605L396.081 309.95V361.963H406.101V299.088H371.742Z" fill="black"/>
<path d="M339.347 299.088H304.989V361.963H339.347V299.088Z" fill="#4CB96C"/>
<path opacity="0.3" d="M304.989 299.088V302.605L329.327 309.95V361.963H339.347V299.088H304.989Z" fill="black"/>
<path d="M196.011 299.088H161.653V361.963H196.011V299.088Z" fill="#4CB96C"/>
<path opacity="0.2" d="M196.011 299.088H161.653V361.963H196.011V299.088Z" fill="black"/>
<path opacity="0.3" d="M161.653 299.088V302.605L185.991 309.95V361.963H196.011V299.088H161.653Z" fill="black"/>
<path d="M363.205 256.934H172.945C172.352 256.938 171.765 256.82 171.22 256.585C170.675 256.351 170.185 256.007 169.78 255.574C169.375 255.141 169.065 254.628 168.868 254.069C168.671 253.51 168.592 252.916 168.637 252.324L176.472 127.986C176.571 126.747 177.128 125.589 178.034 124.737C178.939 123.885 180.129 123.4 181.372 123.377H371.622C372.215 123.373 372.802 123.491 373.347 123.725C373.892 123.959 374.382 124.304 374.787 124.737C375.192 125.17 375.502 125.682 375.699 126.242C375.896 126.801 375.975 127.395 375.93 127.986L368.095 252.324C367.996 253.562 367.441 254.719 366.537 255.57C365.634 256.422 364.446 256.908 363.205 256.934Z" fill="#263238"/>
<path opacity="0.6" d="M363.205 256.934H172.945C172.352 256.938 171.765 256.82 171.22 256.585C170.675 256.351 170.185 256.007 169.78 255.574C169.375 255.141 169.065 254.628 168.868 254.069C168.671 253.51 168.592 252.916 168.637 252.324L176.472 127.986C176.571 126.747 177.128 125.589 178.034 124.737C178.939 123.885 180.129 123.4 181.372 123.377H371.622C372.215 123.373 372.802 123.491 373.347 123.725C373.892 123.959 374.382 124.304 374.787 124.737C375.192 125.17 375.502 125.682 375.699 126.242C375.896 126.801 375.975 127.395 375.93 127.986L368.095 252.324C367.996 253.562 367.441 254.719 366.537 255.57C365.634 256.422 364.446 256.908 363.205 256.934Z" fill="black"/>
<path d="M361.782 256.934H171.532C170.939 256.94 170.35 256.822 169.804 256.589C169.258 256.355 168.767 256.011 168.361 255.578C167.955 255.144 167.643 254.631 167.446 254.071C167.248 253.512 167.169 252.917 167.214 252.325L175.049 127.986C175.149 126.747 175.705 125.589 176.611 124.737C177.516 123.885 178.706 123.401 179.949 123.377H370.199C370.792 123.371 371.38 123.489 371.926 123.722C372.471 123.956 372.962 124.3 373.367 124.734C373.773 125.167 374.083 125.68 374.279 126.24C374.476 126.8 374.553 127.395 374.508 127.986L366.672 252.325C366.573 253.562 366.018 254.719 365.114 255.57C364.211 256.422 363.023 256.908 361.782 256.934Z" fill="#263238"/>
<path d="M361.542 258.516H135.16C134.118 258.506 133.094 258.792 132.207 259.34C131.321 259.888 130.607 260.676 130.15 261.612C130.034 261.855 129.982 262.124 129.999 262.393C130.016 262.662 130.101 262.922 130.246 263.148C130.392 263.375 130.593 263.561 130.83 263.688C131.067 263.816 131.333 263.881 131.603 263.877H365.049C365.318 263.881 365.584 263.816 365.821 263.688C366.059 263.561 366.26 263.375 366.405 263.148C366.551 262.922 366.636 262.662 366.653 262.393C366.67 262.124 366.617 261.855 366.502 261.612C366.049 260.682 365.344 259.898 364.467 259.35C363.59 258.803 362.576 258.514 361.542 258.516Z" fill="#263238"/>
<path opacity="0.6" d="M361.542 258.516H329.347C328.313 258.512 327.299 258.801 326.421 259.349C325.544 259.896 324.839 260.681 324.387 261.612C324.272 261.854 324.22 262.122 324.236 262.39C324.253 262.658 324.337 262.918 324.481 263.144C324.626 263.37 324.825 263.556 325.061 263.685C325.297 263.813 325.562 263.879 325.83 263.876H365.049C365.318 263.88 365.584 263.816 365.821 263.688C366.059 263.561 366.26 263.375 366.405 263.148C366.551 262.922 366.636 262.661 366.653 262.393C366.67 262.124 366.618 261.855 366.502 261.612C366.049 260.682 365.344 259.898 364.467 259.35C363.59 258.803 362.576 258.513 361.542 258.516Z" fill="black"/>
<path d="M341.582 262.424H333.265C333.073 262.421 332.889 262.343 332.754 262.206C332.619 262.069 332.544 261.885 332.544 261.692C332.544 261.5 332.619 261.316 332.754 261.179C332.889 261.042 333.073 260.964 333.265 260.961H341.582C341.678 260.961 341.773 260.98 341.862 261.017C341.95 261.053 342.031 261.107 342.099 261.175C342.167 261.243 342.221 261.324 342.258 261.412C342.294 261.501 342.313 261.596 342.313 261.692C342.313 261.788 342.294 261.884 342.258 261.972C342.221 262.061 342.167 262.142 342.099 262.21C342.031 262.278 341.95 262.331 341.862 262.368C341.773 262.405 341.678 262.424 341.582 262.424Z" fill="#4CB96C"/>
<path opacity="0.7" d="M234.638 262.424H226.332C226.138 262.424 225.952 262.347 225.815 262.21C225.677 262.072 225.6 261.886 225.6 261.692C225.6 261.596 225.619 261.501 225.656 261.412C225.693 261.324 225.747 261.243 225.815 261.175C225.882 261.107 225.963 261.053 226.052 261.017C226.141 260.98 226.236 260.961 226.332 260.961H234.638C234.734 260.961 234.83 260.98 234.918 261.017C235.007 261.053 235.088 261.107 235.156 261.175C235.223 261.243 235.277 261.324 235.314 261.412C235.351 261.501 235.37 261.596 235.37 261.692C235.37 261.886 235.293 262.072 235.156 262.21C235.018 262.347 234.832 262.424 234.638 262.424Z" fill="white"/>
<path d="M350.189 260.961H344.748C344.416 260.961 344.147 261.23 344.147 261.562V261.823C344.147 262.155 344.416 262.424 344.748 262.424H350.189C350.521 262.424 350.79 262.155 350.79 261.823V261.562C350.79 261.23 350.521 260.961 350.189 260.961Z" fill="#4CB96C"/>
<path d="M171.502 247.835L178.777 132.475C178.814 131.994 179.03 131.544 179.383 131.214C179.735 130.884 180.198 130.698 180.681 130.692H368.546C368.776 130.688 369.004 130.733 369.216 130.823C369.428 130.912 369.619 131.046 369.777 131.213C369.934 131.381 370.055 131.58 370.131 131.798C370.207 132.015 370.237 132.246 370.219 132.475L362.954 247.835C362.915 248.318 362.696 248.767 362.342 249.097C361.989 249.427 361.524 249.613 361.041 249.619H173.186C172.956 249.621 172.727 249.575 172.516 249.485C172.304 249.395 172.113 249.262 171.955 249.094C171.797 248.927 171.675 248.729 171.597 248.512C171.52 248.295 171.487 248.065 171.502 247.835Z" fill="white"/>
<path opacity="0.1" d="M278.376 127.135L215.801 246.072H169.639C169.407 246.076 169.177 246.031 168.964 245.94C168.751 245.85 168.559 245.716 168.401 245.547C168.242 245.378 168.121 245.178 168.044 244.96C167.967 244.741 167.937 244.509 167.955 244.279L175.23 128.928C175.267 128.446 175.483 127.995 175.835 127.663C176.187 127.332 176.65 127.143 177.134 127.135H278.376Z" fill="#4CB96C"/>
<path opacity="0.1" d="M333.175 127.135L270.6 246.072H256.011L318.586 127.135H333.175Z" fill="#4CB96C"/>
<path opacity="0.1" d="M366.672 128.929L359.397 244.279C359.362 244.762 359.147 245.215 358.795 245.547C358.442 245.879 357.978 246.066 357.494 246.073H286.352L348.926 127.135H364.958C365.192 127.129 365.424 127.172 365.64 127.261C365.856 127.35 366.051 127.483 366.213 127.652C366.374 127.821 366.499 128.022 366.578 128.242C366.657 128.462 366.689 128.696 366.672 128.929Z" fill="#4CB96C"/>
<path opacity="0.4" d="M276.181 127.255C276.154 127.619 275.992 127.959 275.727 128.209C275.462 128.459 275.113 128.601 274.748 128.608C274.574 128.61 274.402 128.575 274.242 128.507C274.082 128.438 273.938 128.337 273.819 128.21C273.7 128.083 273.609 127.932 273.552 127.768C273.494 127.603 273.472 127.429 273.486 127.255C273.511 126.891 273.672 126.549 273.938 126.299C274.203 126.048 274.554 125.907 274.919 125.902C275.093 125.9 275.265 125.935 275.426 126.003C275.586 126.072 275.73 126.173 275.848 126.3C275.967 126.428 276.058 126.578 276.116 126.743C276.173 126.907 276.195 127.082 276.181 127.255Z" fill="white"/>
<path d="M245.139 99.5882C239.658 105.861 236.492 125.089 240.55 134.548C244.608 144.007 197.524 153.476 236.372 168.846C275.219 184.217 306.291 166.392 295.049 150.47C283.806 134.548 296.261 108.035 283.245 101.372C271.482 95.2996 256.121 87.0131 245.139 99.5882Z" fill="#263238"/>
<path d="M233.526 177.013C231.472 184.027 229.288 191.041 227.023 198.055C224.759 205.069 222.404 212.003 219.909 218.967L218.957 221.592L218.476 222.905L218.326 223.296L218.085 223.887C217.935 224.268 217.705 224.678 217.504 225.069C216.525 226.858 215.063 228.337 213.286 229.338C211.672 230.214 209.871 230.688 208.035 230.721C205.461 230.733 202.909 230.232 200.53 229.248C198.583 228.457 196.697 227.523 194.889 226.452C188.319 222.412 182.298 217.542 176.973 211.963L181.292 206.873C182.745 207.805 184.298 208.797 185.801 209.729C187.304 210.661 188.877 211.562 190.4 212.454C193.384 214.201 196.465 215.776 199.628 217.174C201.07 217.809 202.557 218.335 204.077 218.747C205.129 219.095 206.24 219.225 207.344 219.127C207.624 219.127 207.574 218.967 207.344 219.057C207.113 219.147 206.863 219.408 206.853 219.378C206.843 219.348 206.853 219.378 206.853 219.318C206.858 219.298 206.858 219.277 206.853 219.258L206.933 219.007L207.314 217.715L208.085 215.109L214.208 194.067C216.292 187.053 218.436 180.039 220.64 173.025L233.526 177.013Z" fill="#B65B52"/>
<path d="M180.981 206.713L169.338 202.404L173.957 214.709C173.957 214.709 182.174 215.891 185.36 211.573L182.765 208.096C182.315 207.473 181.696 206.993 180.981 206.713Z" fill="#B55B52"/>
<path d="M159.068 205.982L163.496 216.072L174.007 214.689L169.378 202.385L159.068 205.982Z" fill="#B55B52"/>
<path d="M225.029 158.867C219.699 160.22 216.011 182.134 216.011 182.134L230.69 192.154C230.69 192.154 244.718 170.05 240.66 164.198C236.352 158.056 232.795 156.893 225.029 158.867Z" fill="#4CB96C"/>
<path opacity="0.5" d="M225.029 158.867C219.699 160.22 216.011 182.134 216.011 182.134L230.69 192.154C230.69 192.154 244.718 170.05 240.66 164.198C236.352 158.056 232.795 156.893 225.029 158.867Z" fill="white"/>
<path opacity="0.2" d="M224.548 166.834L235.941 169.469L237.033 180.621C235.103 184.559 232.972 188.395 230.65 192.114L221.743 186.102C222.133 180.942 223.095 170.341 224.548 166.834Z" fill="black"/>
<path d="M225.029 158.868C225.029 158.868 218.867 161.032 231.201 236.844H283.666C282.784 215.491 282.764 202.315 292.965 158.497C285.621 156.979 278.177 155.998 270.69 155.562C261.863 155.131 254.658 154.85 246.863 155.562C236.632 156.493 225.029 158.868 225.029 158.868Z" fill="#4CB96C"/>
<path opacity="0.5" d="M225.029 158.868C225.029 158.868 218.867 161.032 231.201 236.844H283.666C282.784 215.491 282.764 202.315 292.965 158.497C285.621 156.979 278.177 155.998 270.69 155.562C261.863 155.131 254.658 154.85 246.863 155.562C236.632 156.493 225.029 158.868 225.029 158.868Z" fill="white"/>
<path opacity="0.2" d="M280.62 178.838L287.394 184.609C285.951 192.275 284.979 198.637 284.388 204.339C283.095 198.647 279.869 183.197 280.62 178.838Z" fill="black"/>
<path d="M268.326 128.729C266.823 136.394 265.32 150.442 270.69 155.562C270.69 155.562 265.68 167.045 252.404 167.045C239.127 167.045 246.863 155.562 246.863 155.562C255.41 153.558 255.189 147.175 253.706 141.223L268.326 128.729Z" fill="#B55B52"/>
<path d="M268.987 152.696C267.724 155.251 263.656 161.093 252.294 163.177C251.978 163.235 251.652 163.171 251.382 162.997C249.258 161.514 247.935 158.378 248.867 154.74C248.929 154.517 248.927 154.281 248.861 154.058C248.796 153.836 248.669 153.636 248.496 153.482C248.323 153.328 248.11 153.225 247.882 153.185C247.653 153.145 247.418 153.17 247.203 153.257C246.331 153.623 245.492 154.065 244.698 154.58C244.524 154.696 244.382 154.854 244.288 155.041C243.456 156.604 240.089 164.259 250.25 168.979C250.412 169.048 250.585 169.089 250.761 169.099C256.773 169.219 267.284 168.037 273.927 156.073C274.045 155.857 274.098 155.611 274.079 155.365C274.059 155.119 273.968 154.885 273.817 154.69C272.924 153.713 271.886 152.878 270.74 152.215C270.596 152.123 270.434 152.061 270.264 152.036C270.095 152.01 269.922 152.02 269.756 152.065C269.591 152.11 269.437 152.19 269.305 152.299C269.172 152.408 269.064 152.543 268.987 152.696Z" fill="#FAFAFA"/>
<path d="M271.772 184.237L258.245 183.846C258.104 183.847 257.964 183.818 257.835 183.761C257.705 183.704 257.59 183.62 257.495 183.515C257.4 183.41 257.329 183.286 257.286 183.152C257.242 183.017 257.228 182.875 257.243 182.734L257.374 181.061C257.413 180.779 257.554 180.522 257.77 180.337C257.986 180.153 258.262 180.054 258.546 180.059L272.073 180.45C272.215 180.449 272.356 180.478 272.486 180.536C272.617 180.593 272.733 180.678 272.828 180.784C272.923 180.89 272.994 181.016 273.036 181.151C273.079 181.287 273.092 181.43 273.075 181.572L272.945 183.235C272.906 183.517 272.765 183.774 272.549 183.959C272.333 184.143 272.057 184.242 271.772 184.237Z" fill="#FAFAFA"/>
<path opacity="0.2" d="M262.364 133.826L253.706 141.211C254.078 142.596 254.326 144.011 254.448 145.439C257.704 144.968 262.193 141.381 262.544 137.964C262.736 136.586 262.675 135.183 262.364 133.826Z" fill="black"/>
<path d="M278.426 114.227C276.011 126.822 275.259 132.203 268.005 137.884C257.093 146.441 242.153 140.71 240.771 127.654C239.518 115.901 243.676 97.2834 256.803 93.8365C259.679 93.0721 262.703 93.0546 265.588 93.7857C268.473 94.5167 271.124 95.9721 273.289 98.014C275.454 100.056 277.063 102.617 277.961 105.454C278.86 108.291 279.02 111.311 278.426 114.227Z" fill="#B55B52"/>
<path d="M271.261 104.91C269.698 112.795 269.328 123.246 276.552 123.246C283.776 123.246 289.438 110.952 283.205 101.322C276.973 91.6932 272.173 100.26 271.261 104.91Z" fill="#263238"/>
<path d="M283.746 105.882C283.746 114.459 272.945 110.22 268.165 106.523C263.386 102.826 263.155 103.226 254.298 103.216C245.44 103.206 243.666 102.595 241.051 98.3668C238.436 94.1383 238.676 91.3528 244.568 92.2446C250.46 93.1363 245.51 87.1243 249.899 83.7877C254.288 80.451 259.488 81.2927 265.49 88.9079C271.492 96.5231 283.746 91.0221 283.746 105.882Z" fill="#263238"/>
<path d="M280.575 125.435C281.711 121.558 280.597 117.819 278.085 117.082C275.573 116.346 272.615 118.891 271.479 122.768C270.342 126.645 271.457 130.384 273.969 131.12C276.481 131.857 279.438 129.311 280.575 125.435Z" fill="white"/>
<path d="M260.52 135.129C258.194 135.128 255.893 134.655 253.757 133.736C253.711 133.718 253.669 133.69 253.634 133.655C253.599 133.62 253.572 133.579 253.553 133.533C253.534 133.487 253.525 133.438 253.526 133.389C253.526 133.339 253.536 133.29 253.556 133.245C253.598 133.154 253.673 133.082 253.766 133.045C253.86 133.007 253.964 133.007 254.057 133.045C256.071 133.909 258.237 134.36 260.428 134.372C262.619 134.384 264.79 133.957 266.813 133.115C268.78 132.31 270.566 131.119 272.067 129.614C273.567 128.108 274.752 126.318 275.55 124.347C278.556 115.74 281.622 104.999 278.075 98.2954C277.361 96.9907 276.374 95.8558 275.181 94.9685C273.987 94.0813 272.616 93.4627 271.161 93.1551C271.065 93.1292 270.982 93.0664 270.932 92.9801C270.881 92.8939 270.866 92.7912 270.891 92.6942C270.917 92.5976 270.979 92.5151 271.066 92.4645C271.152 92.4139 271.255 92.3992 271.352 92.4237C272.906 92.7582 274.37 93.4235 275.645 94.3745C276.919 95.3254 277.973 96.5397 278.736 97.9347C282.424 104.859 279.348 115.81 276.251 124.578C275.412 126.647 274.166 128.527 272.588 130.107C271.01 131.686 269.131 132.934 267.063 133.776C264.99 134.647 262.768 135.107 260.52 135.129Z" fill="white"/>
<path opacity="0.6" d="M280.209 125.471C279.318 128.477 277.273 130.592 275.64 130.121C274.007 129.65 273.406 126.784 274.298 123.738C275.189 120.692 277.233 118.608 278.867 119.089C280.5 119.57 281.101 122.425 280.209 125.471Z" fill="#4CB96C"/>
<path d="M254.797 132.079L250.871 131.321C250.181 131.188 249.514 131.64 249.381 132.33L249.337 132.556C249.204 133.246 249.655 133.913 250.345 134.046L254.271 134.804C254.961 134.937 255.628 134.485 255.762 133.795L255.805 133.569C255.938 132.879 255.487 132.212 254.797 132.079Z" fill="white"/>
<path d="M249.668 115.281C249.668 115.281 247.344 119.5 245.139 121.393C246.332 122.846 248.736 122.566 248.736 122.566L249.668 115.281Z" fill="#A02724"/>
<path d="M251.883 127.956H251.973C254.245 128.135 256.5 127.448 258.286 126.032C258.322 125.995 258.343 125.944 258.343 125.892C258.343 125.84 258.322 125.789 258.286 125.752C258.268 125.734 258.247 125.72 258.224 125.71C258.2 125.7 258.175 125.695 258.15 125.695C258.125 125.695 258.1 125.7 258.077 125.71C258.054 125.72 258.033 125.734 258.015 125.752C256.31 127.092 254.166 127.746 252.003 127.585C251.977 127.581 251.951 127.582 251.925 127.589C251.9 127.595 251.876 127.607 251.856 127.623C251.835 127.639 251.818 127.659 251.805 127.682C251.793 127.704 251.785 127.73 251.783 127.756C251.777 127.795 251.784 127.836 251.802 127.871C251.82 127.907 251.848 127.937 251.883 127.956Z" fill="#263238"/>
<path d="M263.346 110.32C263.402 110.352 263.466 110.369 263.531 110.369C263.596 110.369 263.66 110.352 263.716 110.32C263.802 110.263 263.863 110.175 263.885 110.074C263.908 109.973 263.89 109.868 263.837 109.779C263.357 108.977 262.694 108.3 261.901 107.805C261.108 107.31 260.209 107.012 259.278 106.934C259.173 106.934 259.072 106.974 258.998 107.047C258.923 107.12 258.879 107.22 258.877 107.324C258.877 107.426 258.916 107.524 258.988 107.597C259.059 107.67 259.156 107.713 259.257 107.715C260.06 107.792 260.833 108.057 261.514 108.488C262.195 108.92 262.764 109.507 263.175 110.2C263.22 110.255 263.279 110.296 263.346 110.32Z" fill="#263238"/>
<path d="M257.604 115.451C257.434 116.453 256.742 117.225 256.061 117.114C255.38 117.004 254.989 116.112 255.159 115.03C255.33 113.948 256.031 113.257 256.702 113.367C257.374 113.477 257.785 114.419 257.604 115.451Z" fill="#263238"/>
<path d="M245.921 113.468C245.751 114.47 245.059 115.241 244.378 115.131C243.696 115.021 243.306 114.079 243.476 113.047C243.646 112.015 244.348 111.263 245.019 111.384C245.69 111.504 246.101 112.426 245.921 113.468Z" fill="#263238"/>
<path d="M245.31 111.494L242.945 110.352C242.945 110.352 243.887 112.506 245.31 111.494Z" fill="#263238"/>
<path d="M256.993 113.478L254.628 112.346C254.628 112.346 255.57 114.5 256.993 113.478Z" fill="#263238"/>
<path d="M241.953 106.483C242.014 106.519 242.083 106.539 242.153 106.539C242.224 106.539 242.293 106.519 242.354 106.483C242.972 105.964 243.707 105.601 244.495 105.427C245.284 105.252 246.103 105.271 246.883 105.481C246.981 105.516 247.089 105.51 247.183 105.465C247.277 105.42 247.349 105.339 247.384 105.241C247.418 105.142 247.412 105.034 247.367 104.941C247.322 104.847 247.242 104.774 247.143 104.74C246.244 104.484 245.296 104.448 244.381 104.637C243.465 104.825 242.608 105.232 241.883 105.822C241.841 105.852 241.806 105.89 241.779 105.933C241.753 105.977 241.736 106.026 241.729 106.077C241.722 106.128 241.726 106.18 241.741 106.229C241.755 106.278 241.78 106.324 241.813 106.363C241.846 106.416 241.895 106.458 241.953 106.483Z" fill="#263238"/>
<path d="M229.207 249.619C229.207 249.619 229.067 242.445 231.211 236.844H283.666C283.666 236.844 288.386 244.459 289.608 249.619H229.207Z" fill="#4CB96C"/>
<path d="M284.458 233.766L284.869 238.455C285.059 238.826 284.628 239.197 284.017 239.197H230.911C230.44 239.197 230.049 238.966 230.019 238.666L229.538 233.966C229.538 233.646 229.919 233.365 230.44 233.365H283.546C283.72 233.347 283.895 233.374 284.055 233.444C284.215 233.514 284.354 233.625 284.458 233.766Z" fill="#4CB96C"/>
<path opacity="0.3" d="M284.458 233.766L284.869 238.455C285.059 238.826 284.628 239.197 284.017 239.197H230.911C230.44 239.197 230.049 238.966 230.019 238.666L229.538 233.966C229.538 233.646 229.919 233.365 230.44 233.365H283.546C283.72 233.347 283.895 233.374 284.055 233.444C284.215 233.514 284.354 233.625 284.458 233.766Z" fill="#FAFAFA"/>
<path d="M277.314 239.699H278.736C279.027 239.699 279.237 239.558 279.217 239.378L278.556 233.276C278.556 233.095 278.285 232.955 278.005 232.955H276.552C276.261 232.955 276.051 233.095 276.071 233.276L276.732 239.378C276.782 239.558 277.033 239.699 277.314 239.699Z" fill="#4CB96C"/>
<path d="M234.939 239.699H236.362C236.642 239.699 236.863 239.558 236.843 239.378L236.171 233.276C236.171 233.095 235.911 232.955 235.62 232.955H234.197C233.917 232.955 233.696 233.095 233.716 233.276L234.388 239.378C234.408 239.558 234.658 239.699 234.939 239.699Z" fill="#4CB96C"/>
<path d="M256.131 239.699H257.514C257.795 239.699 258.015 239.558 257.995 239.378L257.324 233.276C257.324 233.095 257.053 232.955 256.773 232.955H255.35C255.069 232.955 254.849 233.095 254.869 233.276L255.54 239.378C255.6 239.558 255.841 239.699 256.131 239.699Z" fill="#4CB96C"/>
<path d="M297.454 173.346C299.758 180.827 301.973 188.349 304.097 195.911L307.293 207.193L308.887 212.804L309.287 214.187L309.488 214.879L309.538 215.039L309.378 214.788C309.124 214.426 308.813 214.107 308.456 213.847C307.672 213.276 306.739 212.945 305.77 212.895C305.039 212.86 304.309 213.004 303.646 213.315C302.925 213.706 302.995 213.796 303.055 213.726C303.225 213.579 303.379 213.414 303.516 213.235C303.988 212.645 304.423 212.026 304.818 211.382C305.7 209.939 306.572 208.315 307.394 206.652C309.097 203.326 310.63 199.799 312.183 196.251C313.736 192.704 315.189 189.117 316.692 185.5C318.195 181.883 319.628 178.245 321.111 174.658L327.514 176.562C325.85 184.378 323.907 192.053 321.502 199.698C320.319 203.536 319.007 207.334 317.494 211.181C316.712 213.105 315.881 215.029 314.848 217.023C314.298 218.102 313.682 219.146 313.005 220.149C312.584 220.779 312.115 221.375 311.602 221.933C310.789 222.855 309.801 223.608 308.696 224.147C307.593 224.683 306.375 224.938 305.149 224.889C303.696 224.808 302.301 224.295 301.141 223.416C300.402 222.858 299.762 222.181 299.247 221.412C298.922 220.918 298.637 220.399 298.396 219.859C298.305 219.638 298.205 219.408 298.135 219.207L297.945 218.716L297.684 218.005L297.163 216.592C296.482 214.718 295.79 212.845 295.159 210.971C293.877 207.223 292.594 203.486 291.392 199.728C288.933 192.22 286.642 184.675 284.518 177.093L297.454 173.346Z" fill="#B65B52"/>
<path d="M292.965 158.496C298.225 160.089 306.271 180.72 306.271 180.72L285.881 195.3C285.881 195.3 276.712 177.664 278.917 170.871C281.221 163.797 286.973 156.672 292.965 158.496Z" fill="#4CB96C"/>
<path opacity="0.5" d="M292.965 158.496C298.225 160.089 306.271 180.72 306.271 180.72L285.881 195.3C285.881 195.3 276.712 177.664 278.917 170.871C281.221 163.797 286.973 156.672 292.965 158.496Z" fill="white"/>
<path d="M321.341 177.405L318.546 165.08L330.169 171.212C330.169 171.212 330.309 179.509 325.62 182.124L321.341 177.405Z" fill="#B55B52"/>
<path d="M323.416 155.301L330.83 160.561L330.169 171.213L318.546 165.08L323.416 155.301Z" fill="#B55B52"/>
<path d="M115.23 93.274H196.392C197.942 93.2587 199.478 93.5651 200.903 94.1738C202.328 94.7826 203.611 95.6803 204.672 96.8104C205.732 97.9405 206.546 99.2783 207.063 100.739C207.58 102.2 207.788 103.752 207.675 105.298L205.41 142.031C205.161 145.265 203.715 148.289 201.354 150.513C198.993 152.737 195.887 154 192.645 154.055H183.246L187.083 166.67L168.727 154.055H111.513C109.963 154.071 108.427 153.764 107.002 153.155C105.577 152.547 104.293 151.649 103.233 150.519C102.173 149.389 101.358 148.051 100.841 146.59C100.324 145.129 100.116 143.577 100.23 142.031L102.475 105.298C102.723 102.066 104.168 99.0429 106.527 96.8194C108.886 94.5959 111.989 93.3317 115.23 93.274Z" fill="#4CB96C"/>
<path d="M188.957 112.514H120.32C120.029 112.513 119.741 112.451 119.475 112.332C119.209 112.213 118.97 112.04 118.774 111.825C118.578 111.609 118.429 111.355 118.336 111.079C118.244 110.802 118.21 110.51 118.236 110.22C118.281 109.611 118.551 109.042 118.994 108.623C119.437 108.204 120.021 107.966 120.631 107.955H189.278C189.568 107.956 189.854 108.016 190.12 108.132C190.386 108.248 190.625 108.418 190.822 108.63C191.019 108.843 191.171 109.093 191.267 109.367C191.364 109.64 191.403 109.93 191.382 110.22C191.346 110.839 191.075 111.421 190.625 111.848C190.174 112.274 189.578 112.513 188.957 112.514Z" fill="white"/>
<path d="M148.296 125.93H119.499C119.207 125.932 118.918 125.873 118.65 125.759C118.382 125.644 118.141 125.475 117.941 125.262C117.742 125.049 117.588 124.798 117.491 124.523C117.393 124.248 117.354 123.956 117.374 123.665C117.419 123.055 117.691 122.484 118.136 122.065C118.582 121.646 119.168 121.409 119.779 121.401H148.607C148.899 121.397 149.189 121.454 149.458 121.569C149.727 121.683 149.97 121.852 150.171 122.065C150.371 122.277 150.525 122.529 150.624 122.805C150.722 123.08 150.762 123.373 150.741 123.665C150.693 124.281 150.415 124.856 149.962 125.276C149.508 125.695 148.914 125.929 148.296 125.93Z" fill="white"/>
<path d="M172.975 139.348H118.677C118.385 139.35 118.096 139.291 117.828 139.177C117.56 139.062 117.319 138.893 117.12 138.68C116.92 138.467 116.767 138.216 116.669 137.941C116.572 137.666 116.532 137.374 116.553 137.083C116.595 136.472 116.867 135.9 117.312 135.481C117.758 135.061 118.345 134.825 118.957 134.819H173.256C173.548 134.815 173.837 134.872 174.106 134.986C174.375 135.101 174.617 135.27 174.817 135.483C175.016 135.696 175.17 135.948 175.267 136.224C175.364 136.499 175.402 136.792 175.38 137.083C175.335 137.693 175.063 138.264 174.618 138.683C174.173 139.102 173.587 139.339 172.975 139.348Z" fill="white"/>
<path d="M169.448 125.93H158.096C157.804 125.932 157.515 125.873 157.247 125.759C156.979 125.644 156.738 125.475 156.538 125.262C156.339 125.049 156.185 124.798 156.088 124.523C155.99 124.248 155.951 123.956 155.971 123.665C156.019 123.056 156.291 122.487 156.736 122.068C157.181 121.649 157.765 121.411 158.376 121.401H169.719C170.011 121.397 170.3 121.454 170.569 121.569C170.838 121.683 171.08 121.852 171.28 122.065C171.479 122.278 171.633 122.53 171.73 122.806C171.827 123.081 171.865 123.374 171.843 123.665C171.798 124.273 171.528 124.843 171.085 125.262C170.642 125.68 170.058 125.919 169.448 125.93Z" fill="white"/>
<path d="M228.246 27.2426H183.997C181.474 27.2804 179.056 28.2606 177.219 29.9905C175.381 31.7203 174.257 34.0748 174.067 36.5912L172.344 65.1883C172.258 66.3907 172.422 67.5978 172.826 68.7335C173.23 69.8693 173.865 70.9091 174.69 71.7874C175.516 72.6657 176.514 73.3634 177.623 73.8367C178.732 74.3099 179.926 74.5483 181.132 74.537H188.376L184.188 84.3566L199.679 74.537H225.35C227.873 74.4991 230.291 73.5189 232.128 71.7891C233.966 70.0592 235.09 67.7047 235.28 65.1883L237.033 36.5912C237.119 35.3889 236.955 34.1818 236.551 33.046C236.147 31.9103 235.513 30.8705 234.687 29.9922C233.861 29.1139 232.863 28.4161 231.754 27.9429C230.646 27.4697 229.451 27.2312 228.246 27.2426Z" fill="#4CB96C"/>
<g opacity="0.5">
<path d="M228.246 27.2426H183.997C181.474 27.2804 179.056 28.2606 177.219 29.9905C175.381 31.7203 174.257 34.0748 174.067 36.5912L172.344 65.1883C172.258 66.3907 172.422 67.5978 172.826 68.7335C173.23 69.8693 173.865 70.9091 174.69 71.7874C175.516 72.6657 176.514 73.3634 177.623 73.8367C178.732 74.3099 179.926 74.5483 181.132 74.537H188.376L184.188 84.3566L199.679 74.537H225.35C227.873 74.4991 230.291 73.5189 232.128 71.7891C233.966 70.0592 235.09 67.7047 235.28 65.1883L237.033 36.5912C237.119 35.3889 236.955 34.1818 236.551 33.046C236.147 31.9103 235.513 30.8705 234.687 29.9922C233.861 29.1139 232.863 28.4161 231.754 27.9429C230.646 27.4697 229.451 27.2312 228.246 27.2426Z" fill="#FAFAFA"/>
</g>
<path d="M206.913 55.5695C206.761 56.1993 206.401 56.7598 205.893 57.1613C205.384 57.5627 204.755 57.782 204.107 57.784H201.492C201.492 57.0425 201.552 56.5916 201.562 56.4313C201.6 54.987 201.97 53.5709 202.644 52.293C203.591 50.8685 204.794 49.6318 206.192 48.6457C207.306 47.838 208.358 46.947 209.338 45.9804C209.858 45.3652 210.167 44.5997 210.22 43.796C210.259 43.2636 210.176 42.7292 209.976 42.2341C209.776 41.739 209.465 41.2964 209.067 40.9403C208.095 40.1076 206.838 39.6838 205.56 39.758C204.217 39.7213 202.903 40.1615 201.853 41.0005C201.229 41.5154 200.717 42.1532 200.35 42.8742C200.079 43.4009 199.659 43.8359 199.142 44.1247C198.625 44.4135 198.034 44.5432 197.444 44.4974C197.019 44.4449 196.615 44.286 196.267 44.0355C195.92 43.785 195.642 43.4511 195.458 43.0645C195.274 42.6779 195.191 42.2512 195.216 41.8239C195.241 41.3965 195.373 40.9824 195.6 40.6197C196.205 39.605 196.981 38.7031 197.895 37.9544C200.066 36.2088 202.796 35.3083 205.58 35.4193C208.857 35.4193 211.402 36.271 213.236 37.9844C214.094 38.7225 214.77 39.6495 215.21 40.6926C215.649 41.7357 215.841 42.8666 215.771 43.9964C215.679 45.2807 215.235 46.5148 214.488 47.5636C213.081 49.2966 211.454 50.8393 209.648 52.1527C208.713 52.8058 207.905 53.6241 207.264 54.5675C207.101 54.8836 206.983 55.2208 206.913 55.5695ZM201.192 62.7639V62.4433C201.244 61.7192 201.567 61.0413 202.096 60.5439C202.625 60.0466 203.321 59.766 204.047 59.7579H204.408C204.755 59.7528 205.1 59.82 205.42 59.9552C205.739 60.0903 206.028 60.2905 206.266 60.543C206.505 60.7956 206.688 61.0949 206.804 61.422C206.921 61.7491 206.968 62.0969 206.943 62.4433V62.7639C206.89 63.489 206.568 64.168 206.039 64.667C205.511 65.1659 204.814 65.4487 204.087 65.4593H203.767C203.415 65.4702 203.065 65.4069 202.74 65.2737C202.415 65.1404 202.121 64.9402 201.878 64.6859C201.635 64.4317 201.448 64.1291 201.33 63.798C201.212 63.4668 201.165 63.1145 201.192 62.7639Z" fill="white"/>
</svg>
