<svg width="32" height="32" viewBox="0 0 32 32" fill="none" xmlns="http://www.w3.org/2000/svg">
<path d="M22 22.6668C22 22.1615 22.0937 21.678 22.2647 21.2328C21.6833 20.5383 21.3333 19.6434 21.3333 18.6668C21.3333 16.4577 23.1242 14.6668 25.3333 14.6668H28V14.0742C28 11.8651 26.2104 10.0742 24.0013 10.0742H19.3333L19.3187 10.0668H8C7.26362 10.0668 6.66667 9.46988 6.66667 8.7335C6.66667 7.99712 7.26362 7.40016 8 7.40016H17.6857C17.1789 6.32059 16.6537 5.3335 16.0183 5.3335H6.96635C5.32808 5.3335 4 6.66157 4 8.29984V22.6668C4 24.876 5.79086 26.6668 8 26.6668H20.0993C20.2437 26.0304 20.5462 25.4205 21.0104 24.8983C21.3032 24.5689 21.6382 24.2993 22 24.0904V22.6668Z" fill="#4CC9FF"/>
<path d="M26 18.6668C26.7286 18.6668 27.4117 18.8616 28 19.202V17.3335H25.3333C24.597 17.3335 24 17.9304 24 18.6668C24 18.8377 24.0321 19.001 24.0907 19.1511C24.6581 18.8423 25.3085 18.6668 26 18.6668Z" fill="#4CC9FF"/>
<path d="M28.8858 28.5523L26.8858 30.33C26.3806 30.7791 25.6194 30.7791 25.1142 30.33L23.1142 28.5523C22.5638 28.063 22.5142 27.2203 23.0035 26.6699C23.4314 26.1884 24.13 26.0902 24.6667 26.4007V22.6668C24.6667 21.9304 25.2636 21.3335 26 21.3335C26.7364 21.3335 27.3333 21.9304 27.3333 22.6668V26.4007C27.87 26.0902 28.5686 26.1884 28.9965 26.6699C29.4858 27.2203 29.4362 28.063 28.8858 28.5523Z" fill="#4CC9FF"/>
</svg>
