<svg width="32" height="32" viewBox="0 0 32 32" fill="none" xmlns="http://www.w3.org/2000/svg">
<path d="M24 26.6668H8C5.79086 26.6668 4 24.876 4 22.6668V8.29984C4 6.66157 5.32808 5.3335 6.96635 5.3335H16.0183C16.6537 5.3335 17.1789 6.32059 17.6857 7.40016H8C7.26362 7.40016 6.66667 7.99712 6.66667 8.7335C6.66667 9.46988 7.26362 10.0668 8 10.0668H19.3187L19.3333 10.0742H24.0013C26.2104 10.0742 28 11.8651 28 14.0742V14.6668H25.3333C23.1242 14.6668 21.3333 16.4577 21.3333 18.6668C21.3333 20.876 23.1242 22.6668 25.3333 22.6668H28C28 24.876 26.2091 26.6668 24 26.6668Z" fill="#FFBF46"/>
<path d="M28 20.0002V17.3335H25.3333C24.597 17.3335 24 17.9304 24 18.6668C24 19.4032 24.597 20.0002 25.3333 20.0002H28Z" fill="#FFBF46"/>
</svg>
