<svg width="32" height="32" viewBox="0 0 32 32" fill="none" xmlns="http://www.w3.org/2000/svg">
<path d="M22.838 22.8382C22.9232 22.5573 23.0384 22.2894 23.18 22.0383C22.0695 21.3276 21.3333 20.0832 21.3333 18.6668C21.3333 16.4577 23.1242 14.6668 25.3333 14.6668H28V14.0742C28 11.8651 26.2104 10.0742 24.0013 10.0742H19.3333L19.3187 10.0668H8C7.26362 10.0668 6.66667 9.46988 6.66667 8.7335C6.66667 7.99712 7.26362 7.40016 8 7.40016H17.6857C17.1789 6.32059 16.6537 5.3335 16.0183 5.3335H6.96635C5.32808 5.3335 4 6.66157 4 8.29984V22.6668C4 24.876 5.79086 26.6668 8 26.6668H20C20 24.8618 21.1956 23.336 22.838 22.8382Z" fill="#D063FF"/>
<path d="M28 20.0002H25.3333C24.597 20.0002 24 19.4032 24 18.6668C24 17.9304 24.597 17.3335 25.3333 17.3335H28V20.0002Z" fill="#D063FF"/>
<path d="M28 24.0002C28 23.2638 27.403 22.6668 26.6667 22.6668C25.9303 22.6668 25.3333 23.2638 25.3333 24.0002V25.3335H24C23.2636 25.3335 22.6667 25.9304 22.6667 26.6668C22.6667 27.4032 23.2636 28.0002 24 28.0002H25.3333V29.3335C25.3333 30.0699 25.9303 30.6668 26.6667 30.6668C27.403 30.6668 28 30.0699 28 29.3335V28.0002H29.3333C30.0697 28.0002 30.6667 27.4032 30.6667 26.6668C30.6667 25.9304 30.0697 25.3335 29.3333 25.3335H28V24.0002Z" fill="#D063FF"/>
</svg>
